%
M48
M72
T01C0.02000
T02C0.03346
T03C0.04000
%
T01
X12867Y37716
X22867Y80216
X35367Y97716
X40367Y97716
X40367Y87716
X50367Y92716
X55367Y92716
X55367Y82716
X65367Y92716
X70367Y97716
X77867Y100216
X75367Y77716
X70367Y52716
X95367Y37716
X115367Y117716
X97867Y150216
X97867Y155216
X97867Y160216
X105367Y165216
X110367Y155216
X80367Y137716
X60367Y137716
X55367Y122716
X40367Y117716
X40367Y137716
X25367Y132716
X20367Y122716
X40367Y157716
X45367Y165216
X50367Y157716
X55367Y157716
X15367Y167716
X10367Y162716
T02
X119205Y170196
X119205Y155236
T03
X98567Y175216
X87167Y175216
X107867Y67716
X107867Y57716
X117867Y57716
X117867Y67716
X117867Y47716
X107867Y47716
M30
