G75*
%MOIN*%
%OFA0B0*%
%FSLAX25Y25*%
%IPPOS*%
%LPD*%
%AMOC8*
5,1,8,0,0,1.08239X$1,22.5*
%
%ADD10R,0.04331X0.03937*%
%ADD11C,0.01181*%
%ADD12R,0.03937X0.04331*%
%ADD13R,0.02000X0.02000*%
%ADD14R,0.01969X0.01969*%
%ADD15R,0.05800X0.01100*%
%ADD16R,0.01100X0.05800*%
%ADD17R,0.09449X0.06693*%
%ADD18R,0.03150X0.01181*%
%ADD19R,0.01181X0.03150*%
D10*
X0047020Y0042716D03*
X0047020Y0047716D03*
X0053713Y0047716D03*
X0053713Y0042716D03*
X0062020Y0047716D03*
X0068713Y0047716D03*
X0077020Y0047716D03*
X0077020Y0042716D03*
X0083713Y0042716D03*
X0083713Y0047716D03*
X0112020Y0097716D03*
X0118713Y0097716D03*
X0118713Y0107716D03*
X0112020Y0107716D03*
X0113713Y0122716D03*
X0113713Y0127716D03*
X0107020Y0127716D03*
X0107020Y0122716D03*
X0088713Y0150216D03*
X0088713Y0155216D03*
X0088713Y0160216D03*
X0082020Y0160216D03*
X0082020Y0155216D03*
X0082020Y0150216D03*
G36*
X0035655Y0090221D02*
X0032594Y0087160D01*
X0029811Y0089943D01*
X0032872Y0093004D01*
X0035655Y0090221D01*
G37*
G36*
X0030922Y0085489D02*
X0027861Y0082428D01*
X0025078Y0085211D01*
X0028139Y0088272D01*
X0030922Y0085489D01*
G37*
D11*
X0040977Y0080274D02*
X0042925Y0078326D01*
X0040977Y0080274D02*
X0042925Y0082222D01*
X0044873Y0080274D01*
X0042925Y0078326D01*
X0044105Y0079506D02*
X0041745Y0079506D01*
X0041389Y0080686D02*
X0044461Y0080686D01*
X0043281Y0081866D02*
X0042569Y0081866D01*
X0045860Y0085157D02*
X0047808Y0083209D01*
X0045860Y0085157D02*
X0047808Y0087105D01*
X0049756Y0085157D01*
X0047808Y0083209D01*
X0048988Y0084389D02*
X0046628Y0084389D01*
X0046272Y0085569D02*
X0049344Y0085569D01*
X0048164Y0086749D02*
X0047452Y0086749D01*
X0022441Y0111338D02*
X0022441Y0114094D01*
X0025197Y0114094D01*
X0025197Y0111338D01*
X0022441Y0111338D01*
X0022441Y0112518D02*
X0025197Y0112518D01*
X0025197Y0113698D02*
X0022441Y0113698D01*
X0022441Y0116338D02*
X0022441Y0119094D01*
X0025197Y0119094D01*
X0025197Y0116338D01*
X0022441Y0116338D01*
X0022441Y0117518D02*
X0025197Y0117518D01*
X0025197Y0118698D02*
X0022441Y0118698D01*
X0015536Y0119094D02*
X0015536Y0116338D01*
X0015536Y0119094D02*
X0018292Y0119094D01*
X0018292Y0116338D01*
X0015536Y0116338D01*
X0015536Y0117518D02*
X0018292Y0117518D01*
X0018292Y0118698D02*
X0015536Y0118698D01*
X0015536Y0114094D02*
X0015536Y0111338D01*
X0015536Y0114094D02*
X0018292Y0114094D01*
X0018292Y0111338D01*
X0015536Y0111338D01*
X0015536Y0112518D02*
X0018292Y0112518D01*
X0018292Y0113698D02*
X0015536Y0113698D01*
X0070792Y0148838D02*
X0070792Y0151594D01*
X0070792Y0148838D02*
X0068036Y0148838D01*
X0068036Y0151594D01*
X0070792Y0151594D01*
X0070792Y0150018D02*
X0068036Y0150018D01*
X0068036Y0151198D02*
X0070792Y0151198D01*
X0077697Y0151594D02*
X0077697Y0148838D01*
X0074941Y0148838D01*
X0074941Y0151594D01*
X0077697Y0151594D01*
X0077697Y0150018D02*
X0074941Y0150018D01*
X0074941Y0151198D02*
X0077697Y0151198D01*
X0093292Y0129094D02*
X0093292Y0126338D01*
X0090536Y0126338D01*
X0090536Y0129094D01*
X0093292Y0129094D01*
X0093292Y0127518D02*
X0090536Y0127518D01*
X0090536Y0128698D02*
X0093292Y0128698D01*
X0093292Y0124094D02*
X0093292Y0121338D01*
X0090536Y0121338D01*
X0090536Y0124094D01*
X0093292Y0124094D01*
X0093292Y0122518D02*
X0090536Y0122518D01*
X0090536Y0123698D02*
X0093292Y0123698D01*
X0100197Y0124094D02*
X0100197Y0121338D01*
X0097441Y0121338D01*
X0097441Y0124094D01*
X0100197Y0124094D01*
X0100197Y0122518D02*
X0097441Y0122518D01*
X0097441Y0123698D02*
X0100197Y0123698D01*
X0100197Y0126338D02*
X0100197Y0129094D01*
X0100197Y0126338D02*
X0097441Y0126338D01*
X0097441Y0129094D01*
X0100197Y0129094D01*
X0100197Y0127518D02*
X0097441Y0127518D01*
X0097441Y0128698D02*
X0100197Y0128698D01*
D12*
X0040367Y0071062D03*
X0040367Y0064369D03*
X0020367Y0099369D03*
X0020367Y0106062D03*
X0010367Y0106062D03*
X0010367Y0099369D03*
D13*
X0015367Y0127716D03*
X0020367Y0127716D03*
X0020367Y0132716D03*
X0065367Y0087716D03*
X0070367Y0077716D03*
X0095367Y0117716D03*
X0095367Y0132716D03*
D14*
X0056351Y0132716D03*
X0054382Y0132716D03*
X0046351Y0132716D03*
X0044382Y0132716D03*
X0045367Y0123700D03*
X0045367Y0121732D03*
X0050367Y0121732D03*
X0050367Y0123700D03*
D15*
X0034167Y0122816D03*
X0034167Y0124716D03*
X0034167Y0126716D03*
X0034167Y0128716D03*
X0034167Y0130716D03*
X0034167Y0132616D03*
X0034167Y0134616D03*
X0034167Y0136616D03*
X0034167Y0138516D03*
X0034167Y0120816D03*
X0034167Y0118816D03*
X0034167Y0116916D03*
X0066567Y0116916D03*
X0066567Y0118816D03*
X0066567Y0120816D03*
X0066567Y0122816D03*
X0066567Y0124716D03*
X0066567Y0126716D03*
X0066567Y0128716D03*
X0066567Y0130716D03*
X0066567Y0132616D03*
X0066567Y0134616D03*
X0066567Y0136616D03*
X0066567Y0138516D03*
D16*
X0061167Y0143916D03*
X0059267Y0143916D03*
X0057267Y0143916D03*
X0055267Y0143916D03*
X0053367Y0143916D03*
X0051367Y0143916D03*
X0049367Y0143916D03*
X0047367Y0143916D03*
X0045467Y0143916D03*
X0043467Y0143916D03*
X0041467Y0143916D03*
X0039567Y0143916D03*
X0039567Y0111516D03*
X0041467Y0111516D03*
X0043467Y0111516D03*
X0045467Y0111516D03*
X0047367Y0111516D03*
X0049367Y0111516D03*
X0051367Y0111516D03*
X0053367Y0111516D03*
X0055267Y0111516D03*
X0057267Y0111516D03*
X0059267Y0111516D03*
X0061167Y0111516D03*
D17*
X0100367Y0109999D03*
X0100367Y0095432D03*
D18*
X0068241Y0072637D03*
X0068241Y0070669D03*
X0068241Y0068700D03*
X0068241Y0066732D03*
X0068241Y0064763D03*
X0068241Y0062795D03*
X0052493Y0062795D03*
X0052493Y0064763D03*
X0052493Y0066732D03*
X0052493Y0068700D03*
X0052493Y0070669D03*
X0052493Y0072637D03*
D19*
X0055445Y0075590D03*
X0057414Y0075590D03*
X0059382Y0075590D03*
X0061351Y0075590D03*
X0063319Y0075590D03*
X0065288Y0075590D03*
X0065288Y0059842D03*
X0063319Y0059842D03*
X0061351Y0059842D03*
X0059382Y0059842D03*
X0057414Y0059842D03*
X0055445Y0059842D03*
M02*
