G75*
%MOIN*%
%OFA0B0*%
%FSLAX25Y25*%
%IPPOS*%
%LPD*%
%AMOC8*
5,1,8,0,0,1.08239X$1,22.5*
%
%ADD10C,0.00000*%
%ADD11R,0.04331X0.03937*%
%ADD12C,0.01181*%
%ADD13C,0.07400*%
%ADD14OC8,0.07400*%
%ADD15C,0.00591*%
%ADD16R,0.03937X0.04331*%
%ADD17R,0.02000X0.02000*%
%ADD18R,0.01969X0.01969*%
%ADD19R,0.05800X0.01100*%
%ADD20R,0.01100X0.05800*%
%ADD21R,0.09449X0.06693*%
%ADD22R,0.03150X0.01181*%
%ADD23R,0.01181X0.03150*%
%ADD24C,0.01000*%
%ADD25C,0.03400*%
%ADD26C,0.03200*%
D10*
X0013174Y0027716D02*
X0127260Y0027716D01*
X0137867Y0038322D01*
X0137867Y0176202D01*
X0128853Y0185216D01*
X0072867Y0185216D01*
X0070367Y0182716D01*
X0070367Y0177716D01*
X0067867Y0175216D01*
X0011881Y0175216D01*
X0002867Y0166202D01*
X0002867Y0038024D01*
X0013174Y0027716D01*
X0011867Y0037716D02*
X0011869Y0037779D01*
X0011875Y0037841D01*
X0011885Y0037903D01*
X0011898Y0037965D01*
X0011916Y0038025D01*
X0011937Y0038084D01*
X0011962Y0038142D01*
X0011991Y0038198D01*
X0012023Y0038252D01*
X0012058Y0038304D01*
X0012096Y0038353D01*
X0012138Y0038401D01*
X0012182Y0038445D01*
X0012230Y0038487D01*
X0012279Y0038525D01*
X0012331Y0038560D01*
X0012385Y0038592D01*
X0012441Y0038621D01*
X0012499Y0038646D01*
X0012558Y0038667D01*
X0012618Y0038685D01*
X0012680Y0038698D01*
X0012742Y0038708D01*
X0012804Y0038714D01*
X0012867Y0038716D01*
X0012930Y0038714D01*
X0012992Y0038708D01*
X0013054Y0038698D01*
X0013116Y0038685D01*
X0013176Y0038667D01*
X0013235Y0038646D01*
X0013293Y0038621D01*
X0013349Y0038592D01*
X0013403Y0038560D01*
X0013455Y0038525D01*
X0013504Y0038487D01*
X0013552Y0038445D01*
X0013596Y0038401D01*
X0013638Y0038353D01*
X0013676Y0038304D01*
X0013711Y0038252D01*
X0013743Y0038198D01*
X0013772Y0038142D01*
X0013797Y0038084D01*
X0013818Y0038025D01*
X0013836Y0037965D01*
X0013849Y0037903D01*
X0013859Y0037841D01*
X0013865Y0037779D01*
X0013867Y0037716D01*
X0013865Y0037653D01*
X0013859Y0037591D01*
X0013849Y0037529D01*
X0013836Y0037467D01*
X0013818Y0037407D01*
X0013797Y0037348D01*
X0013772Y0037290D01*
X0013743Y0037234D01*
X0013711Y0037180D01*
X0013676Y0037128D01*
X0013638Y0037079D01*
X0013596Y0037031D01*
X0013552Y0036987D01*
X0013504Y0036945D01*
X0013455Y0036907D01*
X0013403Y0036872D01*
X0013349Y0036840D01*
X0013293Y0036811D01*
X0013235Y0036786D01*
X0013176Y0036765D01*
X0013116Y0036747D01*
X0013054Y0036734D01*
X0012992Y0036724D01*
X0012930Y0036718D01*
X0012867Y0036716D01*
X0012804Y0036718D01*
X0012742Y0036724D01*
X0012680Y0036734D01*
X0012618Y0036747D01*
X0012558Y0036765D01*
X0012499Y0036786D01*
X0012441Y0036811D01*
X0012385Y0036840D01*
X0012331Y0036872D01*
X0012279Y0036907D01*
X0012230Y0036945D01*
X0012182Y0036987D01*
X0012138Y0037031D01*
X0012096Y0037079D01*
X0012058Y0037128D01*
X0012023Y0037180D01*
X0011991Y0037234D01*
X0011962Y0037290D01*
X0011937Y0037348D01*
X0011916Y0037407D01*
X0011898Y0037467D01*
X0011885Y0037529D01*
X0011875Y0037591D01*
X0011869Y0037653D01*
X0011867Y0037716D01*
X0009367Y0162716D02*
X0009369Y0162779D01*
X0009375Y0162841D01*
X0009385Y0162903D01*
X0009398Y0162965D01*
X0009416Y0163025D01*
X0009437Y0163084D01*
X0009462Y0163142D01*
X0009491Y0163198D01*
X0009523Y0163252D01*
X0009558Y0163304D01*
X0009596Y0163353D01*
X0009638Y0163401D01*
X0009682Y0163445D01*
X0009730Y0163487D01*
X0009779Y0163525D01*
X0009831Y0163560D01*
X0009885Y0163592D01*
X0009941Y0163621D01*
X0009999Y0163646D01*
X0010058Y0163667D01*
X0010118Y0163685D01*
X0010180Y0163698D01*
X0010242Y0163708D01*
X0010304Y0163714D01*
X0010367Y0163716D01*
X0010430Y0163714D01*
X0010492Y0163708D01*
X0010554Y0163698D01*
X0010616Y0163685D01*
X0010676Y0163667D01*
X0010735Y0163646D01*
X0010793Y0163621D01*
X0010849Y0163592D01*
X0010903Y0163560D01*
X0010955Y0163525D01*
X0011004Y0163487D01*
X0011052Y0163445D01*
X0011096Y0163401D01*
X0011138Y0163353D01*
X0011176Y0163304D01*
X0011211Y0163252D01*
X0011243Y0163198D01*
X0011272Y0163142D01*
X0011297Y0163084D01*
X0011318Y0163025D01*
X0011336Y0162965D01*
X0011349Y0162903D01*
X0011359Y0162841D01*
X0011365Y0162779D01*
X0011367Y0162716D01*
X0011365Y0162653D01*
X0011359Y0162591D01*
X0011349Y0162529D01*
X0011336Y0162467D01*
X0011318Y0162407D01*
X0011297Y0162348D01*
X0011272Y0162290D01*
X0011243Y0162234D01*
X0011211Y0162180D01*
X0011176Y0162128D01*
X0011138Y0162079D01*
X0011096Y0162031D01*
X0011052Y0161987D01*
X0011004Y0161945D01*
X0010955Y0161907D01*
X0010903Y0161872D01*
X0010849Y0161840D01*
X0010793Y0161811D01*
X0010735Y0161786D01*
X0010676Y0161765D01*
X0010616Y0161747D01*
X0010554Y0161734D01*
X0010492Y0161724D01*
X0010430Y0161718D01*
X0010367Y0161716D01*
X0010304Y0161718D01*
X0010242Y0161724D01*
X0010180Y0161734D01*
X0010118Y0161747D01*
X0010058Y0161765D01*
X0009999Y0161786D01*
X0009941Y0161811D01*
X0009885Y0161840D01*
X0009831Y0161872D01*
X0009779Y0161907D01*
X0009730Y0161945D01*
X0009682Y0161987D01*
X0009638Y0162031D01*
X0009596Y0162079D01*
X0009558Y0162128D01*
X0009523Y0162180D01*
X0009491Y0162234D01*
X0009462Y0162290D01*
X0009437Y0162348D01*
X0009416Y0162407D01*
X0009398Y0162467D01*
X0009385Y0162529D01*
X0009375Y0162591D01*
X0009369Y0162653D01*
X0009367Y0162716D01*
X0014367Y0167716D02*
X0014369Y0167779D01*
X0014375Y0167841D01*
X0014385Y0167903D01*
X0014398Y0167965D01*
X0014416Y0168025D01*
X0014437Y0168084D01*
X0014462Y0168142D01*
X0014491Y0168198D01*
X0014523Y0168252D01*
X0014558Y0168304D01*
X0014596Y0168353D01*
X0014638Y0168401D01*
X0014682Y0168445D01*
X0014730Y0168487D01*
X0014779Y0168525D01*
X0014831Y0168560D01*
X0014885Y0168592D01*
X0014941Y0168621D01*
X0014999Y0168646D01*
X0015058Y0168667D01*
X0015118Y0168685D01*
X0015180Y0168698D01*
X0015242Y0168708D01*
X0015304Y0168714D01*
X0015367Y0168716D01*
X0015430Y0168714D01*
X0015492Y0168708D01*
X0015554Y0168698D01*
X0015616Y0168685D01*
X0015676Y0168667D01*
X0015735Y0168646D01*
X0015793Y0168621D01*
X0015849Y0168592D01*
X0015903Y0168560D01*
X0015955Y0168525D01*
X0016004Y0168487D01*
X0016052Y0168445D01*
X0016096Y0168401D01*
X0016138Y0168353D01*
X0016176Y0168304D01*
X0016211Y0168252D01*
X0016243Y0168198D01*
X0016272Y0168142D01*
X0016297Y0168084D01*
X0016318Y0168025D01*
X0016336Y0167965D01*
X0016349Y0167903D01*
X0016359Y0167841D01*
X0016365Y0167779D01*
X0016367Y0167716D01*
X0016365Y0167653D01*
X0016359Y0167591D01*
X0016349Y0167529D01*
X0016336Y0167467D01*
X0016318Y0167407D01*
X0016297Y0167348D01*
X0016272Y0167290D01*
X0016243Y0167234D01*
X0016211Y0167180D01*
X0016176Y0167128D01*
X0016138Y0167079D01*
X0016096Y0167031D01*
X0016052Y0166987D01*
X0016004Y0166945D01*
X0015955Y0166907D01*
X0015903Y0166872D01*
X0015849Y0166840D01*
X0015793Y0166811D01*
X0015735Y0166786D01*
X0015676Y0166765D01*
X0015616Y0166747D01*
X0015554Y0166734D01*
X0015492Y0166724D01*
X0015430Y0166718D01*
X0015367Y0166716D01*
X0015304Y0166718D01*
X0015242Y0166724D01*
X0015180Y0166734D01*
X0015118Y0166747D01*
X0015058Y0166765D01*
X0014999Y0166786D01*
X0014941Y0166811D01*
X0014885Y0166840D01*
X0014831Y0166872D01*
X0014779Y0166907D01*
X0014730Y0166945D01*
X0014682Y0166987D01*
X0014638Y0167031D01*
X0014596Y0167079D01*
X0014558Y0167128D01*
X0014523Y0167180D01*
X0014491Y0167234D01*
X0014462Y0167290D01*
X0014437Y0167348D01*
X0014416Y0167407D01*
X0014398Y0167467D01*
X0014385Y0167529D01*
X0014375Y0167591D01*
X0014369Y0167653D01*
X0014367Y0167716D01*
X0117532Y0170196D02*
X0117534Y0170277D01*
X0117540Y0170359D01*
X0117550Y0170440D01*
X0117564Y0170520D01*
X0117581Y0170599D01*
X0117603Y0170678D01*
X0117628Y0170755D01*
X0117657Y0170832D01*
X0117690Y0170906D01*
X0117727Y0170979D01*
X0117766Y0171050D01*
X0117810Y0171119D01*
X0117856Y0171186D01*
X0117906Y0171250D01*
X0117959Y0171312D01*
X0118015Y0171372D01*
X0118073Y0171428D01*
X0118135Y0171482D01*
X0118199Y0171533D01*
X0118265Y0171580D01*
X0118333Y0171624D01*
X0118404Y0171665D01*
X0118476Y0171702D01*
X0118551Y0171736D01*
X0118626Y0171766D01*
X0118704Y0171792D01*
X0118782Y0171815D01*
X0118861Y0171833D01*
X0118941Y0171848D01*
X0119022Y0171859D01*
X0119103Y0171866D01*
X0119185Y0171869D01*
X0119266Y0171868D01*
X0119347Y0171863D01*
X0119428Y0171854D01*
X0119509Y0171841D01*
X0119589Y0171824D01*
X0119667Y0171804D01*
X0119745Y0171779D01*
X0119822Y0171751D01*
X0119897Y0171719D01*
X0119970Y0171684D01*
X0120041Y0171645D01*
X0120111Y0171602D01*
X0120178Y0171557D01*
X0120244Y0171508D01*
X0120306Y0171456D01*
X0120366Y0171400D01*
X0120423Y0171342D01*
X0120478Y0171282D01*
X0120529Y0171218D01*
X0120577Y0171153D01*
X0120622Y0171085D01*
X0120664Y0171015D01*
X0120702Y0170943D01*
X0120737Y0170869D01*
X0120768Y0170794D01*
X0120795Y0170717D01*
X0120818Y0170639D01*
X0120838Y0170560D01*
X0120854Y0170480D01*
X0120866Y0170399D01*
X0120874Y0170318D01*
X0120878Y0170237D01*
X0120878Y0170155D01*
X0120874Y0170074D01*
X0120866Y0169993D01*
X0120854Y0169912D01*
X0120838Y0169832D01*
X0120818Y0169753D01*
X0120795Y0169675D01*
X0120768Y0169598D01*
X0120737Y0169523D01*
X0120702Y0169449D01*
X0120664Y0169377D01*
X0120622Y0169307D01*
X0120577Y0169239D01*
X0120529Y0169174D01*
X0120478Y0169110D01*
X0120423Y0169050D01*
X0120366Y0168992D01*
X0120306Y0168936D01*
X0120244Y0168884D01*
X0120178Y0168835D01*
X0120111Y0168790D01*
X0120042Y0168747D01*
X0119970Y0168708D01*
X0119897Y0168673D01*
X0119822Y0168641D01*
X0119745Y0168613D01*
X0119667Y0168588D01*
X0119589Y0168568D01*
X0119509Y0168551D01*
X0119428Y0168538D01*
X0119347Y0168529D01*
X0119266Y0168524D01*
X0119185Y0168523D01*
X0119103Y0168526D01*
X0119022Y0168533D01*
X0118941Y0168544D01*
X0118861Y0168559D01*
X0118782Y0168577D01*
X0118704Y0168600D01*
X0118626Y0168626D01*
X0118551Y0168656D01*
X0118476Y0168690D01*
X0118404Y0168727D01*
X0118333Y0168768D01*
X0118265Y0168812D01*
X0118199Y0168859D01*
X0118135Y0168910D01*
X0118073Y0168964D01*
X0118015Y0169020D01*
X0117959Y0169080D01*
X0117906Y0169142D01*
X0117856Y0169206D01*
X0117810Y0169273D01*
X0117766Y0169342D01*
X0117727Y0169413D01*
X0117690Y0169486D01*
X0117657Y0169560D01*
X0117628Y0169637D01*
X0117603Y0169714D01*
X0117581Y0169793D01*
X0117564Y0169872D01*
X0117550Y0169952D01*
X0117540Y0170033D01*
X0117534Y0170115D01*
X0117532Y0170196D01*
X0117532Y0155236D02*
X0117534Y0155317D01*
X0117540Y0155399D01*
X0117550Y0155480D01*
X0117564Y0155560D01*
X0117581Y0155639D01*
X0117603Y0155718D01*
X0117628Y0155795D01*
X0117657Y0155872D01*
X0117690Y0155946D01*
X0117727Y0156019D01*
X0117766Y0156090D01*
X0117810Y0156159D01*
X0117856Y0156226D01*
X0117906Y0156290D01*
X0117959Y0156352D01*
X0118015Y0156412D01*
X0118073Y0156468D01*
X0118135Y0156522D01*
X0118199Y0156573D01*
X0118265Y0156620D01*
X0118333Y0156664D01*
X0118404Y0156705D01*
X0118476Y0156742D01*
X0118551Y0156776D01*
X0118626Y0156806D01*
X0118704Y0156832D01*
X0118782Y0156855D01*
X0118861Y0156873D01*
X0118941Y0156888D01*
X0119022Y0156899D01*
X0119103Y0156906D01*
X0119185Y0156909D01*
X0119266Y0156908D01*
X0119347Y0156903D01*
X0119428Y0156894D01*
X0119509Y0156881D01*
X0119589Y0156864D01*
X0119667Y0156844D01*
X0119745Y0156819D01*
X0119822Y0156791D01*
X0119897Y0156759D01*
X0119970Y0156724D01*
X0120041Y0156685D01*
X0120111Y0156642D01*
X0120178Y0156597D01*
X0120244Y0156548D01*
X0120306Y0156496D01*
X0120366Y0156440D01*
X0120423Y0156382D01*
X0120478Y0156322D01*
X0120529Y0156258D01*
X0120577Y0156193D01*
X0120622Y0156125D01*
X0120664Y0156055D01*
X0120702Y0155983D01*
X0120737Y0155909D01*
X0120768Y0155834D01*
X0120795Y0155757D01*
X0120818Y0155679D01*
X0120838Y0155600D01*
X0120854Y0155520D01*
X0120866Y0155439D01*
X0120874Y0155358D01*
X0120878Y0155277D01*
X0120878Y0155195D01*
X0120874Y0155114D01*
X0120866Y0155033D01*
X0120854Y0154952D01*
X0120838Y0154872D01*
X0120818Y0154793D01*
X0120795Y0154715D01*
X0120768Y0154638D01*
X0120737Y0154563D01*
X0120702Y0154489D01*
X0120664Y0154417D01*
X0120622Y0154347D01*
X0120577Y0154279D01*
X0120529Y0154214D01*
X0120478Y0154150D01*
X0120423Y0154090D01*
X0120366Y0154032D01*
X0120306Y0153976D01*
X0120244Y0153924D01*
X0120178Y0153875D01*
X0120111Y0153830D01*
X0120042Y0153787D01*
X0119970Y0153748D01*
X0119897Y0153713D01*
X0119822Y0153681D01*
X0119745Y0153653D01*
X0119667Y0153628D01*
X0119589Y0153608D01*
X0119509Y0153591D01*
X0119428Y0153578D01*
X0119347Y0153569D01*
X0119266Y0153564D01*
X0119185Y0153563D01*
X0119103Y0153566D01*
X0119022Y0153573D01*
X0118941Y0153584D01*
X0118861Y0153599D01*
X0118782Y0153617D01*
X0118704Y0153640D01*
X0118626Y0153666D01*
X0118551Y0153696D01*
X0118476Y0153730D01*
X0118404Y0153767D01*
X0118333Y0153808D01*
X0118265Y0153852D01*
X0118199Y0153899D01*
X0118135Y0153950D01*
X0118073Y0154004D01*
X0118015Y0154060D01*
X0117959Y0154120D01*
X0117906Y0154182D01*
X0117856Y0154246D01*
X0117810Y0154313D01*
X0117766Y0154382D01*
X0117727Y0154453D01*
X0117690Y0154526D01*
X0117657Y0154600D01*
X0117628Y0154677D01*
X0117603Y0154754D01*
X0117581Y0154833D01*
X0117564Y0154912D01*
X0117550Y0154992D01*
X0117540Y0155073D01*
X0117534Y0155155D01*
X0117532Y0155236D01*
D11*
X0113713Y0127716D03*
X0113713Y0122716D03*
X0107020Y0122716D03*
X0107020Y0127716D03*
X0112020Y0107716D03*
X0118713Y0107716D03*
X0118713Y0097716D03*
X0112020Y0097716D03*
X0088713Y0150216D03*
X0088713Y0155216D03*
X0088713Y0160216D03*
X0082020Y0160216D03*
X0082020Y0155216D03*
X0082020Y0150216D03*
G36*
X0035655Y0090221D02*
X0032594Y0087160D01*
X0029811Y0089943D01*
X0032872Y0093004D01*
X0035655Y0090221D01*
G37*
G36*
X0030922Y0085489D02*
X0027861Y0082428D01*
X0025078Y0085211D01*
X0028139Y0088272D01*
X0030922Y0085489D01*
G37*
X0047020Y0047716D03*
X0047020Y0042716D03*
X0053713Y0042716D03*
X0053713Y0047716D03*
X0062020Y0047716D03*
X0068713Y0047716D03*
X0077020Y0047716D03*
X0077020Y0042716D03*
X0083713Y0042716D03*
X0083713Y0047716D03*
D12*
X0047808Y0083209D02*
X0045860Y0085157D01*
X0047808Y0087105D01*
X0049756Y0085157D01*
X0047808Y0083209D01*
X0048988Y0084389D02*
X0046628Y0084389D01*
X0046272Y0085569D02*
X0049344Y0085569D01*
X0048164Y0086749D02*
X0047452Y0086749D01*
X0040977Y0080274D02*
X0042925Y0078326D01*
X0040977Y0080274D02*
X0042925Y0082222D01*
X0044873Y0080274D01*
X0042925Y0078326D01*
X0044105Y0079506D02*
X0041745Y0079506D01*
X0041389Y0080686D02*
X0044461Y0080686D01*
X0043281Y0081866D02*
X0042569Y0081866D01*
X0022441Y0111338D02*
X0022441Y0114094D01*
X0025197Y0114094D01*
X0025197Y0111338D01*
X0022441Y0111338D01*
X0022441Y0112518D02*
X0025197Y0112518D01*
X0025197Y0113698D02*
X0022441Y0113698D01*
X0022441Y0116338D02*
X0022441Y0119094D01*
X0025197Y0119094D01*
X0025197Y0116338D01*
X0022441Y0116338D01*
X0022441Y0117518D02*
X0025197Y0117518D01*
X0025197Y0118698D02*
X0022441Y0118698D01*
X0015536Y0119094D02*
X0015536Y0116338D01*
X0015536Y0119094D02*
X0018292Y0119094D01*
X0018292Y0116338D01*
X0015536Y0116338D01*
X0015536Y0117518D02*
X0018292Y0117518D01*
X0018292Y0118698D02*
X0015536Y0118698D01*
X0015536Y0114094D02*
X0015536Y0111338D01*
X0015536Y0114094D02*
X0018292Y0114094D01*
X0018292Y0111338D01*
X0015536Y0111338D01*
X0015536Y0112518D02*
X0018292Y0112518D01*
X0018292Y0113698D02*
X0015536Y0113698D01*
X0070792Y0148838D02*
X0070792Y0151594D01*
X0070792Y0148838D02*
X0068036Y0148838D01*
X0068036Y0151594D01*
X0070792Y0151594D01*
X0070792Y0150018D02*
X0068036Y0150018D01*
X0068036Y0151198D02*
X0070792Y0151198D01*
X0077697Y0151594D02*
X0077697Y0148838D01*
X0074941Y0148838D01*
X0074941Y0151594D01*
X0077697Y0151594D01*
X0077697Y0150018D02*
X0074941Y0150018D01*
X0074941Y0151198D02*
X0077697Y0151198D01*
X0093292Y0129094D02*
X0093292Y0126338D01*
X0090536Y0126338D01*
X0090536Y0129094D01*
X0093292Y0129094D01*
X0093292Y0127518D02*
X0090536Y0127518D01*
X0090536Y0128698D02*
X0093292Y0128698D01*
X0093292Y0124094D02*
X0093292Y0121338D01*
X0090536Y0121338D01*
X0090536Y0124094D01*
X0093292Y0124094D01*
X0093292Y0122518D02*
X0090536Y0122518D01*
X0090536Y0123698D02*
X0093292Y0123698D01*
X0100197Y0124094D02*
X0100197Y0121338D01*
X0097441Y0121338D01*
X0097441Y0124094D01*
X0100197Y0124094D01*
X0100197Y0122518D02*
X0097441Y0122518D01*
X0097441Y0123698D02*
X0100197Y0123698D01*
X0100197Y0126338D02*
X0100197Y0129094D01*
X0100197Y0126338D02*
X0097441Y0126338D01*
X0097441Y0129094D01*
X0100197Y0129094D01*
X0100197Y0127518D02*
X0097441Y0127518D01*
X0097441Y0128698D02*
X0100197Y0128698D01*
D13*
X0098567Y0175216D03*
X0087167Y0175216D03*
D14*
X0107867Y0067716D03*
X0107867Y0057716D03*
X0117867Y0057716D03*
X0117867Y0067716D03*
X0117867Y0047716D03*
X0107867Y0047716D03*
D15*
X0119231Y0158062D02*
X0120715Y0159273D01*
X0121313Y0158965D01*
X0122160Y0161011D01*
X0121782Y0161223D01*
X0121463Y0161517D01*
X0121222Y0161878D01*
X0121072Y0162285D01*
X0121021Y0162716D01*
X0121074Y0163154D01*
X0121230Y0163568D01*
X0121479Y0163932D01*
X0121808Y0164227D01*
X0122198Y0164435D01*
X0122626Y0164545D01*
X0123067Y0164550D01*
X0123498Y0164450D01*
X0123892Y0164250D01*
X0124227Y0163962D01*
X0124484Y0163603D01*
X0124649Y0163193D01*
X0124711Y0162756D01*
X0124668Y0162316D01*
X0124522Y0161900D01*
X0124280Y0161530D01*
X0123958Y0161227D01*
X0123573Y0161011D01*
X0124421Y0158965D01*
X0125018Y0159273D01*
X0126502Y0158062D01*
X0127520Y0159080D01*
X0126310Y0160564D01*
X0126618Y0161162D01*
X0126823Y0161802D01*
X0128728Y0161996D01*
X0128728Y0163436D01*
X0126823Y0163629D01*
X0126618Y0164270D01*
X0126310Y0164867D01*
X0127520Y0166352D01*
X0126502Y0167369D01*
X0125018Y0166159D01*
X0124420Y0166467D01*
X0123780Y0166672D01*
X0123586Y0168577D01*
X0122147Y0168577D01*
X0121953Y0166672D01*
X0121313Y0166467D01*
X0120715Y0166159D01*
X0119231Y0167369D01*
X0118213Y0166352D01*
X0119423Y0164867D01*
X0119115Y0164270D01*
X0118910Y0163629D01*
X0117005Y0163436D01*
X0117005Y0161996D01*
X0118910Y0161802D01*
X0119115Y0161162D01*
X0119423Y0160564D01*
X0118213Y0159080D01*
X0119231Y0158062D01*
X0118819Y0158474D02*
X0119735Y0158474D01*
X0120458Y0159063D02*
X0118230Y0159063D01*
X0118679Y0159652D02*
X0121597Y0159652D01*
X0121841Y0160241D02*
X0119160Y0160241D01*
X0119287Y0160830D02*
X0122085Y0160830D01*
X0121569Y0161419D02*
X0119033Y0161419D01*
X0117005Y0162008D02*
X0121174Y0162008D01*
X0121035Y0162597D02*
X0117005Y0162597D01*
X0117005Y0163186D02*
X0121086Y0163186D01*
X0121372Y0163775D02*
X0118957Y0163775D01*
X0119164Y0164364D02*
X0122065Y0164364D01*
X0123666Y0164364D02*
X0126569Y0164364D01*
X0126380Y0164953D02*
X0119353Y0164953D01*
X0118873Y0165542D02*
X0126860Y0165542D01*
X0127341Y0166131D02*
X0118393Y0166131D01*
X0118582Y0166721D02*
X0120027Y0166721D01*
X0119304Y0167310D02*
X0119171Y0167310D01*
X0122018Y0167310D02*
X0123715Y0167310D01*
X0123655Y0167899D02*
X0122078Y0167899D01*
X0122138Y0168488D02*
X0123595Y0168488D01*
X0123775Y0166721D02*
X0121958Y0166721D01*
X0125707Y0166721D02*
X0127151Y0166721D01*
X0126562Y0167310D02*
X0126429Y0167310D01*
X0126776Y0163775D02*
X0124361Y0163775D01*
X0124650Y0163186D02*
X0128728Y0163186D01*
X0128728Y0162597D02*
X0124696Y0162597D01*
X0124560Y0162008D02*
X0128728Y0162008D01*
X0126700Y0161419D02*
X0124162Y0161419D01*
X0123648Y0160830D02*
X0126447Y0160830D01*
X0126574Y0160241D02*
X0123892Y0160241D01*
X0124136Y0159652D02*
X0127054Y0159652D01*
X0127503Y0159063D02*
X0125276Y0159063D01*
X0124611Y0159063D02*
X0124380Y0159063D01*
X0125998Y0158474D02*
X0126914Y0158474D01*
X0121353Y0159063D02*
X0121122Y0159063D01*
D16*
X0040367Y0071062D03*
X0040367Y0064369D03*
X0020367Y0099369D03*
X0020367Y0106062D03*
X0010367Y0106062D03*
X0010367Y0099369D03*
D17*
X0015367Y0127716D03*
X0020367Y0127716D03*
X0020367Y0132716D03*
X0065367Y0087716D03*
X0070367Y0077716D03*
X0095367Y0117716D03*
X0095367Y0132716D03*
D18*
X0056351Y0132716D03*
X0054382Y0132716D03*
X0046351Y0132716D03*
X0044382Y0132716D03*
X0045367Y0123700D03*
X0045367Y0121732D03*
X0050367Y0121732D03*
X0050367Y0123700D03*
D19*
X0034167Y0122816D03*
X0034167Y0124716D03*
X0034167Y0126716D03*
X0034167Y0128716D03*
X0034167Y0130716D03*
X0034167Y0132616D03*
X0034167Y0134616D03*
X0034167Y0136616D03*
X0034167Y0138516D03*
X0034167Y0120816D03*
X0034167Y0118816D03*
X0034167Y0116916D03*
X0066567Y0116916D03*
X0066567Y0118816D03*
X0066567Y0120816D03*
X0066567Y0122816D03*
X0066567Y0124716D03*
X0066567Y0126716D03*
X0066567Y0128716D03*
X0066567Y0130716D03*
X0066567Y0132616D03*
X0066567Y0134616D03*
X0066567Y0136616D03*
X0066567Y0138516D03*
D20*
X0061167Y0143916D03*
X0059267Y0143916D03*
X0057267Y0143916D03*
X0055267Y0143916D03*
X0053367Y0143916D03*
X0051367Y0143916D03*
X0049367Y0143916D03*
X0047367Y0143916D03*
X0045467Y0143916D03*
X0043467Y0143916D03*
X0041467Y0143916D03*
X0039567Y0143916D03*
X0039567Y0111516D03*
X0041467Y0111516D03*
X0043467Y0111516D03*
X0045467Y0111516D03*
X0047367Y0111516D03*
X0049367Y0111516D03*
X0051367Y0111516D03*
X0053367Y0111516D03*
X0055267Y0111516D03*
X0057267Y0111516D03*
X0059267Y0111516D03*
X0061167Y0111516D03*
D21*
X0100367Y0109999D03*
X0100367Y0095432D03*
D22*
X0068241Y0072637D03*
X0068241Y0070669D03*
X0068241Y0068700D03*
X0068241Y0066732D03*
X0068241Y0064763D03*
X0068241Y0062795D03*
X0052493Y0062795D03*
X0052493Y0064763D03*
X0052493Y0066732D03*
X0052493Y0068700D03*
X0052493Y0070669D03*
X0052493Y0072637D03*
D23*
X0055445Y0075590D03*
X0057414Y0075590D03*
X0059382Y0075590D03*
X0061351Y0075590D03*
X0063319Y0075590D03*
X0065288Y0075590D03*
X0065288Y0059842D03*
X0063319Y0059842D03*
X0061351Y0059842D03*
X0059382Y0059842D03*
X0057414Y0059842D03*
X0055445Y0059842D03*
D24*
X0057414Y0059842D02*
X0057414Y0064382D01*
X0056498Y0068985D01*
X0055367Y0072716D01*
X0052571Y0072716D01*
X0052493Y0072637D01*
X0050288Y0072637D01*
X0042020Y0064369D01*
X0040367Y0064369D01*
X0036213Y0064369D01*
X0032867Y0067716D01*
X0032867Y0080216D01*
X0028000Y0085082D01*
X0027733Y0085082D01*
X0022867Y0080216D01*
X0025751Y0082415D02*
X0026940Y0081226D01*
X0027282Y0081029D01*
X0027664Y0080926D01*
X0028059Y0080926D01*
X0028440Y0081029D01*
X0028782Y0081226D01*
X0030110Y0082554D01*
X0028000Y0084665D01*
X0025751Y0082415D01*
X0025985Y0082649D02*
X0015434Y0082649D01*
X0016432Y0081650D02*
X0026516Y0081650D01*
X0025066Y0083100D02*
X0027315Y0085349D01*
X0028000Y0084665D01*
X0028685Y0085349D01*
X0030795Y0083239D01*
X0032124Y0084568D01*
X0032321Y0084910D01*
X0032361Y0085059D01*
X0033464Y0085059D01*
X0036567Y0088162D01*
X0036567Y0086960D01*
X0037145Y0085563D01*
X0038214Y0084494D01*
X0039611Y0083916D01*
X0040813Y0083916D01*
X0038696Y0081798D01*
X0038286Y0080810D01*
X0038286Y0079739D01*
X0038411Y0079437D01*
X0038162Y0079189D01*
X0037767Y0078233D01*
X0037767Y0075328D01*
X0037528Y0075328D01*
X0036298Y0074097D01*
X0036298Y0068027D01*
X0037078Y0067248D01*
X0037000Y0067114D01*
X0036898Y0066732D01*
X0036898Y0064854D01*
X0039882Y0064854D01*
X0039882Y0063885D01*
X0036898Y0063885D01*
X0036898Y0062007D01*
X0037000Y0061625D01*
X0037198Y0061283D01*
X0037477Y0061004D01*
X0037819Y0060806D01*
X0038201Y0060704D01*
X0039882Y0060704D01*
X0039882Y0063885D01*
X0040851Y0063885D01*
X0040851Y0060704D01*
X0042533Y0060704D01*
X0042914Y0060806D01*
X0043256Y0061004D01*
X0043535Y0061283D01*
X0043733Y0061625D01*
X0043835Y0062007D01*
X0043835Y0063885D01*
X0040851Y0063885D01*
X0040851Y0064854D01*
X0043835Y0064854D01*
X0043835Y0066732D01*
X0043733Y0067114D01*
X0043656Y0067248D01*
X0044435Y0068027D01*
X0044435Y0074097D01*
X0043205Y0075328D01*
X0042967Y0075328D01*
X0042967Y0075635D01*
X0043460Y0075635D01*
X0044449Y0076045D01*
X0047155Y0078750D01*
X0047564Y0079739D01*
X0047564Y0080518D01*
X0048343Y0080518D01*
X0049332Y0080928D01*
X0051567Y0083162D01*
X0051567Y0081960D01*
X0052145Y0080563D01*
X0052845Y0079863D01*
X0052845Y0078125D01*
X0052755Y0078034D01*
X0052755Y0074728D01*
X0052493Y0074728D01*
X0052493Y0073359D01*
X0052493Y0073359D01*
X0052493Y0074728D01*
X0050720Y0074728D01*
X0050339Y0074625D01*
X0049997Y0074428D01*
X0049718Y0074149D01*
X0049520Y0073807D01*
X0049418Y0073425D01*
X0049418Y0072729D01*
X0048818Y0072129D01*
X0048818Y0066167D01*
X0045367Y0062716D01*
X0045367Y0060216D01*
X0030367Y0060216D01*
X0020367Y0070216D01*
X0020367Y0075216D01*
X0017867Y0077716D01*
X0017867Y0080216D01*
X0007867Y0090216D01*
X0007867Y0095794D01*
X0008201Y0095704D01*
X0009882Y0095704D01*
X0009882Y0098885D01*
X0010851Y0098885D01*
X0010851Y0095704D01*
X0012533Y0095704D01*
X0012914Y0095806D01*
X0013256Y0096004D01*
X0013535Y0096283D01*
X0013733Y0096625D01*
X0013835Y0097007D01*
X0013835Y0098885D01*
X0010851Y0098885D01*
X0010851Y0099854D01*
X0013835Y0099854D01*
X0013835Y0101732D01*
X0013733Y0102114D01*
X0013656Y0102248D01*
X0014435Y0103027D01*
X0014435Y0105252D01*
X0014710Y0104590D01*
X0015441Y0103858D01*
X0016298Y0103503D01*
X0016298Y0103027D01*
X0017078Y0102248D01*
X0017000Y0102114D01*
X0016898Y0101732D01*
X0016898Y0099854D01*
X0019882Y0099854D01*
X0019882Y0098885D01*
X0016898Y0098885D01*
X0016898Y0097007D01*
X0017000Y0096625D01*
X0017198Y0096283D01*
X0017477Y0096004D01*
X0017819Y0095806D01*
X0018201Y0095704D01*
X0019882Y0095704D01*
X0019882Y0098885D01*
X0020851Y0098885D01*
X0020851Y0095704D01*
X0022533Y0095704D01*
X0022914Y0095806D01*
X0023256Y0096004D01*
X0023535Y0096283D01*
X0023733Y0096625D01*
X0023835Y0097007D01*
X0023835Y0098885D01*
X0020851Y0098885D01*
X0020851Y0099854D01*
X0023835Y0099854D01*
X0023835Y0101732D01*
X0023733Y0102114D01*
X0023656Y0102248D01*
X0024435Y0103027D01*
X0024435Y0108647D01*
X0025733Y0108647D01*
X0026721Y0109057D01*
X0027478Y0109814D01*
X0027888Y0110803D01*
X0027888Y0111560D01*
X0030594Y0114266D01*
X0036917Y0114266D01*
X0036917Y0107746D01*
X0038147Y0106516D01*
X0038867Y0106516D01*
X0038867Y0104893D01*
X0035490Y0101516D01*
X0034611Y0101516D01*
X0033214Y0100937D01*
X0032145Y0099868D01*
X0031567Y0098472D01*
X0031567Y0096960D01*
X0032145Y0095563D01*
X0032603Y0095105D01*
X0032002Y0095105D01*
X0027710Y0090813D01*
X0027710Y0089710D01*
X0027561Y0089670D01*
X0027219Y0089473D01*
X0025890Y0088145D01*
X0028000Y0086034D01*
X0027315Y0085350D01*
X0025205Y0087460D01*
X0023877Y0086131D01*
X0023680Y0085789D01*
X0023577Y0085408D01*
X0023577Y0085013D01*
X0023680Y0084631D01*
X0023877Y0084289D01*
X0025066Y0083100D01*
X0024519Y0083647D02*
X0014435Y0083647D01*
X0013437Y0084646D02*
X0023676Y0084646D01*
X0023641Y0085644D02*
X0012438Y0085644D01*
X0011440Y0086643D02*
X0024389Y0086643D01*
X0026022Y0086643D02*
X0027392Y0086643D01*
X0027610Y0085644D02*
X0027021Y0085644D01*
X0028000Y0085350D02*
X0028000Y0085082D01*
X0028000Y0085350D02*
X0020367Y0092983D01*
X0020367Y0099369D01*
X0010367Y0099369D01*
X0010851Y0099624D02*
X0019882Y0099624D01*
X0020851Y0099624D02*
X0032044Y0099624D01*
X0031630Y0098625D02*
X0023835Y0098625D01*
X0023835Y0097627D02*
X0031567Y0097627D01*
X0031704Y0096628D02*
X0023734Y0096628D01*
X0020851Y0096628D02*
X0019882Y0096628D01*
X0019882Y0097627D02*
X0020851Y0097627D01*
X0020851Y0098625D02*
X0019882Y0098625D01*
X0017000Y0096628D02*
X0013734Y0096628D01*
X0013835Y0097627D02*
X0016898Y0097627D01*
X0016898Y0098625D02*
X0013835Y0098625D01*
X0013835Y0100622D02*
X0016898Y0100622D01*
X0016898Y0101621D02*
X0013835Y0101621D01*
X0014027Y0102619D02*
X0016706Y0102619D01*
X0016022Y0103618D02*
X0014435Y0103618D01*
X0014435Y0104616D02*
X0014699Y0104616D01*
X0016914Y0106062D02*
X0020367Y0106062D01*
X0016914Y0106062D02*
X0016914Y0112716D01*
X0016914Y0117716D02*
X0015367Y0117716D01*
X0010367Y0112716D01*
X0010367Y0106062D01*
X0005367Y0110974D02*
X0005367Y0165216D01*
X0012867Y0172716D01*
X0070367Y0172716D01*
X0072867Y0175216D01*
X0072867Y0182246D01*
X0073336Y0182716D01*
X0127867Y0182716D01*
X0135367Y0175216D01*
X0135367Y0040216D01*
X0125367Y0030216D01*
X0013644Y0030216D01*
X0005367Y0038493D01*
X0005367Y0089457D01*
X0005662Y0088743D01*
X0015267Y0079139D01*
X0015267Y0077199D01*
X0015662Y0076243D01*
X0017767Y0074139D01*
X0017767Y0069699D01*
X0018162Y0068743D01*
X0028162Y0058743D01*
X0028894Y0058012D01*
X0029849Y0057616D01*
X0045884Y0057616D01*
X0046839Y0058012D01*
X0047571Y0058743D01*
X0047967Y0059699D01*
X0047967Y0061639D01*
X0048818Y0062490D01*
X0048818Y0061334D01*
X0050048Y0060104D01*
X0050267Y0060104D01*
X0050267Y0058793D01*
X0049290Y0057816D01*
X0047349Y0057816D01*
X0046394Y0057420D01*
X0041394Y0052420D01*
X0040662Y0051689D01*
X0040267Y0050733D01*
X0040267Y0037199D01*
X0040662Y0036243D01*
X0043162Y0033743D01*
X0043894Y0033012D01*
X0044849Y0032616D01*
X0083384Y0032616D01*
X0084339Y0033012D01*
X0096839Y0045512D01*
X0097571Y0046243D01*
X0097967Y0047199D01*
X0097967Y0056716D01*
X0098162Y0056243D01*
X0098894Y0055512D01*
X0103177Y0051229D01*
X0102067Y0050118D01*
X0102067Y0045313D01*
X0105464Y0041916D01*
X0110269Y0041916D01*
X0113291Y0044938D01*
X0115713Y0042516D01*
X0117367Y0042516D01*
X0117367Y0047216D01*
X0118367Y0047216D01*
X0118367Y0048216D01*
X0123067Y0048216D01*
X0123067Y0049870D01*
X0120645Y0052292D01*
X0123667Y0055313D01*
X0123667Y0057339D01*
X0126667Y0060339D01*
X0126667Y0044248D01*
X0123834Y0041416D01*
X0096364Y0041416D01*
X0096123Y0041516D01*
X0094611Y0041516D01*
X0093214Y0040937D01*
X0092145Y0039868D01*
X0091567Y0038472D01*
X0091567Y0036960D01*
X0092145Y0035563D01*
X0093214Y0034494D01*
X0094611Y0033916D01*
X0096123Y0033916D01*
X0096364Y0034016D01*
X0126103Y0034016D01*
X0127463Y0034579D01*
X0132463Y0039579D01*
X0133503Y0040620D01*
X0134067Y0041980D01*
X0134067Y0173452D01*
X0133503Y0174812D01*
X0128503Y0179812D01*
X0127463Y0180853D01*
X0126103Y0181416D01*
X0100331Y0181416D01*
X0099365Y0181016D01*
X0097413Y0181016D01*
X0095281Y0180133D01*
X0093650Y0178501D01*
X0092767Y0176370D01*
X0092767Y0174062D01*
X0093650Y0171930D01*
X0095264Y0170316D01*
X0088913Y0170316D01*
X0089163Y0170397D01*
X0089892Y0170768D01*
X0090554Y0171249D01*
X0091133Y0171828D01*
X0091614Y0172490D01*
X0091986Y0173220D01*
X0092239Y0173998D01*
X0092352Y0174716D01*
X0087667Y0174716D01*
X0087667Y0175716D01*
X0092352Y0175716D01*
X0092239Y0176434D01*
X0091986Y0177212D01*
X0091614Y0177941D01*
X0091133Y0178603D01*
X0090554Y0179182D01*
X0089892Y0179663D01*
X0089163Y0180035D01*
X0088384Y0180288D01*
X0087667Y0180401D01*
X0087667Y0175716D01*
X0086667Y0175716D01*
X0086667Y0180401D01*
X0085949Y0180288D01*
X0085171Y0180035D01*
X0084441Y0179663D01*
X0083779Y0179182D01*
X0083200Y0178603D01*
X0082719Y0177941D01*
X0082348Y0177212D01*
X0082095Y0176434D01*
X0081981Y0175716D01*
X0086667Y0175716D01*
X0086667Y0174716D01*
X0081981Y0174716D01*
X0082095Y0173998D01*
X0082348Y0173220D01*
X0082719Y0172490D01*
X0083200Y0171828D01*
X0083779Y0171249D01*
X0084441Y0170768D01*
X0085171Y0170397D01*
X0085420Y0170316D01*
X0052349Y0170316D01*
X0051394Y0169920D01*
X0050662Y0169189D01*
X0048663Y0167189D01*
X0048588Y0167368D01*
X0047519Y0168437D01*
X0046123Y0169016D01*
X0044611Y0169016D01*
X0043214Y0168437D01*
X0042145Y0167368D01*
X0041567Y0165972D01*
X0041567Y0165093D01*
X0040662Y0164189D01*
X0040267Y0163233D01*
X0040267Y0161516D01*
X0039611Y0161516D01*
X0038214Y0160937D01*
X0037145Y0159868D01*
X0036567Y0158472D01*
X0036567Y0157593D01*
X0031790Y0152816D01*
X0029849Y0152816D01*
X0028894Y0152420D01*
X0023894Y0147420D01*
X0013894Y0137420D01*
X0008894Y0132420D01*
X0008162Y0131689D01*
X0007767Y0130733D01*
X0007767Y0113793D01*
X0006394Y0112420D01*
X0005662Y0111689D01*
X0005367Y0110974D01*
X0005367Y0111606D02*
X0005628Y0111606D01*
X0005367Y0112604D02*
X0006578Y0112604D01*
X0007577Y0113603D02*
X0005367Y0113603D01*
X0005367Y0114601D02*
X0007767Y0114601D01*
X0007767Y0115600D02*
X0005367Y0115600D01*
X0005367Y0116598D02*
X0007767Y0116598D01*
X0007767Y0117597D02*
X0005367Y0117597D01*
X0005367Y0118595D02*
X0007767Y0118595D01*
X0007767Y0119594D02*
X0005367Y0119594D01*
X0005367Y0120592D02*
X0007767Y0120592D01*
X0007767Y0121591D02*
X0005367Y0121591D01*
X0005367Y0122589D02*
X0007767Y0122589D01*
X0007767Y0123588D02*
X0005367Y0123588D01*
X0005367Y0124586D02*
X0007767Y0124586D01*
X0007767Y0125585D02*
X0005367Y0125585D01*
X0005367Y0126583D02*
X0007767Y0126583D01*
X0007767Y0127582D02*
X0005367Y0127582D01*
X0005367Y0128580D02*
X0007767Y0128580D01*
X0007767Y0129579D02*
X0005367Y0129579D01*
X0005367Y0130577D02*
X0007767Y0130577D01*
X0008116Y0131576D02*
X0005367Y0131576D01*
X0005367Y0132574D02*
X0009048Y0132574D01*
X0010047Y0133573D02*
X0005367Y0133573D01*
X0005367Y0134571D02*
X0011045Y0134571D01*
X0012044Y0135570D02*
X0005367Y0135570D01*
X0005367Y0136568D02*
X0013042Y0136568D01*
X0014041Y0137567D02*
X0005367Y0137567D01*
X0005367Y0138565D02*
X0015039Y0138565D01*
X0016038Y0139564D02*
X0005367Y0139564D01*
X0005367Y0140563D02*
X0017036Y0140563D01*
X0018035Y0141561D02*
X0005367Y0141561D01*
X0005367Y0142560D02*
X0019033Y0142560D01*
X0020032Y0143558D02*
X0005367Y0143558D01*
X0005367Y0144557D02*
X0021030Y0144557D01*
X0022029Y0145555D02*
X0005367Y0145555D01*
X0005367Y0146554D02*
X0023027Y0146554D01*
X0024026Y0147552D02*
X0005367Y0147552D01*
X0005367Y0148551D02*
X0025024Y0148551D01*
X0026023Y0149549D02*
X0005367Y0149549D01*
X0005367Y0150548D02*
X0027021Y0150548D01*
X0028020Y0151546D02*
X0005367Y0151546D01*
X0005367Y0152545D02*
X0029195Y0152545D01*
X0032517Y0153543D02*
X0005367Y0153543D01*
X0005367Y0154542D02*
X0033516Y0154542D01*
X0034514Y0155540D02*
X0005367Y0155540D01*
X0005367Y0156539D02*
X0035513Y0156539D01*
X0036511Y0157537D02*
X0005367Y0157537D01*
X0005367Y0158536D02*
X0036593Y0158536D01*
X0037007Y0159534D02*
X0005367Y0159534D01*
X0005367Y0160533D02*
X0008166Y0160533D01*
X0007739Y0160960D02*
X0008611Y0160088D01*
X0009750Y0159616D01*
X0010983Y0159616D01*
X0012123Y0160088D01*
X0012995Y0160960D01*
X0013467Y0162099D01*
X0013467Y0163332D01*
X0012995Y0164472D01*
X0012123Y0165344D01*
X0010983Y0165816D01*
X0009750Y0165816D01*
X0008611Y0165344D01*
X0007739Y0164472D01*
X0007267Y0163332D01*
X0007267Y0162099D01*
X0007739Y0160960D01*
X0007502Y0161531D02*
X0005367Y0161531D01*
X0005367Y0162530D02*
X0007267Y0162530D01*
X0007348Y0163528D02*
X0005367Y0163528D01*
X0005367Y0164527D02*
X0007794Y0164527D01*
X0009049Y0165525D02*
X0005676Y0165525D01*
X0006675Y0166524D02*
X0012505Y0166524D01*
X0012739Y0165960D02*
X0013611Y0165088D01*
X0014750Y0164616D01*
X0015983Y0164616D01*
X0017123Y0165088D01*
X0017995Y0165960D01*
X0018467Y0167099D01*
X0018467Y0168332D01*
X0017995Y0169472D01*
X0017123Y0170344D01*
X0015983Y0170816D01*
X0014750Y0170816D01*
X0013611Y0170344D01*
X0012739Y0169472D01*
X0012267Y0168332D01*
X0012267Y0167099D01*
X0012739Y0165960D01*
X0013173Y0165525D02*
X0011685Y0165525D01*
X0012940Y0164527D02*
X0041001Y0164527D01*
X0041567Y0165525D02*
X0017560Y0165525D01*
X0018228Y0166524D02*
X0041795Y0166524D01*
X0042299Y0167522D02*
X0018467Y0167522D01*
X0018389Y0168521D02*
X0043416Y0168521D01*
X0045367Y0165216D02*
X0042867Y0162716D01*
X0042867Y0155216D01*
X0041467Y0153816D01*
X0041467Y0143916D01*
X0039567Y0143916D02*
X0039567Y0156916D01*
X0040367Y0157716D01*
X0037810Y0160533D02*
X0012568Y0160533D01*
X0013231Y0161531D02*
X0040267Y0161531D01*
X0040267Y0162530D02*
X0013467Y0162530D01*
X0013386Y0163528D02*
X0040389Y0163528D01*
X0045367Y0160216D02*
X0052867Y0167716D01*
X0097867Y0167716D01*
X0110367Y0155216D01*
X0113069Y0152545D02*
X0116560Y0152545D01*
X0117068Y0152037D02*
X0116006Y0153098D01*
X0115432Y0154485D01*
X0115432Y0155986D01*
X0116006Y0157373D01*
X0116270Y0157636D01*
X0116182Y0157723D01*
X0116047Y0158051D01*
X0115878Y0158364D01*
X0115866Y0158488D01*
X0115818Y0158604D01*
X0115818Y0158959D01*
X0115782Y0159312D01*
X0115818Y0159431D01*
X0115818Y0159556D01*
X0115938Y0159846D01*
X0115648Y0159966D01*
X0115560Y0160054D01*
X0115450Y0160113D01*
X0115226Y0160388D01*
X0114975Y0160639D01*
X0114927Y0160755D01*
X0114848Y0160852D01*
X0114746Y0161192D01*
X0114610Y0161520D01*
X0114610Y0161645D01*
X0114574Y0161764D01*
X0114610Y0162118D01*
X0114610Y0163314D01*
X0114574Y0163667D01*
X0114610Y0163787D01*
X0114610Y0163912D01*
X0114746Y0164240D01*
X0114848Y0164580D01*
X0114927Y0164677D01*
X0114975Y0164792D01*
X0115226Y0165043D01*
X0115450Y0165318D01*
X0115560Y0165378D01*
X0115648Y0165466D01*
X0115938Y0165586D01*
X0115818Y0165875D01*
X0115818Y0166000D01*
X0115782Y0166120D01*
X0115818Y0166473D01*
X0115818Y0166828D01*
X0115866Y0166944D01*
X0115878Y0167068D01*
X0116047Y0167380D01*
X0116182Y0167708D01*
X0116270Y0167796D01*
X0116006Y0168059D01*
X0115432Y0169446D01*
X0115432Y0170947D01*
X0116006Y0172334D01*
X0117068Y0173395D01*
X0118455Y0173969D01*
X0119956Y0173969D01*
X0121343Y0173395D01*
X0122404Y0172334D01*
X0122968Y0170973D01*
X0123465Y0170973D01*
X0123818Y0171008D01*
X0123938Y0170973D01*
X0124063Y0170973D01*
X0124391Y0170837D01*
X0124731Y0170735D01*
X0124828Y0170656D01*
X0124943Y0170608D01*
X0125194Y0170357D01*
X0125469Y0170133D01*
X0125529Y0170022D01*
X0125617Y0169934D01*
X0125737Y0169645D01*
X0126026Y0169765D01*
X0126151Y0169765D01*
X0126271Y0169801D01*
X0126624Y0169765D01*
X0126667Y0169765D01*
X0126667Y0171183D01*
X0123834Y0174016D01*
X0104347Y0174016D01*
X0104083Y0173377D01*
X0107571Y0169889D01*
X0107967Y0168933D01*
X0107967Y0167990D01*
X0108588Y0167368D01*
X0109167Y0165972D01*
X0109167Y0164460D01*
X0108588Y0163063D01*
X0107519Y0161994D01*
X0107339Y0161920D01*
X0110244Y0159016D01*
X0111123Y0159016D01*
X0112519Y0158437D01*
X0113588Y0157368D01*
X0114167Y0155972D01*
X0114167Y0154460D01*
X0113588Y0153063D01*
X0112519Y0151994D01*
X0111123Y0151416D01*
X0109611Y0151416D01*
X0108214Y0151994D01*
X0107145Y0153063D01*
X0106567Y0154460D01*
X0106567Y0155339D01*
X0105467Y0156439D01*
X0105467Y0145316D01*
X0110884Y0145316D01*
X0111839Y0144920D01*
X0126667Y0130093D01*
X0126667Y0155667D01*
X0126624Y0155667D01*
X0126271Y0155631D01*
X0126151Y0155667D01*
X0126026Y0155667D01*
X0125698Y0155803D01*
X0125358Y0155905D01*
X0125261Y0155984D01*
X0125146Y0156032D01*
X0124895Y0156283D01*
X0124543Y0156569D01*
X0124520Y0156569D01*
X0124144Y0156538D01*
X0124047Y0156569D01*
X0123944Y0156569D01*
X0123596Y0156714D01*
X0123237Y0156829D01*
X0123159Y0156895D01*
X0123064Y0156934D01*
X0122867Y0157131D01*
X0122669Y0156934D01*
X0122598Y0156904D01*
X0122978Y0155986D01*
X0122978Y0154485D01*
X0122404Y0153098D01*
X0121343Y0152037D01*
X0119956Y0151462D01*
X0118455Y0151462D01*
X0117068Y0152037D01*
X0118252Y0151546D02*
X0111437Y0151546D01*
X0109296Y0151546D02*
X0105467Y0151546D01*
X0105467Y0150548D02*
X0126667Y0150548D01*
X0126667Y0151546D02*
X0120158Y0151546D01*
X0121851Y0152545D02*
X0126667Y0152545D01*
X0126667Y0153543D02*
X0122588Y0153543D01*
X0122978Y0154542D02*
X0126667Y0154542D01*
X0126667Y0155540D02*
X0122978Y0155540D01*
X0122750Y0156539D02*
X0124143Y0156539D01*
X0124151Y0156539D02*
X0124581Y0156539D01*
X0126667Y0149549D02*
X0105467Y0149549D01*
X0105467Y0148551D02*
X0126667Y0148551D01*
X0126667Y0147552D02*
X0105467Y0147552D01*
X0105467Y0146554D02*
X0126667Y0146554D01*
X0126667Y0145555D02*
X0105467Y0145555D01*
X0102867Y0142716D02*
X0110367Y0142716D01*
X0125367Y0127716D01*
X0125367Y0062716D01*
X0120367Y0057716D01*
X0117867Y0057716D01*
X0121379Y0062405D02*
X0121069Y0062716D01*
X0122767Y0064413D01*
X0122767Y0063793D01*
X0121379Y0062405D01*
X0121106Y0062679D02*
X0121653Y0062679D01*
X0122030Y0063677D02*
X0122651Y0063677D01*
X0126011Y0059683D02*
X0126667Y0059683D01*
X0126667Y0058685D02*
X0125012Y0058685D01*
X0124014Y0057686D02*
X0126667Y0057686D01*
X0126667Y0056688D02*
X0123667Y0056688D01*
X0123667Y0055689D02*
X0126667Y0055689D01*
X0126667Y0054691D02*
X0123044Y0054691D01*
X0122045Y0053692D02*
X0126667Y0053692D01*
X0126667Y0052694D02*
X0121047Y0052694D01*
X0121241Y0051695D02*
X0126667Y0051695D01*
X0126667Y0050696D02*
X0122240Y0050696D01*
X0123067Y0049698D02*
X0126667Y0049698D01*
X0126667Y0048699D02*
X0123067Y0048699D01*
X0123067Y0047216D02*
X0118367Y0047216D01*
X0118367Y0042516D01*
X0120021Y0042516D01*
X0123067Y0045562D01*
X0123067Y0047216D01*
X0123067Y0046702D02*
X0126667Y0046702D01*
X0126667Y0045704D02*
X0123067Y0045704D01*
X0122210Y0044705D02*
X0126667Y0044705D01*
X0126125Y0043707D02*
X0121212Y0043707D01*
X0120213Y0042708D02*
X0125127Y0042708D01*
X0124128Y0041710D02*
X0093038Y0041710D01*
X0092988Y0040711D02*
X0092039Y0040711D01*
X0092081Y0039713D02*
X0091041Y0039713D01*
X0091667Y0038714D02*
X0090042Y0038714D01*
X0089044Y0037716D02*
X0091567Y0037716D01*
X0091667Y0036717D02*
X0088045Y0036717D01*
X0087047Y0035719D02*
X0092081Y0035719D01*
X0092988Y0034720D02*
X0086048Y0034720D01*
X0085050Y0033722D02*
X0128873Y0033722D01*
X0129871Y0034720D02*
X0127604Y0034720D01*
X0128602Y0035719D02*
X0130870Y0035719D01*
X0131868Y0036717D02*
X0129601Y0036717D01*
X0130599Y0037716D02*
X0132867Y0037716D01*
X0133865Y0038714D02*
X0131598Y0038714D01*
X0132596Y0039713D02*
X0134864Y0039713D01*
X0135367Y0040711D02*
X0133541Y0040711D01*
X0133955Y0041710D02*
X0135367Y0041710D01*
X0135367Y0042708D02*
X0134067Y0042708D01*
X0134067Y0043707D02*
X0135367Y0043707D01*
X0135367Y0044705D02*
X0134067Y0044705D01*
X0134067Y0045704D02*
X0135367Y0045704D01*
X0135367Y0046702D02*
X0134067Y0046702D01*
X0134067Y0047701D02*
X0135367Y0047701D01*
X0135367Y0048699D02*
X0134067Y0048699D01*
X0134067Y0049698D02*
X0135367Y0049698D01*
X0135367Y0050696D02*
X0134067Y0050696D01*
X0134067Y0051695D02*
X0135367Y0051695D01*
X0135367Y0052694D02*
X0134067Y0052694D01*
X0134067Y0053692D02*
X0135367Y0053692D01*
X0135367Y0054691D02*
X0134067Y0054691D01*
X0134067Y0055689D02*
X0135367Y0055689D01*
X0135367Y0056688D02*
X0134067Y0056688D01*
X0134067Y0057686D02*
X0135367Y0057686D01*
X0135367Y0058685D02*
X0134067Y0058685D01*
X0134067Y0059683D02*
X0135367Y0059683D01*
X0135367Y0060682D02*
X0134067Y0060682D01*
X0134067Y0061680D02*
X0135367Y0061680D01*
X0135367Y0062679D02*
X0134067Y0062679D01*
X0134067Y0063677D02*
X0135367Y0063677D01*
X0135367Y0064676D02*
X0134067Y0064676D01*
X0134067Y0065674D02*
X0135367Y0065674D01*
X0135367Y0066673D02*
X0134067Y0066673D01*
X0134067Y0067671D02*
X0135367Y0067671D01*
X0135367Y0068670D02*
X0134067Y0068670D01*
X0134067Y0069668D02*
X0135367Y0069668D01*
X0135367Y0070667D02*
X0134067Y0070667D01*
X0134067Y0071665D02*
X0135367Y0071665D01*
X0135367Y0072664D02*
X0134067Y0072664D01*
X0134067Y0073662D02*
X0135367Y0073662D01*
X0135367Y0074661D02*
X0134067Y0074661D01*
X0134067Y0075659D02*
X0135367Y0075659D01*
X0135367Y0076658D02*
X0134067Y0076658D01*
X0134067Y0077656D02*
X0135367Y0077656D01*
X0135367Y0078655D02*
X0134067Y0078655D01*
X0134067Y0079653D02*
X0135367Y0079653D01*
X0135367Y0080652D02*
X0134067Y0080652D01*
X0134067Y0081650D02*
X0135367Y0081650D01*
X0135367Y0082649D02*
X0134067Y0082649D01*
X0134067Y0083647D02*
X0135367Y0083647D01*
X0135367Y0084646D02*
X0134067Y0084646D01*
X0134067Y0085644D02*
X0135367Y0085644D01*
X0135367Y0086643D02*
X0134067Y0086643D01*
X0134067Y0087641D02*
X0135367Y0087641D01*
X0135367Y0088640D02*
X0134067Y0088640D01*
X0134067Y0089638D02*
X0135367Y0089638D01*
X0135367Y0090637D02*
X0134067Y0090637D01*
X0134067Y0091635D02*
X0135367Y0091635D01*
X0135367Y0092634D02*
X0134067Y0092634D01*
X0134067Y0093632D02*
X0135367Y0093632D01*
X0135367Y0094631D02*
X0134067Y0094631D01*
X0134067Y0095629D02*
X0135367Y0095629D01*
X0135367Y0096628D02*
X0134067Y0096628D01*
X0134067Y0097627D02*
X0135367Y0097627D01*
X0135367Y0098625D02*
X0134067Y0098625D01*
X0134067Y0099624D02*
X0135367Y0099624D01*
X0135367Y0100622D02*
X0134067Y0100622D01*
X0134067Y0101621D02*
X0135367Y0101621D01*
X0135367Y0102619D02*
X0134067Y0102619D01*
X0134067Y0103618D02*
X0135367Y0103618D01*
X0135367Y0104616D02*
X0134067Y0104616D01*
X0134067Y0105615D02*
X0135367Y0105615D01*
X0135367Y0106613D02*
X0134067Y0106613D01*
X0134067Y0107612D02*
X0135367Y0107612D01*
X0135367Y0108610D02*
X0134067Y0108610D01*
X0134067Y0109609D02*
X0135367Y0109609D01*
X0135367Y0110607D02*
X0134067Y0110607D01*
X0134067Y0111606D02*
X0135367Y0111606D01*
X0135367Y0112604D02*
X0134067Y0112604D01*
X0134067Y0113603D02*
X0135367Y0113603D01*
X0135367Y0114601D02*
X0134067Y0114601D01*
X0134067Y0115600D02*
X0135367Y0115600D01*
X0135367Y0116598D02*
X0134067Y0116598D01*
X0134067Y0117597D02*
X0135367Y0117597D01*
X0135367Y0118595D02*
X0134067Y0118595D01*
X0134067Y0119594D02*
X0135367Y0119594D01*
X0135367Y0120592D02*
X0134067Y0120592D01*
X0134067Y0121591D02*
X0135367Y0121591D01*
X0135367Y0122589D02*
X0134067Y0122589D01*
X0134067Y0123588D02*
X0135367Y0123588D01*
X0135367Y0124586D02*
X0134067Y0124586D01*
X0134067Y0125585D02*
X0135367Y0125585D01*
X0135367Y0126583D02*
X0134067Y0126583D01*
X0134067Y0127582D02*
X0135367Y0127582D01*
X0135367Y0128580D02*
X0134067Y0128580D01*
X0134067Y0129579D02*
X0135367Y0129579D01*
X0135367Y0130577D02*
X0134067Y0130577D01*
X0134067Y0131576D02*
X0135367Y0131576D01*
X0135367Y0132574D02*
X0134067Y0132574D01*
X0134067Y0133573D02*
X0135367Y0133573D01*
X0135367Y0134571D02*
X0134067Y0134571D01*
X0134067Y0135570D02*
X0135367Y0135570D01*
X0135367Y0136568D02*
X0134067Y0136568D01*
X0134067Y0137567D02*
X0135367Y0137567D01*
X0135367Y0138565D02*
X0134067Y0138565D01*
X0134067Y0139564D02*
X0135367Y0139564D01*
X0135367Y0140563D02*
X0134067Y0140563D01*
X0134067Y0141561D02*
X0135367Y0141561D01*
X0135367Y0142560D02*
X0134067Y0142560D01*
X0134067Y0143558D02*
X0135367Y0143558D01*
X0135367Y0144557D02*
X0134067Y0144557D01*
X0134067Y0145555D02*
X0135367Y0145555D01*
X0135367Y0146554D02*
X0134067Y0146554D01*
X0134067Y0147552D02*
X0135367Y0147552D01*
X0135367Y0148551D02*
X0134067Y0148551D01*
X0134067Y0149549D02*
X0135367Y0149549D01*
X0135367Y0150548D02*
X0134067Y0150548D01*
X0134067Y0151546D02*
X0135367Y0151546D01*
X0135367Y0152545D02*
X0134067Y0152545D01*
X0134067Y0153543D02*
X0135367Y0153543D01*
X0135367Y0154542D02*
X0134067Y0154542D01*
X0134067Y0155540D02*
X0135367Y0155540D01*
X0135367Y0156539D02*
X0134067Y0156539D01*
X0134067Y0157537D02*
X0135367Y0157537D01*
X0135367Y0158536D02*
X0134067Y0158536D01*
X0134067Y0159534D02*
X0135367Y0159534D01*
X0135367Y0160533D02*
X0134067Y0160533D01*
X0134067Y0161531D02*
X0135367Y0161531D01*
X0135367Y0162530D02*
X0134067Y0162530D01*
X0134067Y0163528D02*
X0135367Y0163528D01*
X0135367Y0164527D02*
X0134067Y0164527D01*
X0134067Y0165525D02*
X0135367Y0165525D01*
X0135367Y0166524D02*
X0134067Y0166524D01*
X0134067Y0167522D02*
X0135367Y0167522D01*
X0135367Y0168521D02*
X0134067Y0168521D01*
X0134067Y0169519D02*
X0135367Y0169519D01*
X0135367Y0170518D02*
X0134067Y0170518D01*
X0134067Y0171516D02*
X0135367Y0171516D01*
X0135367Y0172515D02*
X0134067Y0172515D01*
X0134041Y0173513D02*
X0135367Y0173513D01*
X0135367Y0174512D02*
X0133628Y0174512D01*
X0132805Y0175510D02*
X0135072Y0175510D01*
X0134074Y0176509D02*
X0131806Y0176509D01*
X0130808Y0177507D02*
X0133075Y0177507D01*
X0132077Y0178506D02*
X0129809Y0178506D01*
X0128811Y0179504D02*
X0131078Y0179504D01*
X0130080Y0180503D02*
X0127812Y0180503D01*
X0129081Y0181501D02*
X0072867Y0181501D01*
X0072867Y0180503D02*
X0096175Y0180503D01*
X0094653Y0179504D02*
X0090111Y0179504D01*
X0091204Y0178506D02*
X0093654Y0178506D01*
X0093238Y0177507D02*
X0091835Y0177507D01*
X0092214Y0176509D02*
X0092824Y0176509D01*
X0092767Y0175510D02*
X0087667Y0175510D01*
X0087667Y0176509D02*
X0086667Y0176509D01*
X0086667Y0177507D02*
X0087667Y0177507D01*
X0087667Y0178506D02*
X0086667Y0178506D01*
X0086667Y0179504D02*
X0087667Y0179504D01*
X0086667Y0175510D02*
X0072867Y0175510D01*
X0072867Y0176509D02*
X0082119Y0176509D01*
X0082498Y0177507D02*
X0072867Y0177507D01*
X0072867Y0178506D02*
X0083130Y0178506D01*
X0084223Y0179504D02*
X0072867Y0179504D01*
X0073121Y0182500D02*
X0128083Y0182500D01*
X0124337Y0173513D02*
X0121057Y0173513D01*
X0122223Y0172515D02*
X0125335Y0172515D01*
X0126334Y0171516D02*
X0122742Y0171516D01*
X0125033Y0170518D02*
X0126667Y0170518D01*
X0117354Y0173513D02*
X0104139Y0173513D01*
X0104945Y0172515D02*
X0116188Y0172515D01*
X0115668Y0171516D02*
X0105943Y0171516D01*
X0106942Y0170518D02*
X0115432Y0170518D01*
X0115432Y0169519D02*
X0107724Y0169519D01*
X0107967Y0168521D02*
X0115815Y0168521D01*
X0116105Y0167522D02*
X0108434Y0167522D01*
X0108938Y0166524D02*
X0115818Y0166524D01*
X0115791Y0165525D02*
X0109167Y0165525D01*
X0109167Y0164527D02*
X0114832Y0164527D01*
X0114588Y0163528D02*
X0108781Y0163528D01*
X0108055Y0162530D02*
X0114610Y0162530D01*
X0114610Y0161531D02*
X0107728Y0161531D01*
X0108727Y0160533D02*
X0115081Y0160533D01*
X0115818Y0159534D02*
X0109725Y0159534D01*
X0112282Y0158536D02*
X0115846Y0158536D01*
X0116171Y0157537D02*
X0113419Y0157537D01*
X0113932Y0156539D02*
X0115661Y0156539D01*
X0115432Y0155540D02*
X0114167Y0155540D01*
X0114167Y0154542D02*
X0115432Y0154542D01*
X0115822Y0153543D02*
X0113787Y0153543D01*
X0107664Y0152545D02*
X0105467Y0152545D01*
X0105467Y0153543D02*
X0106946Y0153543D01*
X0106567Y0154542D02*
X0105467Y0154542D01*
X0105467Y0155540D02*
X0106365Y0155540D01*
X0102867Y0152716D02*
X0102867Y0142716D01*
X0100267Y0142616D02*
X0090479Y0132828D01*
X0086487Y0136820D01*
X0085531Y0137216D01*
X0084167Y0137216D01*
X0084167Y0138472D01*
X0083588Y0139868D01*
X0082519Y0140937D01*
X0081123Y0141516D01*
X0079611Y0141516D01*
X0078645Y0141116D01*
X0070387Y0141116D01*
X0070337Y0141166D01*
X0063817Y0141166D01*
X0063817Y0146564D01*
X0064868Y0147616D01*
X0065630Y0147616D01*
X0065755Y0147314D01*
X0066512Y0146557D01*
X0067501Y0146147D01*
X0071327Y0146147D01*
X0072316Y0146557D01*
X0072867Y0147108D01*
X0073417Y0146557D01*
X0074406Y0146147D01*
X0078233Y0146147D01*
X0078765Y0146368D01*
X0078985Y0146147D01*
X0085055Y0146147D01*
X0085835Y0146927D01*
X0085969Y0146850D01*
X0086350Y0146747D01*
X0088229Y0146747D01*
X0088229Y0149731D01*
X0089197Y0149731D01*
X0089197Y0146747D01*
X0091076Y0146747D01*
X0091457Y0146850D01*
X0091799Y0147047D01*
X0092079Y0147326D01*
X0092276Y0147668D01*
X0092378Y0148050D01*
X0092378Y0149732D01*
X0089197Y0149732D01*
X0089197Y0150700D01*
X0092378Y0150700D01*
X0092378Y0151777D01*
X0092978Y0152377D01*
X0092978Y0152616D01*
X0095093Y0152616D01*
X0095714Y0151994D01*
X0097111Y0151416D01*
X0098623Y0151416D01*
X0100019Y0151994D01*
X0100267Y0152242D01*
X0100267Y0142616D01*
X0100210Y0142560D02*
X0063817Y0142560D01*
X0063817Y0143558D02*
X0100267Y0143558D01*
X0100267Y0144557D02*
X0063817Y0144557D01*
X0063817Y0145555D02*
X0100267Y0145555D01*
X0100267Y0146554D02*
X0085462Y0146554D01*
X0088229Y0147552D02*
X0089197Y0147552D01*
X0089197Y0148551D02*
X0088229Y0148551D01*
X0088229Y0149549D02*
X0089197Y0149549D01*
X0088713Y0150216D02*
X0097867Y0150216D01*
X0098937Y0151546D02*
X0100267Y0151546D01*
X0100267Y0150548D02*
X0089197Y0150548D01*
X0092209Y0147552D02*
X0100267Y0147552D01*
X0100267Y0148551D02*
X0092378Y0148551D01*
X0092378Y0149549D02*
X0100267Y0149549D01*
X0102867Y0152716D02*
X0102867Y0160216D01*
X0097867Y0165216D01*
X0052867Y0165216D01*
X0047367Y0159716D01*
X0047367Y0143916D01*
X0045467Y0143916D02*
X0045467Y0160116D01*
X0045367Y0160216D01*
X0050367Y0157716D02*
X0051367Y0156716D01*
X0051367Y0143916D01*
X0051367Y0132716D01*
X0046351Y0132716D01*
X0044382Y0132716D02*
X0044382Y0121732D01*
X0045367Y0121732D01*
X0050367Y0121732D01*
X0049367Y0122700D02*
X0049369Y0122760D01*
X0049374Y0122821D01*
X0049383Y0122880D01*
X0049396Y0122939D01*
X0049412Y0122998D01*
X0049432Y0123055D01*
X0049455Y0123110D01*
X0049482Y0123165D01*
X0049511Y0123217D01*
X0049544Y0123268D01*
X0049580Y0123317D01*
X0049618Y0123363D01*
X0049660Y0123407D01*
X0049704Y0123449D01*
X0049750Y0123487D01*
X0049799Y0123523D01*
X0049850Y0123556D01*
X0049902Y0123585D01*
X0049957Y0123612D01*
X0050012Y0123635D01*
X0050069Y0123655D01*
X0050128Y0123671D01*
X0050187Y0123684D01*
X0050246Y0123693D01*
X0050307Y0123698D01*
X0050367Y0123700D01*
X0050367Y0122716D01*
X0049367Y0122700D02*
X0049367Y0111516D01*
X0049367Y0098716D01*
X0050367Y0097716D01*
X0055367Y0092716D01*
X0060367Y0092716D02*
X0060367Y0087716D01*
X0050367Y0087716D01*
X0047808Y0085157D01*
X0051053Y0082649D02*
X0051567Y0082649D01*
X0051695Y0081650D02*
X0050055Y0081650D01*
X0048666Y0080652D02*
X0052109Y0080652D01*
X0052845Y0079653D02*
X0047529Y0079653D01*
X0047059Y0078655D02*
X0052845Y0078655D01*
X0052755Y0077656D02*
X0046061Y0077656D01*
X0045062Y0076658D02*
X0052755Y0076658D01*
X0052755Y0075659D02*
X0043519Y0075659D01*
X0043872Y0074661D02*
X0050471Y0074661D01*
X0049481Y0073662D02*
X0044435Y0073662D01*
X0044435Y0072664D02*
X0049353Y0072664D01*
X0048818Y0071665D02*
X0044435Y0071665D01*
X0044435Y0070667D02*
X0048818Y0070667D01*
X0048818Y0069668D02*
X0044435Y0069668D01*
X0044435Y0068670D02*
X0048818Y0068670D01*
X0048818Y0067671D02*
X0044079Y0067671D01*
X0043835Y0066673D02*
X0048818Y0066673D01*
X0048325Y0065674D02*
X0043835Y0065674D01*
X0043835Y0063677D02*
X0046328Y0063677D01*
X0045367Y0062679D02*
X0043835Y0062679D01*
X0043748Y0061680D02*
X0045367Y0061680D01*
X0045367Y0060682D02*
X0029901Y0060682D01*
X0028902Y0061680D02*
X0036986Y0061680D01*
X0036898Y0062679D02*
X0027904Y0062679D01*
X0026905Y0063677D02*
X0036898Y0063677D01*
X0036898Y0065674D02*
X0024908Y0065674D01*
X0023910Y0066673D02*
X0036898Y0066673D01*
X0036654Y0067671D02*
X0022911Y0067671D01*
X0021913Y0068670D02*
X0036298Y0068670D01*
X0036298Y0069668D02*
X0020914Y0069668D01*
X0020367Y0070667D02*
X0036298Y0070667D01*
X0036298Y0071665D02*
X0020367Y0071665D01*
X0020367Y0072664D02*
X0036298Y0072664D01*
X0036298Y0073662D02*
X0020367Y0073662D01*
X0020367Y0074661D02*
X0036861Y0074661D01*
X0037767Y0075659D02*
X0019923Y0075659D01*
X0018925Y0076658D02*
X0037767Y0076658D01*
X0037767Y0077656D02*
X0017926Y0077656D01*
X0017867Y0078655D02*
X0037941Y0078655D01*
X0038321Y0079653D02*
X0017867Y0079653D01*
X0017431Y0080652D02*
X0038286Y0080652D01*
X0038634Y0081650D02*
X0029206Y0081650D01*
X0030016Y0082649D02*
X0039546Y0082649D01*
X0040544Y0083647D02*
X0031203Y0083647D01*
X0030387Y0083647D02*
X0029018Y0083647D01*
X0029389Y0084646D02*
X0028019Y0084646D01*
X0027982Y0084646D02*
X0026612Y0084646D01*
X0026983Y0083647D02*
X0025613Y0083647D01*
X0026393Y0087641D02*
X0010441Y0087641D01*
X0009443Y0088640D02*
X0026386Y0088640D01*
X0027505Y0089638D02*
X0008444Y0089638D01*
X0007867Y0090637D02*
X0027710Y0090637D01*
X0028533Y0091635D02*
X0007867Y0091635D01*
X0007867Y0092634D02*
X0029531Y0092634D01*
X0030530Y0093632D02*
X0007867Y0093632D01*
X0007867Y0094631D02*
X0031528Y0094631D01*
X0032118Y0095629D02*
X0007867Y0095629D01*
X0009882Y0096628D02*
X0010851Y0096628D01*
X0010851Y0097627D02*
X0009882Y0097627D01*
X0009882Y0098625D02*
X0010851Y0098625D01*
X0005766Y0088640D02*
X0005367Y0088640D01*
X0005367Y0087641D02*
X0006764Y0087641D01*
X0007763Y0086643D02*
X0005367Y0086643D01*
X0005367Y0085644D02*
X0008761Y0085644D01*
X0009760Y0084646D02*
X0005367Y0084646D01*
X0005367Y0083647D02*
X0010758Y0083647D01*
X0011757Y0082649D02*
X0005367Y0082649D01*
X0005367Y0081650D02*
X0012755Y0081650D01*
X0013754Y0080652D02*
X0005367Y0080652D01*
X0005367Y0079653D02*
X0014752Y0079653D01*
X0015267Y0078655D02*
X0005367Y0078655D01*
X0005367Y0077656D02*
X0015267Y0077656D01*
X0015491Y0076658D02*
X0005367Y0076658D01*
X0005367Y0075659D02*
X0016246Y0075659D01*
X0017245Y0074661D02*
X0005367Y0074661D01*
X0005367Y0073662D02*
X0017767Y0073662D01*
X0017767Y0072664D02*
X0005367Y0072664D01*
X0005367Y0071665D02*
X0017767Y0071665D01*
X0017767Y0070667D02*
X0005367Y0070667D01*
X0005367Y0069668D02*
X0017779Y0069668D01*
X0018236Y0068670D02*
X0005367Y0068670D01*
X0005367Y0067671D02*
X0019234Y0067671D01*
X0020233Y0066673D02*
X0005367Y0066673D01*
X0005367Y0065674D02*
X0021231Y0065674D01*
X0022230Y0064676D02*
X0005367Y0064676D01*
X0005367Y0063677D02*
X0023228Y0063677D01*
X0024227Y0062679D02*
X0005367Y0062679D01*
X0005367Y0061680D02*
X0025225Y0061680D01*
X0026224Y0060682D02*
X0005367Y0060682D01*
X0005367Y0059683D02*
X0027222Y0059683D01*
X0028221Y0058685D02*
X0005367Y0058685D01*
X0005367Y0057686D02*
X0029680Y0057686D01*
X0025907Y0064676D02*
X0039882Y0064676D01*
X0040851Y0064676D02*
X0047326Y0064676D01*
X0048008Y0061680D02*
X0048818Y0061680D01*
X0049470Y0060682D02*
X0047967Y0060682D01*
X0047960Y0059683D02*
X0050267Y0059683D01*
X0050158Y0058685D02*
X0047512Y0058685D01*
X0047036Y0057686D02*
X0046053Y0057686D01*
X0045661Y0056688D02*
X0005367Y0056688D01*
X0005367Y0055689D02*
X0044663Y0055689D01*
X0043664Y0054691D02*
X0005367Y0054691D01*
X0005367Y0053692D02*
X0042666Y0053692D01*
X0041667Y0052694D02*
X0005367Y0052694D01*
X0005367Y0051695D02*
X0040669Y0051695D01*
X0040267Y0050696D02*
X0005367Y0050696D01*
X0005367Y0049698D02*
X0040267Y0049698D01*
X0040267Y0048699D02*
X0005367Y0048699D01*
X0005367Y0047701D02*
X0040267Y0047701D01*
X0040267Y0046702D02*
X0005367Y0046702D01*
X0005367Y0045704D02*
X0040267Y0045704D01*
X0040267Y0044705D02*
X0005367Y0044705D01*
X0005367Y0043707D02*
X0040267Y0043707D01*
X0040267Y0042708D02*
X0005367Y0042708D01*
X0005367Y0041710D02*
X0040267Y0041710D01*
X0040267Y0040711D02*
X0013735Y0040711D01*
X0013483Y0040816D02*
X0012250Y0040816D01*
X0011111Y0040344D01*
X0010239Y0039472D01*
X0009767Y0038332D01*
X0009767Y0037099D01*
X0010239Y0035960D01*
X0011111Y0035088D01*
X0012250Y0034616D01*
X0013483Y0034616D01*
X0014623Y0035088D01*
X0015495Y0035960D01*
X0015967Y0037099D01*
X0015967Y0038332D01*
X0015495Y0039472D01*
X0014623Y0040344D01*
X0013483Y0040816D01*
X0011998Y0040711D02*
X0005367Y0040711D01*
X0005367Y0039713D02*
X0010480Y0039713D01*
X0009925Y0038714D02*
X0005367Y0038714D01*
X0006144Y0037716D02*
X0009767Y0037716D01*
X0009925Y0036717D02*
X0007143Y0036717D01*
X0008141Y0035719D02*
X0010480Y0035719D01*
X0009140Y0034720D02*
X0011998Y0034720D01*
X0013735Y0034720D02*
X0042185Y0034720D01*
X0043184Y0033722D02*
X0010138Y0033722D01*
X0011137Y0032723D02*
X0044590Y0032723D01*
X0045367Y0035216D02*
X0042867Y0037716D01*
X0085367Y0037716D01*
X0086298Y0038647D02*
X0082867Y0035216D01*
X0045367Y0035216D01*
X0044864Y0035719D02*
X0083370Y0035719D01*
X0084368Y0036717D02*
X0043865Y0036717D01*
X0042867Y0037716D02*
X0042867Y0050216D01*
X0047867Y0055216D01*
X0050367Y0055216D01*
X0052755Y0057604D01*
X0052755Y0057397D01*
X0053985Y0056167D01*
X0056782Y0056167D01*
X0056782Y0052809D01*
X0055758Y0051784D01*
X0050678Y0051784D01*
X0049898Y0051005D01*
X0049765Y0051082D01*
X0049383Y0051184D01*
X0047504Y0051184D01*
X0047504Y0048200D01*
X0046536Y0048200D01*
X0046536Y0047232D01*
X0043355Y0047232D01*
X0043355Y0045550D01*
X0043444Y0045216D01*
X0043355Y0044882D01*
X0043355Y0043200D01*
X0046536Y0043200D01*
X0046536Y0042232D01*
X0043355Y0042232D01*
X0043355Y0040550D01*
X0043457Y0040168D01*
X0043655Y0039826D01*
X0043934Y0039547D01*
X0044276Y0039350D01*
X0044657Y0039247D01*
X0046536Y0039247D01*
X0046536Y0042231D01*
X0047504Y0042231D01*
X0047504Y0039247D01*
X0049383Y0039247D01*
X0049765Y0039350D01*
X0049898Y0039427D01*
X0050678Y0038647D01*
X0056748Y0038647D01*
X0057978Y0039877D01*
X0057978Y0041651D01*
X0059975Y0043647D01*
X0065055Y0043647D01*
X0065367Y0043959D01*
X0065678Y0043647D01*
X0071748Y0043647D01*
X0072978Y0044877D01*
X0072978Y0049954D01*
X0073588Y0050563D01*
X0074167Y0051960D01*
X0074167Y0053472D01*
X0073588Y0054868D01*
X0072519Y0055937D01*
X0071123Y0056516D01*
X0070244Y0056516D01*
X0067978Y0058781D01*
X0067978Y0060704D01*
X0068241Y0060704D01*
X0070013Y0060704D01*
X0070394Y0060806D01*
X0070736Y0061004D01*
X0071016Y0061283D01*
X0071213Y0061625D01*
X0071315Y0062007D01*
X0071315Y0062703D01*
X0071915Y0063303D01*
X0071915Y0070588D01*
X0072571Y0071243D01*
X0075244Y0073916D01*
X0076123Y0073916D01*
X0077519Y0074494D01*
X0078588Y0075563D01*
X0078663Y0075743D01*
X0081113Y0073292D01*
X0081113Y0051784D01*
X0080678Y0051784D01*
X0079898Y0051005D01*
X0079765Y0051082D01*
X0079383Y0051184D01*
X0077504Y0051184D01*
X0077504Y0048200D01*
X0076536Y0048200D01*
X0076536Y0047232D01*
X0073355Y0047232D01*
X0073355Y0045550D01*
X0073444Y0045216D01*
X0073355Y0044882D01*
X0073355Y0043200D01*
X0076536Y0043200D01*
X0076536Y0042232D01*
X0073355Y0042232D01*
X0073355Y0040550D01*
X0073457Y0040168D01*
X0073655Y0039826D01*
X0073934Y0039547D01*
X0074276Y0039350D01*
X0074657Y0039247D01*
X0076536Y0039247D01*
X0076536Y0042231D01*
X0077504Y0042231D01*
X0077504Y0039247D01*
X0079383Y0039247D01*
X0079765Y0039350D01*
X0079898Y0039427D01*
X0080678Y0038647D01*
X0086298Y0038647D01*
X0085367Y0042716D02*
X0083713Y0042716D01*
X0085367Y0042716D02*
X0090367Y0047716D01*
X0090367Y0062716D01*
X0090367Y0072716D01*
X0075367Y0087716D01*
X0065367Y0087716D01*
X0065367Y0092716D01*
X0055267Y0102816D01*
X0055267Y0111516D01*
X0053367Y0111516D02*
X0053367Y0099716D01*
X0060367Y0092716D01*
X0060367Y0087716D02*
X0060367Y0082716D01*
X0070367Y0082716D01*
X0070367Y0077716D01*
X0075367Y0077716D02*
X0070367Y0072716D01*
X0068319Y0072716D01*
X0068241Y0072637D01*
X0068162Y0072716D01*
X0065367Y0072716D01*
X0063319Y0070669D01*
X0063319Y0059842D01*
X0065288Y0059842D02*
X0065288Y0057795D01*
X0070367Y0052716D01*
X0072767Y0055689D02*
X0081113Y0055689D01*
X0081113Y0054691D02*
X0073662Y0054691D01*
X0074075Y0053692D02*
X0081113Y0053692D01*
X0081113Y0052694D02*
X0074167Y0052694D01*
X0074057Y0051695D02*
X0080589Y0051695D01*
X0077504Y0050696D02*
X0076536Y0050696D01*
X0076536Y0051184D02*
X0074657Y0051184D01*
X0074276Y0051082D01*
X0073934Y0050885D01*
X0073655Y0050605D01*
X0073457Y0050263D01*
X0073355Y0049882D01*
X0073355Y0048200D01*
X0076536Y0048200D01*
X0076536Y0051184D01*
X0076536Y0049698D02*
X0077504Y0049698D01*
X0077504Y0048699D02*
X0076536Y0048699D01*
X0076536Y0047701D02*
X0072978Y0047701D01*
X0072978Y0048699D02*
X0073355Y0048699D01*
X0073355Y0049698D02*
X0072978Y0049698D01*
X0073643Y0050696D02*
X0073746Y0050696D01*
X0073355Y0046702D02*
X0072978Y0046702D01*
X0072978Y0045704D02*
X0073355Y0045704D01*
X0073355Y0044705D02*
X0072806Y0044705D01*
X0073355Y0043707D02*
X0071808Y0043707D01*
X0073355Y0041710D02*
X0058038Y0041710D01*
X0057978Y0040711D02*
X0073355Y0040711D01*
X0073768Y0039713D02*
X0057814Y0039713D01*
X0056815Y0038714D02*
X0080611Y0038714D01*
X0077504Y0039713D02*
X0076536Y0039713D01*
X0076536Y0040711D02*
X0077504Y0040711D01*
X0077504Y0041710D02*
X0076536Y0041710D01*
X0076536Y0042708D02*
X0059036Y0042708D01*
X0055367Y0042716D02*
X0060367Y0047716D01*
X0062020Y0047716D01*
X0065115Y0043707D02*
X0065618Y0043707D01*
X0068713Y0047716D02*
X0061351Y0055078D01*
X0061351Y0059842D01*
X0059382Y0059842D02*
X0059382Y0065019D01*
X0062747Y0070055D01*
X0062867Y0070216D01*
X0063319Y0070669D01*
X0063319Y0075590D01*
X0060719Y0071915D02*
X0060719Y0071746D01*
X0060662Y0071689D01*
X0060587Y0071507D01*
X0060351Y0071188D01*
X0060335Y0071124D01*
X0057363Y0066676D01*
X0057178Y0066492D01*
X0057078Y0066251D01*
X0056933Y0066033D01*
X0056882Y0065777D01*
X0056782Y0065536D01*
X0056782Y0065275D01*
X0056731Y0065019D01*
X0056782Y0064763D01*
X0056782Y0063517D01*
X0056167Y0063517D01*
X0056167Y0071915D01*
X0058874Y0071915D01*
X0059382Y0072423D01*
X0059891Y0071915D01*
X0060719Y0071915D01*
X0060653Y0071665D02*
X0056167Y0071665D01*
X0056167Y0070667D02*
X0060029Y0070667D01*
X0059362Y0069668D02*
X0056167Y0069668D01*
X0056167Y0068670D02*
X0058695Y0068670D01*
X0058028Y0067671D02*
X0056167Y0067671D01*
X0056167Y0066673D02*
X0057359Y0066673D01*
X0056840Y0065674D02*
X0056167Y0065674D01*
X0056167Y0064676D02*
X0056782Y0064676D01*
X0056782Y0063677D02*
X0056167Y0063677D01*
X0057414Y0059842D02*
X0057414Y0054763D01*
X0055367Y0052716D01*
X0052020Y0052716D01*
X0047020Y0047716D01*
X0047020Y0042716D01*
X0045367Y0042716D01*
X0050367Y0037716D01*
X0072020Y0037716D01*
X0077020Y0042716D01*
X0077020Y0047716D01*
X0077020Y0061062D01*
X0075288Y0062795D01*
X0068241Y0062795D01*
X0068241Y0062073D02*
X0068241Y0060704D01*
X0068241Y0062073D01*
X0068241Y0062073D01*
X0068241Y0061680D02*
X0068241Y0061680D01*
X0067978Y0060682D02*
X0081113Y0060682D01*
X0081113Y0061680D02*
X0071228Y0061680D01*
X0071315Y0062679D02*
X0081113Y0062679D01*
X0081113Y0063677D02*
X0071915Y0063677D01*
X0071915Y0064676D02*
X0081113Y0064676D01*
X0081113Y0065674D02*
X0071915Y0065674D01*
X0071915Y0066673D02*
X0081113Y0066673D01*
X0081113Y0067671D02*
X0071915Y0067671D01*
X0071915Y0068670D02*
X0081113Y0068670D01*
X0081113Y0069668D02*
X0071915Y0069668D01*
X0071994Y0070667D02*
X0081113Y0070667D01*
X0081113Y0071665D02*
X0072993Y0071665D01*
X0073991Y0072664D02*
X0081113Y0072664D01*
X0080743Y0073662D02*
X0074990Y0073662D01*
X0077686Y0074661D02*
X0079745Y0074661D01*
X0078746Y0075659D02*
X0078628Y0075659D01*
X0083713Y0074369D02*
X0075367Y0082716D01*
X0070367Y0082716D01*
X0078127Y0093632D02*
X0080267Y0093632D01*
X0080267Y0092634D02*
X0079125Y0092634D01*
X0080124Y0091635D02*
X0080267Y0091635D01*
X0080267Y0091493D02*
X0077967Y0093793D01*
X0077967Y0096416D01*
X0078623Y0096416D01*
X0080019Y0096994D01*
X0080267Y0097242D01*
X0080267Y0091493D01*
X0082867Y0092716D02*
X0082867Y0090216D01*
X0090367Y0082716D01*
X0100367Y0072716D01*
X0100367Y0057716D01*
X0107867Y0050216D01*
X0107867Y0047716D01*
X0112060Y0043707D02*
X0114522Y0043707D01*
X0115520Y0042708D02*
X0111062Y0042708D01*
X0113059Y0044705D02*
X0113523Y0044705D01*
X0117367Y0044705D02*
X0118367Y0044705D01*
X0118367Y0043707D02*
X0117367Y0043707D01*
X0117367Y0042708D02*
X0118367Y0042708D01*
X0118367Y0045704D02*
X0117367Y0045704D01*
X0117367Y0046702D02*
X0118367Y0046702D01*
X0118367Y0047701D02*
X0126667Y0047701D01*
X0127874Y0032723D02*
X0083643Y0032723D01*
X0077504Y0043200D02*
X0076536Y0043200D01*
X0076536Y0046184D01*
X0076536Y0047231D01*
X0077504Y0047231D01*
X0077504Y0043200D01*
X0077504Y0043707D02*
X0076536Y0043707D01*
X0076536Y0044705D02*
X0077504Y0044705D01*
X0077504Y0045704D02*
X0076536Y0045704D01*
X0076536Y0046702D02*
X0077504Y0046702D01*
X0083713Y0047716D02*
X0083713Y0074369D01*
X0081113Y0059683D02*
X0067978Y0059683D01*
X0068075Y0058685D02*
X0081113Y0058685D01*
X0081113Y0057686D02*
X0069073Y0057686D01*
X0070072Y0056688D02*
X0081113Y0056688D01*
X0095035Y0043707D02*
X0103673Y0043707D01*
X0102675Y0044705D02*
X0096033Y0044705D01*
X0097032Y0045704D02*
X0102067Y0045704D01*
X0102067Y0046702D02*
X0097761Y0046702D01*
X0097967Y0047701D02*
X0102067Y0047701D01*
X0102067Y0048699D02*
X0097967Y0048699D01*
X0097967Y0049698D02*
X0102067Y0049698D01*
X0102645Y0050696D02*
X0097967Y0050696D01*
X0097967Y0051695D02*
X0102711Y0051695D01*
X0101712Y0052694D02*
X0097967Y0052694D01*
X0097967Y0053692D02*
X0100714Y0053692D01*
X0099715Y0054691D02*
X0097967Y0054691D01*
X0097967Y0055689D02*
X0098716Y0055689D01*
X0097978Y0056688D02*
X0097967Y0056688D01*
X0102867Y0062716D02*
X0102867Y0075216D01*
X0085367Y0092716D01*
X0085367Y0102716D01*
X0082867Y0105216D01*
X0082867Y0117716D01*
X0079767Y0120816D01*
X0066567Y0120816D01*
X0066567Y0122816D02*
X0080267Y0122816D01*
X0085367Y0117716D01*
X0085367Y0107716D01*
X0087867Y0105216D01*
X0087867Y0095216D01*
X0095367Y0087716D01*
X0107867Y0087716D01*
X0117867Y0077716D01*
X0117867Y0067716D01*
X0121121Y0072664D02*
X0122767Y0072664D01*
X0122767Y0073662D02*
X0120467Y0073662D01*
X0120467Y0073318D02*
X0120467Y0078233D01*
X0120071Y0079189D01*
X0110071Y0089189D01*
X0109339Y0089920D01*
X0108384Y0090316D01*
X0106291Y0090316D01*
X0107191Y0091216D01*
X0107191Y0092832D01*
X0110254Y0092832D01*
X0111210Y0093228D01*
X0111629Y0093647D01*
X0115055Y0093647D01*
X0115835Y0094427D01*
X0115969Y0094350D01*
X0116350Y0094247D01*
X0118229Y0094247D01*
X0118229Y0097231D01*
X0119197Y0097231D01*
X0119197Y0094247D01*
X0121076Y0094247D01*
X0121457Y0094350D01*
X0121799Y0094547D01*
X0122079Y0094826D01*
X0122276Y0095168D01*
X0122378Y0095550D01*
X0122378Y0097232D01*
X0119197Y0097232D01*
X0119197Y0098200D01*
X0118229Y0098200D01*
X0118229Y0101184D01*
X0116350Y0101184D01*
X0115969Y0101082D01*
X0115835Y0101005D01*
X0115055Y0101784D01*
X0108985Y0101784D01*
X0107755Y0100554D01*
X0107755Y0098032D01*
X0107191Y0098032D01*
X0107191Y0099649D01*
X0105961Y0100879D01*
X0094772Y0100879D01*
X0093542Y0099649D01*
X0093542Y0098217D01*
X0092967Y0098793D01*
X0092967Y0107399D01*
X0093542Y0107399D01*
X0093542Y0105783D01*
X0094772Y0104553D01*
X0105961Y0104553D01*
X0107191Y0105783D01*
X0107191Y0107399D01*
X0107755Y0107399D01*
X0107755Y0104877D01*
X0108985Y0103647D01*
X0115055Y0103647D01*
X0115835Y0104427D01*
X0115969Y0104350D01*
X0116350Y0104247D01*
X0118229Y0104247D01*
X0118229Y0107231D01*
X0119197Y0107231D01*
X0119197Y0104247D01*
X0121076Y0104247D01*
X0121457Y0104350D01*
X0121799Y0104547D01*
X0122079Y0104826D01*
X0122276Y0105168D01*
X0122378Y0105550D01*
X0122378Y0107232D01*
X0119197Y0107232D01*
X0119197Y0108200D01*
X0118229Y0108200D01*
X0118229Y0111184D01*
X0116350Y0111184D01*
X0115969Y0111082D01*
X0115835Y0111005D01*
X0115055Y0111784D01*
X0111629Y0111784D01*
X0111210Y0112203D01*
X0110254Y0112599D01*
X0107191Y0112599D01*
X0107191Y0114216D01*
X0105961Y0115446D01*
X0098066Y0115446D01*
X0098467Y0115846D01*
X0098467Y0118647D01*
X0100733Y0118647D01*
X0101721Y0119057D01*
X0102478Y0119814D01*
X0102603Y0120116D01*
X0102755Y0120116D01*
X0102755Y0119877D01*
X0103985Y0118647D01*
X0110055Y0118647D01*
X0110367Y0118959D01*
X0110678Y0118647D01*
X0111198Y0118647D01*
X0111509Y0117897D01*
X0111567Y0117839D01*
X0111567Y0116960D01*
X0112145Y0115563D01*
X0113214Y0114494D01*
X0114611Y0113916D01*
X0116123Y0113916D01*
X0117519Y0114494D01*
X0118588Y0115563D01*
X0119167Y0116960D01*
X0119167Y0118472D01*
X0118588Y0119868D01*
X0117978Y0120478D01*
X0117978Y0130554D01*
X0116748Y0131784D01*
X0110678Y0131784D01*
X0110367Y0131473D01*
X0110055Y0131784D01*
X0103985Y0131784D01*
X0102755Y0130554D01*
X0102755Y0130316D01*
X0102603Y0130316D01*
X0102478Y0130618D01*
X0101721Y0131375D01*
X0100733Y0131784D01*
X0098467Y0131784D01*
X0098467Y0134586D01*
X0097237Y0135816D01*
X0097144Y0135816D01*
X0101709Y0140381D01*
X0102349Y0140116D01*
X0109290Y0140116D01*
X0122767Y0126639D01*
X0122767Y0071018D01*
X0120467Y0073318D01*
X0120467Y0074661D02*
X0122767Y0074661D01*
X0122767Y0075659D02*
X0120467Y0075659D01*
X0120467Y0076658D02*
X0122767Y0076658D01*
X0122767Y0077656D02*
X0120467Y0077656D01*
X0120292Y0078655D02*
X0122767Y0078655D01*
X0122767Y0079653D02*
X0119606Y0079653D01*
X0118608Y0080652D02*
X0122767Y0080652D01*
X0122767Y0081650D02*
X0117609Y0081650D01*
X0116611Y0082649D02*
X0122767Y0082649D01*
X0122767Y0083647D02*
X0115612Y0083647D01*
X0114614Y0084646D02*
X0122767Y0084646D01*
X0122767Y0085644D02*
X0113615Y0085644D01*
X0112617Y0086643D02*
X0122767Y0086643D01*
X0122767Y0087641D02*
X0111618Y0087641D01*
X0110620Y0088640D02*
X0122767Y0088640D01*
X0122767Y0089638D02*
X0109621Y0089638D01*
X0107191Y0091635D02*
X0122767Y0091635D01*
X0122767Y0090637D02*
X0106612Y0090637D01*
X0107191Y0092634D02*
X0122767Y0092634D01*
X0122767Y0093632D02*
X0111614Y0093632D01*
X0109737Y0095432D02*
X0100367Y0095432D01*
X0092650Y0095432D01*
X0090367Y0097716D01*
X0090367Y0102716D01*
X0090367Y0107716D01*
X0087867Y0110216D01*
X0087867Y0117716D01*
X0078867Y0126716D01*
X0066567Y0126716D01*
X0066567Y0128716D02*
X0079367Y0128716D01*
X0090367Y0117716D01*
X0090367Y0112716D01*
X0093083Y0109999D01*
X0100367Y0109999D01*
X0109737Y0109999D01*
X0112020Y0107716D01*
X0107755Y0106613D02*
X0107191Y0106613D01*
X0107023Y0105615D02*
X0107755Y0105615D01*
X0108016Y0104616D02*
X0106024Y0104616D01*
X0106218Y0100622D02*
X0107823Y0100622D01*
X0107755Y0099624D02*
X0107191Y0099624D01*
X0107191Y0098625D02*
X0107755Y0098625D01*
X0108821Y0101621D02*
X0092967Y0101621D01*
X0092967Y0102619D02*
X0122767Y0102619D01*
X0122767Y0101621D02*
X0115219Y0101621D01*
X0118229Y0100622D02*
X0119197Y0100622D01*
X0119197Y0101184D02*
X0119197Y0098200D01*
X0122378Y0098200D01*
X0122378Y0099882D01*
X0122276Y0100263D01*
X0122079Y0100605D01*
X0121799Y0100885D01*
X0121457Y0101082D01*
X0121076Y0101184D01*
X0119197Y0101184D01*
X0119197Y0099624D02*
X0118229Y0099624D01*
X0118229Y0098625D02*
X0119197Y0098625D01*
X0119197Y0097627D02*
X0122767Y0097627D01*
X0122767Y0098625D02*
X0122378Y0098625D01*
X0122378Y0099624D02*
X0122767Y0099624D01*
X0122767Y0100622D02*
X0122062Y0100622D01*
X0122767Y0103618D02*
X0092967Y0103618D01*
X0092967Y0104616D02*
X0094709Y0104616D01*
X0093711Y0105615D02*
X0092967Y0105615D01*
X0092967Y0106613D02*
X0093542Y0106613D01*
X0092967Y0100622D02*
X0094516Y0100622D01*
X0093542Y0099624D02*
X0092967Y0099624D01*
X0093134Y0098625D02*
X0093542Y0098625D01*
X0082867Y0100216D02*
X0082867Y0092716D01*
X0080267Y0094631D02*
X0077967Y0094631D01*
X0077967Y0095629D02*
X0080267Y0095629D01*
X0080267Y0096628D02*
X0079135Y0096628D01*
X0077867Y0100216D02*
X0077867Y0116116D01*
X0077067Y0116916D01*
X0066567Y0116916D01*
X0066567Y0118816D02*
X0077997Y0118816D01*
X0078130Y0118727D01*
X0078537Y0118381D01*
X0078927Y0118022D01*
X0079910Y0117041D01*
X0080367Y0116505D01*
X0080367Y0102716D01*
X0082867Y0100216D01*
X0093542Y0113217D02*
X0092967Y0113793D01*
X0092967Y0115146D01*
X0093497Y0114616D01*
X0093942Y0114616D01*
X0093542Y0114216D01*
X0093542Y0113217D01*
X0093542Y0113603D02*
X0093157Y0113603D01*
X0092967Y0114601D02*
X0093928Y0114601D01*
X0095367Y0117716D02*
X0091914Y0121169D01*
X0091914Y0122716D01*
X0082014Y0132616D01*
X0066567Y0132616D01*
X0066567Y0134616D02*
X0085014Y0134616D01*
X0091914Y0127716D01*
X0091914Y0129263D01*
X0095367Y0132716D01*
X0097482Y0135570D02*
X0113836Y0135570D01*
X0114834Y0134571D02*
X0098467Y0134571D01*
X0098467Y0133573D02*
X0115833Y0133573D01*
X0116831Y0132574D02*
X0098467Y0132574D01*
X0101236Y0131576D02*
X0103777Y0131576D01*
X0102778Y0130577D02*
X0102495Y0130577D01*
X0098819Y0127716D02*
X0107020Y0127716D01*
X0107020Y0122716D02*
X0098819Y0122716D01*
X0098467Y0118595D02*
X0111220Y0118595D01*
X0111567Y0117597D02*
X0098467Y0117597D01*
X0098467Y0116598D02*
X0111716Y0116598D01*
X0112130Y0115600D02*
X0098220Y0115600D01*
X0102258Y0119594D02*
X0103039Y0119594D01*
X0106805Y0114601D02*
X0113107Y0114601D01*
X0115234Y0111606D02*
X0122767Y0111606D01*
X0122767Y0112604D02*
X0107191Y0112604D01*
X0107191Y0113603D02*
X0122767Y0113603D01*
X0122767Y0114601D02*
X0117626Y0114601D01*
X0118603Y0115600D02*
X0122767Y0115600D01*
X0122767Y0116598D02*
X0119017Y0116598D01*
X0119167Y0117597D02*
X0122767Y0117597D01*
X0122767Y0118595D02*
X0119115Y0118595D01*
X0118702Y0119594D02*
X0122767Y0119594D01*
X0122767Y0120592D02*
X0117978Y0120592D01*
X0117978Y0121591D02*
X0122767Y0121591D01*
X0122767Y0122589D02*
X0117978Y0122589D01*
X0117978Y0123588D02*
X0122767Y0123588D01*
X0122767Y0124586D02*
X0117978Y0124586D01*
X0117978Y0125585D02*
X0122767Y0125585D01*
X0122767Y0126583D02*
X0117978Y0126583D01*
X0117978Y0127582D02*
X0121824Y0127582D01*
X0120825Y0128580D02*
X0117978Y0128580D01*
X0117978Y0129579D02*
X0119827Y0129579D01*
X0118828Y0130577D02*
X0117955Y0130577D01*
X0117830Y0131576D02*
X0116957Y0131576D01*
X0121189Y0135570D02*
X0126667Y0135570D01*
X0126667Y0136568D02*
X0120191Y0136568D01*
X0119192Y0137567D02*
X0126667Y0137567D01*
X0126667Y0138565D02*
X0118194Y0138565D01*
X0117195Y0139564D02*
X0126667Y0139564D01*
X0126667Y0140563D02*
X0116197Y0140563D01*
X0115198Y0141561D02*
X0126667Y0141561D01*
X0126667Y0142560D02*
X0114200Y0142560D01*
X0113201Y0143558D02*
X0126667Y0143558D01*
X0126667Y0144557D02*
X0112203Y0144557D01*
X0109842Y0139564D02*
X0100892Y0139564D01*
X0099893Y0138565D02*
X0110840Y0138565D01*
X0111839Y0137567D02*
X0098895Y0137567D01*
X0097896Y0136568D02*
X0112837Y0136568D01*
X0110469Y0131576D02*
X0110264Y0131576D01*
X0113713Y0127716D02*
X0113713Y0122716D01*
X0113713Y0119369D01*
X0115367Y0117716D01*
X0119197Y0111184D02*
X0119197Y0108200D01*
X0122378Y0108200D01*
X0122378Y0109882D01*
X0122276Y0110263D01*
X0122079Y0110605D01*
X0121799Y0110885D01*
X0121457Y0111082D01*
X0121076Y0111184D01*
X0119197Y0111184D01*
X0119197Y0110607D02*
X0118229Y0110607D01*
X0118229Y0109609D02*
X0119197Y0109609D01*
X0119197Y0108610D02*
X0118229Y0108610D01*
X0118713Y0107716D02*
X0118713Y0097716D01*
X0118229Y0096628D02*
X0119197Y0096628D01*
X0119197Y0095629D02*
X0118229Y0095629D01*
X0118229Y0094631D02*
X0119197Y0094631D01*
X0121883Y0094631D02*
X0122767Y0094631D01*
X0122767Y0095629D02*
X0122378Y0095629D01*
X0122378Y0096628D02*
X0122767Y0096628D01*
X0122767Y0104616D02*
X0121869Y0104616D01*
X0122378Y0105615D02*
X0122767Y0105615D01*
X0122767Y0106613D02*
X0122378Y0106613D01*
X0122767Y0107612D02*
X0119197Y0107612D01*
X0119197Y0106613D02*
X0118229Y0106613D01*
X0118229Y0105615D02*
X0119197Y0105615D01*
X0119197Y0104616D02*
X0118229Y0104616D01*
X0122378Y0108610D02*
X0122767Y0108610D01*
X0122767Y0109609D02*
X0122378Y0109609D01*
X0122077Y0110607D02*
X0122767Y0110607D01*
X0112020Y0097716D02*
X0109737Y0095432D01*
X0106790Y0085116D02*
X0115267Y0076639D01*
X0115267Y0073318D01*
X0112867Y0070918D01*
X0110269Y0073516D01*
X0105467Y0073516D01*
X0105467Y0075733D01*
X0105071Y0076689D01*
X0096644Y0085116D01*
X0106790Y0085116D01*
X0107260Y0084646D02*
X0097114Y0084646D01*
X0098112Y0083647D02*
X0108258Y0083647D01*
X0109257Y0082649D02*
X0099111Y0082649D01*
X0100109Y0081650D02*
X0110255Y0081650D01*
X0111254Y0080652D02*
X0101108Y0080652D01*
X0102106Y0079653D02*
X0112252Y0079653D01*
X0113251Y0078655D02*
X0103105Y0078655D01*
X0104103Y0077656D02*
X0114249Y0077656D01*
X0115248Y0076658D02*
X0105084Y0076658D01*
X0105467Y0075659D02*
X0115267Y0075659D01*
X0115267Y0074661D02*
X0105467Y0074661D01*
X0105467Y0073662D02*
X0115267Y0073662D01*
X0114612Y0072664D02*
X0111121Y0072664D01*
X0112120Y0071665D02*
X0113614Y0071665D01*
X0112867Y0064513D02*
X0114664Y0062716D01*
X0112867Y0060918D01*
X0111069Y0062716D01*
X0112867Y0064513D01*
X0112030Y0063677D02*
X0113703Y0063677D01*
X0114627Y0062679D02*
X0111106Y0062679D01*
X0112105Y0061680D02*
X0113629Y0061680D01*
X0107867Y0057716D02*
X0102867Y0062716D01*
X0112045Y0053692D02*
X0113688Y0053692D01*
X0112867Y0054513D02*
X0115088Y0052292D01*
X0113291Y0050494D01*
X0111069Y0052716D01*
X0112867Y0054513D01*
X0111091Y0052694D02*
X0114687Y0052694D01*
X0114492Y0051695D02*
X0112090Y0051695D01*
X0113088Y0050696D02*
X0113493Y0050696D01*
X0104672Y0042708D02*
X0094036Y0042708D01*
X0122120Y0071665D02*
X0122767Y0071665D01*
X0126876Y0031725D02*
X0012135Y0031725D01*
X0013134Y0030726D02*
X0125877Y0030726D01*
X0070367Y0097716D02*
X0061167Y0106916D01*
X0061167Y0111516D01*
X0051367Y0117008D02*
X0052574Y0119923D01*
X0055367Y0122716D01*
X0051367Y0117008D02*
X0051367Y0111516D01*
X0047367Y0111516D02*
X0047367Y0095716D01*
X0050367Y0092716D01*
X0045467Y0092816D02*
X0040367Y0087716D01*
X0038063Y0084646D02*
X0032169Y0084646D01*
X0034049Y0085644D02*
X0037112Y0085644D01*
X0036698Y0086643D02*
X0035047Y0086643D01*
X0036046Y0087641D02*
X0036567Y0087641D01*
X0032733Y0090082D02*
X0040367Y0097716D01*
X0043467Y0100816D01*
X0043467Y0111516D01*
X0045467Y0111516D02*
X0045467Y0092816D01*
X0040367Y0102716D02*
X0035367Y0097716D01*
X0032899Y0100622D02*
X0023835Y0100622D01*
X0023835Y0101621D02*
X0035594Y0101621D01*
X0036593Y0102619D02*
X0024027Y0102619D01*
X0024435Y0103618D02*
X0037591Y0103618D01*
X0038590Y0104616D02*
X0024435Y0104616D01*
X0024435Y0105615D02*
X0038867Y0105615D01*
X0038050Y0106613D02*
X0024435Y0106613D01*
X0024435Y0107612D02*
X0037051Y0107612D01*
X0036917Y0108610D02*
X0024435Y0108610D01*
X0027273Y0109609D02*
X0036917Y0109609D01*
X0036917Y0110607D02*
X0027807Y0110607D01*
X0027933Y0111606D02*
X0036917Y0111606D01*
X0036917Y0112604D02*
X0028932Y0112604D01*
X0029930Y0113603D02*
X0036917Y0113603D01*
X0039567Y0111516D02*
X0039567Y0116916D01*
X0040367Y0117716D01*
X0041467Y0111516D02*
X0041467Y0103816D01*
X0040367Y0102716D01*
X0045467Y0111516D02*
X0045467Y0112616D01*
X0045367Y0112716D01*
X0045467Y0111516D02*
X0045467Y0121632D01*
X0045465Y0121649D01*
X0045461Y0121666D01*
X0045454Y0121682D01*
X0045444Y0121696D01*
X0045431Y0121709D01*
X0045417Y0121719D01*
X0045401Y0121726D01*
X0045384Y0121730D01*
X0045367Y0121732D01*
X0045367Y0123700D02*
X0045367Y0128716D01*
X0034167Y0128716D01*
X0029367Y0128716D01*
X0025367Y0132716D01*
X0020367Y0132716D02*
X0026367Y0126716D01*
X0034167Y0126716D01*
X0034167Y0124716D02*
X0023367Y0124716D01*
X0020367Y0127716D01*
X0015367Y0127716D02*
X0020367Y0122716D01*
X0034067Y0122716D01*
X0034167Y0122816D01*
X0034167Y0118816D02*
X0026467Y0118816D01*
X0025367Y0117716D01*
X0023819Y0117716D01*
X0023819Y0112716D02*
X0025367Y0112716D01*
X0029567Y0116916D01*
X0034167Y0116916D01*
X0044382Y0132716D02*
X0056351Y0132716D01*
X0054382Y0132716D02*
X0053367Y0132716D01*
X0053367Y0143916D01*
X0053367Y0155716D01*
X0055367Y0157716D01*
X0057267Y0154616D02*
X0062867Y0160216D01*
X0082020Y0160216D01*
X0082020Y0155216D02*
X0062867Y0155216D01*
X0059267Y0151616D01*
X0059267Y0143916D01*
X0061167Y0143916D02*
X0061167Y0147591D01*
X0063792Y0150216D01*
X0069414Y0150216D01*
X0072308Y0146554D02*
X0073426Y0146554D01*
X0076319Y0150216D02*
X0082020Y0150216D01*
X0088713Y0155216D02*
X0097867Y0155216D01*
X0095164Y0152545D02*
X0092978Y0152545D01*
X0092378Y0151546D02*
X0096796Y0151546D01*
X0097867Y0160216D02*
X0088713Y0160216D01*
X0089400Y0170518D02*
X0095062Y0170518D01*
X0094064Y0171516D02*
X0090821Y0171516D01*
X0091627Y0172515D02*
X0093408Y0172515D01*
X0092994Y0173513D02*
X0092081Y0173513D01*
X0092320Y0174512D02*
X0092767Y0174512D01*
X0098567Y0175216D02*
X0105367Y0168416D01*
X0105367Y0165216D01*
X0102441Y0167664D02*
X0102145Y0167368D01*
X0102071Y0167189D01*
X0099807Y0169452D01*
X0100406Y0169700D01*
X0102441Y0167664D01*
X0102299Y0167522D02*
X0101737Y0167522D01*
X0101585Y0168521D02*
X0100739Y0168521D01*
X0100586Y0169519D02*
X0099970Y0169519D01*
X0084933Y0170518D02*
X0016703Y0170518D01*
X0017947Y0169519D02*
X0050993Y0169519D01*
X0049995Y0168521D02*
X0047318Y0168521D01*
X0048434Y0167522D02*
X0048996Y0167522D01*
X0057267Y0154616D02*
X0057267Y0143916D01*
X0061167Y0143916D02*
X0061167Y0138516D01*
X0060367Y0137716D01*
X0063817Y0141561D02*
X0099212Y0141561D01*
X0098213Y0140563D02*
X0082894Y0140563D01*
X0083714Y0139564D02*
X0097215Y0139564D01*
X0096216Y0138565D02*
X0084128Y0138565D01*
X0084167Y0137567D02*
X0095218Y0137567D01*
X0094219Y0136568D02*
X0086738Y0136568D01*
X0087737Y0135570D02*
X0093221Y0135570D01*
X0092222Y0134571D02*
X0088735Y0134571D01*
X0089734Y0133573D02*
X0091224Y0133573D01*
X0080367Y0137716D02*
X0079567Y0138516D01*
X0066567Y0138516D01*
X0066520Y0146554D02*
X0063817Y0146554D01*
X0064805Y0147552D02*
X0065656Y0147552D01*
X0083512Y0171516D02*
X0011667Y0171516D01*
X0010669Y0170518D02*
X0014031Y0170518D01*
X0012786Y0169519D02*
X0009670Y0169519D01*
X0008672Y0168521D02*
X0012345Y0168521D01*
X0012267Y0167522D02*
X0007673Y0167522D01*
X0012666Y0172515D02*
X0082707Y0172515D01*
X0082252Y0173513D02*
X0071164Y0173513D01*
X0072163Y0174512D02*
X0082013Y0174512D01*
X0122188Y0134571D02*
X0126667Y0134571D01*
X0126667Y0133573D02*
X0123187Y0133573D01*
X0124185Y0132574D02*
X0126667Y0132574D01*
X0126667Y0131576D02*
X0125184Y0131576D01*
X0126182Y0130577D02*
X0126667Y0130577D01*
X0060367Y0082716D02*
X0057414Y0079763D01*
X0057414Y0075590D01*
X0059382Y0075590D02*
X0059382Y0073700D01*
X0058398Y0072716D01*
X0055367Y0072716D01*
X0055445Y0075590D02*
X0055445Y0082637D01*
X0055367Y0082716D01*
X0052493Y0074661D02*
X0052493Y0074661D01*
X0052493Y0073662D02*
X0052493Y0073662D01*
X0042925Y0080274D02*
X0040367Y0077716D01*
X0040367Y0071062D01*
X0039882Y0063677D02*
X0040851Y0063677D01*
X0040851Y0062679D02*
X0039882Y0062679D01*
X0039882Y0061680D02*
X0040851Y0061680D01*
X0047341Y0054691D02*
X0056782Y0054691D01*
X0056782Y0055689D02*
X0050840Y0055689D01*
X0051838Y0056688D02*
X0053464Y0056688D01*
X0056782Y0053692D02*
X0046343Y0053692D01*
X0045344Y0052694D02*
X0056667Y0052694D01*
X0059382Y0051732D02*
X0055367Y0047716D01*
X0053713Y0047716D02*
X0053713Y0042716D01*
X0055367Y0042716D01*
X0050611Y0038714D02*
X0042867Y0038714D01*
X0042867Y0039713D02*
X0043768Y0039713D01*
X0043355Y0040711D02*
X0042867Y0040711D01*
X0042867Y0041710D02*
X0043355Y0041710D01*
X0042867Y0042708D02*
X0046536Y0042708D01*
X0046536Y0043200D02*
X0046536Y0047231D01*
X0047504Y0047231D01*
X0047504Y0044247D01*
X0047504Y0043200D01*
X0046536Y0043200D01*
X0046536Y0043707D02*
X0047504Y0043707D01*
X0047504Y0044705D02*
X0046536Y0044705D01*
X0046536Y0045704D02*
X0047504Y0045704D01*
X0047504Y0046702D02*
X0046536Y0046702D01*
X0046536Y0047701D02*
X0042867Y0047701D01*
X0043355Y0048200D02*
X0046536Y0048200D01*
X0046536Y0051184D01*
X0044657Y0051184D01*
X0044276Y0051082D01*
X0043934Y0050885D01*
X0043655Y0050605D01*
X0043457Y0050263D01*
X0043355Y0049882D01*
X0043355Y0048200D01*
X0043355Y0048699D02*
X0042867Y0048699D01*
X0042867Y0049698D02*
X0043355Y0049698D01*
X0043347Y0050696D02*
X0043746Y0050696D01*
X0044346Y0051695D02*
X0050589Y0051695D01*
X0047504Y0050696D02*
X0046536Y0050696D01*
X0046536Y0049698D02*
X0047504Y0049698D01*
X0047504Y0048699D02*
X0046536Y0048699D01*
X0043355Y0046702D02*
X0042867Y0046702D01*
X0042867Y0045704D02*
X0043355Y0045704D01*
X0043355Y0044705D02*
X0042867Y0044705D01*
X0042867Y0043707D02*
X0043355Y0043707D01*
X0046536Y0041710D02*
X0047504Y0041710D01*
X0047504Y0040711D02*
X0046536Y0040711D01*
X0046536Y0039713D02*
X0047504Y0039713D01*
X0040267Y0039713D02*
X0015254Y0039713D01*
X0015808Y0038714D02*
X0040267Y0038714D01*
X0040267Y0037716D02*
X0015967Y0037716D01*
X0015808Y0036717D02*
X0040466Y0036717D01*
X0041187Y0035719D02*
X0015254Y0035719D01*
X0059382Y0051732D02*
X0059382Y0059842D01*
X0040367Y0137716D02*
X0039567Y0138516D01*
X0034167Y0138516D01*
D25*
X0040367Y0137716D03*
X0025367Y0132716D03*
X0020367Y0122716D03*
X0040367Y0117716D03*
X0055367Y0122716D03*
X0060367Y0137716D03*
X0055367Y0157716D03*
X0050367Y0157716D03*
X0045367Y0165216D03*
X0040367Y0157716D03*
X0080367Y0137716D03*
X0097867Y0150216D03*
X0097867Y0155216D03*
X0097867Y0160216D03*
X0105367Y0165216D03*
X0110367Y0155216D03*
X0115367Y0117716D03*
X0077867Y0100216D03*
X0070367Y0097716D03*
X0065367Y0092716D03*
X0055367Y0092716D03*
X0050367Y0092716D03*
X0055367Y0082716D03*
X0040367Y0087716D03*
X0040367Y0097716D03*
X0035367Y0097716D03*
X0022867Y0080216D03*
X0070367Y0052716D03*
X0075367Y0077716D03*
X0095367Y0037716D03*
D26*
X0125367Y0037716D01*
X0130367Y0042716D01*
X0130367Y0172716D01*
X0125367Y0177716D01*
X0101067Y0177716D01*
X0098567Y0175216D01*
M02*
