G75*
%MOIN*%
%OFA0B0*%
%FSLAX25Y25*%
%IPPOS*%
%LPD*%
%AMOC8*
5,1,8,0,0,1.08239X$1,22.5*
%
%ADD10C,0.00300*%
%ADD11C,0.00400*%
%ADD12C,0.00200*%
%ADD13C,0.01000*%
%ADD14C,0.01200*%
%ADD15C,0.00100*%
%ADD16C,0.02200*%
%ADD17C,0.00800*%
%ADD18C,0.00500*%
%ADD19R,0.01800X0.03000*%
%ADD20R,0.03000X0.01800*%
%ADD21C,0.00600*%
%ADD22C,0.00591*%
D10*
X0045517Y0052866D02*
X0045517Y0056569D01*
X0046751Y0055335D01*
X0047985Y0056569D01*
X0047985Y0052866D01*
X0049200Y0052866D02*
X0049200Y0056569D01*
X0051051Y0056569D01*
X0051669Y0055952D01*
X0051669Y0054717D01*
X0051051Y0054100D01*
X0049200Y0054100D01*
X0052883Y0053483D02*
X0053500Y0052866D01*
X0054735Y0052866D01*
X0055352Y0053483D01*
X0055352Y0056569D01*
X0056566Y0054717D02*
X0059035Y0054717D01*
X0060249Y0055335D02*
X0060249Y0055952D01*
X0060866Y0056569D01*
X0062101Y0056569D01*
X0062718Y0055952D01*
X0062718Y0053483D01*
X0062101Y0052866D01*
X0060866Y0052866D01*
X0060249Y0053483D01*
X0060866Y0054717D02*
X0062718Y0054717D01*
X0063932Y0055952D02*
X0064550Y0056569D01*
X0065784Y0056569D01*
X0066401Y0055952D01*
X0066401Y0055335D01*
X0063932Y0052866D01*
X0066401Y0052866D01*
X0067616Y0053483D02*
X0068233Y0052866D01*
X0069467Y0052866D01*
X0070084Y0053483D01*
X0070084Y0054717D01*
X0069467Y0055335D01*
X0068850Y0055335D01*
X0067616Y0054717D01*
X0067616Y0056569D01*
X0070084Y0056569D01*
X0071299Y0055952D02*
X0071916Y0056569D01*
X0073150Y0056569D01*
X0073767Y0055952D01*
X0071299Y0053483D01*
X0071916Y0052866D01*
X0073150Y0052866D01*
X0073767Y0053483D01*
X0073767Y0055952D01*
X0071299Y0055952D02*
X0071299Y0053483D01*
X0060866Y0054717D02*
X0060249Y0055335D01*
X0052883Y0056569D02*
X0052883Y0053483D01*
X0086793Y0068750D02*
X0087277Y0068266D01*
X0088245Y0068266D01*
X0088728Y0068750D01*
X0088728Y0070685D02*
X0088245Y0071168D01*
X0087277Y0071168D01*
X0086793Y0070685D01*
X0086793Y0068750D01*
X0086847Y0083016D02*
X0086847Y0084951D01*
X0087814Y0085918D01*
X0088782Y0084951D01*
X0088782Y0083016D01*
X0089793Y0083016D02*
X0091728Y0085918D01*
X0092740Y0085435D02*
X0092740Y0083500D01*
X0093224Y0083016D01*
X0094191Y0083016D01*
X0094675Y0083500D01*
X0094675Y0084467D01*
X0093707Y0084467D01*
X0092740Y0085435D02*
X0093224Y0085918D01*
X0094191Y0085918D01*
X0094675Y0085435D01*
X0088782Y0084467D02*
X0086847Y0084467D01*
X0063150Y0150366D02*
X0061299Y0150366D01*
X0061299Y0154069D01*
X0063150Y0154069D01*
X0063767Y0153452D01*
X0063767Y0152835D01*
X0063150Y0152217D01*
X0061299Y0152217D01*
X0060084Y0151600D02*
X0060084Y0150983D01*
X0059467Y0150366D01*
X0058233Y0150366D01*
X0057616Y0150983D01*
X0056401Y0150983D02*
X0055784Y0150366D01*
X0054550Y0150366D01*
X0053932Y0150983D01*
X0053932Y0153452D01*
X0054550Y0154069D01*
X0055784Y0154069D01*
X0056401Y0153452D01*
X0057616Y0153452D02*
X0058233Y0154069D01*
X0059467Y0154069D01*
X0060084Y0153452D01*
X0060084Y0152835D01*
X0059467Y0152217D01*
X0060084Y0151600D01*
X0059467Y0152217D02*
X0058850Y0152217D01*
X0063150Y0152217D02*
X0063767Y0151600D01*
X0063767Y0150983D01*
X0063150Y0150366D01*
X0052718Y0150983D02*
X0052718Y0154069D01*
X0050249Y0154069D02*
X0050249Y0150983D01*
X0050866Y0150366D01*
X0052101Y0150366D01*
X0052718Y0150983D01*
X0049035Y0150366D02*
X0046566Y0150366D01*
X0049035Y0152835D01*
X0049035Y0153452D01*
X0048418Y0154069D01*
X0047183Y0154069D01*
X0046566Y0153452D01*
X0045352Y0153452D02*
X0045352Y0152835D01*
X0044735Y0152217D01*
X0045352Y0151600D01*
X0045352Y0150983D01*
X0044735Y0150366D01*
X0043500Y0150366D01*
X0042883Y0150983D01*
X0044117Y0152217D02*
X0044735Y0152217D01*
X0045352Y0153452D02*
X0044735Y0154069D01*
X0043500Y0154069D01*
X0042883Y0153452D01*
X0041669Y0154069D02*
X0039200Y0154069D01*
X0040434Y0154069D02*
X0040434Y0150366D01*
X0037985Y0150366D02*
X0037985Y0152835D01*
X0036751Y0154069D01*
X0035517Y0152835D01*
X0035517Y0150366D01*
X0035517Y0152217D02*
X0037985Y0152217D01*
X0029753Y0142586D02*
X0026617Y0139450D01*
X0028185Y0139450D02*
X0028185Y0142586D01*
X0026617Y0142586D02*
X0029753Y0139450D01*
X0029753Y0141018D02*
X0026617Y0141018D01*
X0111414Y0158446D02*
X0113833Y0158446D01*
X0114317Y0158930D01*
X0114317Y0159897D01*
X0113833Y0160381D01*
X0111414Y0160381D01*
X0111898Y0161393D02*
X0112382Y0161393D01*
X0112865Y0161876D01*
X0112865Y0162844D01*
X0113349Y0163328D01*
X0113833Y0163328D01*
X0114317Y0162844D01*
X0114317Y0161876D01*
X0113833Y0161393D01*
X0114317Y0164339D02*
X0114317Y0165790D01*
X0113833Y0166274D01*
X0113349Y0166274D01*
X0112865Y0165790D01*
X0112865Y0164339D01*
X0111898Y0163328D02*
X0111414Y0162844D01*
X0111414Y0161876D01*
X0111898Y0161393D01*
X0111414Y0164339D02*
X0111414Y0165790D01*
X0111898Y0166274D01*
X0112382Y0166274D01*
X0112865Y0165790D01*
X0114317Y0164339D02*
X0111414Y0164339D01*
D11*
X0111532Y0080020D02*
X0109230Y0080020D01*
X0109230Y0075416D01*
X0109230Y0076950D02*
X0111532Y0076950D01*
X0112299Y0077718D01*
X0112299Y0079252D01*
X0111532Y0080020D01*
X0113834Y0080020D02*
X0115369Y0080020D01*
X0114601Y0080020D02*
X0114601Y0075416D01*
X0113834Y0075416D02*
X0115369Y0075416D01*
X0116903Y0076183D02*
X0117671Y0075416D01*
X0119205Y0075416D01*
X0119973Y0076183D01*
X0119973Y0079252D01*
X0119205Y0080020D01*
X0117671Y0080020D01*
X0116903Y0079252D01*
X0116903Y0076183D01*
X0107695Y0076183D02*
X0106928Y0075416D01*
X0105393Y0075416D01*
X0104626Y0076183D01*
X0105393Y0077718D02*
X0106928Y0077718D01*
X0107695Y0076950D01*
X0107695Y0076183D01*
X0105393Y0077718D02*
X0104626Y0078485D01*
X0104626Y0079252D01*
X0105393Y0080020D01*
X0106928Y0080020D01*
X0107695Y0079252D01*
X0010167Y0123151D02*
X0008632Y0124686D01*
X0010167Y0126220D01*
X0005563Y0126220D01*
X0006330Y0127755D02*
X0009399Y0127755D01*
X0010167Y0128522D01*
X0010167Y0130057D01*
X0009399Y0130824D01*
X0007865Y0130824D01*
X0007865Y0129290D01*
X0006330Y0130824D02*
X0005563Y0130057D01*
X0005563Y0128522D01*
X0006330Y0127755D01*
X0005563Y0123151D02*
X0010167Y0123151D01*
X0010167Y0132359D02*
X0005563Y0132359D01*
X0005563Y0134661D01*
X0006330Y0135428D01*
X0007097Y0135428D01*
X0007865Y0134661D01*
X0007865Y0132359D01*
X0010167Y0132359D02*
X0010167Y0134661D01*
X0009399Y0135428D01*
X0008632Y0135428D01*
X0007865Y0134661D01*
X0007097Y0141567D02*
X0010167Y0143101D01*
X0007097Y0144636D01*
X0006330Y0146171D02*
X0005563Y0146938D01*
X0005563Y0148473D01*
X0006330Y0149240D01*
X0009399Y0146171D01*
X0010167Y0146938D01*
X0010167Y0148473D01*
X0009399Y0149240D01*
X0006330Y0149240D01*
X0006330Y0146171D02*
X0009399Y0146171D01*
X0009399Y0150775D02*
X0009399Y0151542D01*
X0010167Y0151542D01*
X0010167Y0150775D01*
X0009399Y0150775D01*
X0010167Y0153077D02*
X0010167Y0156146D01*
X0010167Y0154611D02*
X0005563Y0154611D01*
X0007097Y0153077D01*
D12*
X0018165Y0047760D02*
X0018165Y0046292D01*
X0018165Y0047026D02*
X0020367Y0047026D01*
X0020367Y0048502D02*
X0018165Y0048502D01*
X0018899Y0048869D02*
X0018899Y0049603D01*
X0019266Y0049970D01*
X0020367Y0049970D01*
X0020367Y0050712D02*
X0020367Y0051446D01*
X0020367Y0051079D02*
X0018899Y0051079D01*
X0018899Y0050712D01*
X0018165Y0051079D02*
X0017798Y0051079D01*
X0019266Y0052185D02*
X0018899Y0052552D01*
X0018899Y0053653D01*
X0019633Y0053286D02*
X0019633Y0052552D01*
X0019266Y0052185D01*
X0020367Y0052185D02*
X0020367Y0053286D01*
X0020000Y0053653D01*
X0019633Y0053286D01*
X0022499Y0053837D02*
X0024334Y0053837D01*
X0024701Y0053470D01*
X0024701Y0053103D01*
X0023967Y0052736D02*
X0023967Y0053837D01*
X0023967Y0052736D02*
X0023600Y0052369D01*
X0022499Y0052369D01*
X0022866Y0051627D02*
X0023967Y0051627D01*
X0023967Y0050526D01*
X0023600Y0050159D01*
X0023233Y0050526D01*
X0023233Y0051627D01*
X0022866Y0051627D02*
X0022499Y0051260D01*
X0022499Y0050526D01*
X0022866Y0049417D02*
X0023967Y0049417D01*
X0023967Y0048683D02*
X0022866Y0048683D01*
X0022499Y0049050D01*
X0022866Y0049417D01*
X0022866Y0048683D02*
X0022499Y0048317D01*
X0022499Y0047950D01*
X0023967Y0047950D01*
X0026099Y0048497D02*
X0027567Y0047763D01*
X0026099Y0047029D01*
X0026466Y0049239D02*
X0026099Y0049606D01*
X0026099Y0050340D01*
X0026466Y0050707D01*
X0026833Y0050707D01*
X0026833Y0049239D01*
X0027200Y0049239D02*
X0026466Y0049239D01*
X0027200Y0049239D02*
X0027567Y0049606D01*
X0027567Y0050340D01*
X0027567Y0051449D02*
X0026099Y0051449D01*
X0026099Y0052182D02*
X0026099Y0052549D01*
X0026099Y0052182D02*
X0026833Y0051449D01*
X0027200Y0053290D02*
X0026099Y0053290D01*
X0027200Y0053290D02*
X0027567Y0053657D01*
X0027567Y0054758D01*
X0027934Y0054758D02*
X0026099Y0054758D01*
X0023967Y0057156D02*
X0023967Y0058257D01*
X0024334Y0058257D02*
X0022499Y0058257D01*
X0022499Y0057156D01*
X0022866Y0056789D01*
X0023600Y0056789D01*
X0023967Y0057156D01*
X0024701Y0057523D02*
X0024701Y0057890D01*
X0024334Y0058257D01*
X0023600Y0058999D02*
X0022866Y0058999D01*
X0022499Y0059366D01*
X0022499Y0060100D01*
X0022866Y0060467D01*
X0023233Y0060467D01*
X0023233Y0058999D01*
X0023600Y0058999D02*
X0023967Y0059366D01*
X0023967Y0060100D01*
X0023600Y0061576D02*
X0022132Y0061576D01*
X0022499Y0061209D02*
X0022499Y0061943D01*
X0023600Y0061576D02*
X0023967Y0061943D01*
X0025732Y0062497D02*
X0027200Y0062497D01*
X0027567Y0062864D01*
X0026099Y0062864D02*
X0026099Y0062130D01*
X0026466Y0061388D02*
X0026099Y0061021D01*
X0026099Y0060287D01*
X0026466Y0059920D01*
X0027200Y0059920D01*
X0027567Y0060287D01*
X0027567Y0061021D01*
X0027200Y0061388D01*
X0026466Y0061388D01*
X0026466Y0059178D02*
X0026099Y0058811D01*
X0026099Y0058077D01*
X0026466Y0057710D01*
X0025365Y0057710D02*
X0027567Y0057710D01*
X0027567Y0059178D02*
X0026466Y0059178D01*
X0027934Y0054758D02*
X0028301Y0054391D01*
X0028301Y0054024D01*
X0021101Y0056605D02*
X0018899Y0056605D01*
X0018899Y0057706D01*
X0019266Y0058073D01*
X0020000Y0058073D01*
X0020367Y0057706D01*
X0020367Y0056605D01*
X0020000Y0058815D02*
X0019633Y0059182D01*
X0019633Y0060283D01*
X0019266Y0060283D02*
X0020367Y0060283D01*
X0020367Y0059182D01*
X0020000Y0058815D01*
X0018899Y0059182D02*
X0018899Y0059916D01*
X0019266Y0060283D01*
X0019633Y0061025D02*
X0018899Y0061759D01*
X0018899Y0062126D01*
X0018899Y0062866D02*
X0018899Y0063600D01*
X0018532Y0063233D02*
X0020000Y0063233D01*
X0020367Y0063600D01*
X0020367Y0061025D02*
X0018899Y0061025D01*
X0018899Y0048869D02*
X0019266Y0048502D01*
X0053630Y0037751D02*
X0053630Y0036283D01*
X0053997Y0035916D01*
X0054731Y0035916D01*
X0055098Y0036283D01*
X0055098Y0037751D01*
X0054731Y0038118D01*
X0053997Y0038118D01*
X0053630Y0037751D01*
X0055840Y0037384D02*
X0055840Y0035182D01*
X0056391Y0034885D02*
X0056391Y0034518D01*
X0056391Y0033784D02*
X0056391Y0032316D01*
X0056024Y0032316D02*
X0056758Y0032316D01*
X0057864Y0032683D02*
X0058231Y0032316D01*
X0057864Y0032683D02*
X0057864Y0034151D01*
X0057497Y0033784D02*
X0058231Y0033784D01*
X0058971Y0033417D02*
X0059338Y0033784D01*
X0060072Y0033784D01*
X0060439Y0033417D01*
X0060439Y0032316D01*
X0061181Y0032683D02*
X0061548Y0032316D01*
X0062648Y0032316D01*
X0062648Y0033784D01*
X0063390Y0033784D02*
X0064491Y0033784D01*
X0064858Y0033417D01*
X0064858Y0032683D01*
X0064491Y0032316D01*
X0063390Y0032316D01*
X0063390Y0034518D01*
X0063571Y0035916D02*
X0062837Y0035916D01*
X0062470Y0036283D01*
X0062837Y0037017D02*
X0063571Y0037017D01*
X0063938Y0036650D01*
X0063938Y0036283D01*
X0063571Y0035916D01*
X0064680Y0036283D02*
X0064680Y0037017D01*
X0065047Y0037384D01*
X0065780Y0037384D01*
X0066147Y0037017D01*
X0066147Y0036283D01*
X0065780Y0035916D01*
X0065047Y0035916D01*
X0064680Y0036283D01*
X0063938Y0037751D02*
X0063571Y0038118D01*
X0062837Y0038118D01*
X0062470Y0037751D01*
X0062470Y0037384D01*
X0062837Y0037017D01*
X0061728Y0037017D02*
X0061728Y0035916D01*
X0061728Y0037017D02*
X0061361Y0037384D01*
X0060260Y0037384D01*
X0060260Y0035916D01*
X0059518Y0036650D02*
X0058050Y0036650D01*
X0058050Y0037017D02*
X0058417Y0037384D01*
X0059151Y0037384D01*
X0059518Y0037017D01*
X0059518Y0036650D01*
X0059151Y0035916D02*
X0058417Y0035916D01*
X0058050Y0036283D01*
X0058050Y0037017D01*
X0057308Y0037017D02*
X0057308Y0036283D01*
X0056941Y0035916D01*
X0055840Y0035916D01*
X0055840Y0037384D02*
X0056941Y0037384D01*
X0057308Y0037017D01*
X0058971Y0034518D02*
X0058971Y0032316D01*
X0061181Y0032683D02*
X0061181Y0033784D01*
X0065600Y0032683D02*
X0065600Y0032316D01*
X0065967Y0032316D01*
X0065967Y0032683D01*
X0065600Y0032683D01*
X0066705Y0032683D02*
X0067072Y0032316D01*
X0068173Y0032316D01*
X0068915Y0032683D02*
X0069282Y0032316D01*
X0070016Y0032316D01*
X0070383Y0032683D01*
X0070383Y0033417D01*
X0070016Y0033784D01*
X0069282Y0033784D01*
X0068915Y0033417D01*
X0068915Y0032683D01*
X0068173Y0033784D02*
X0067072Y0033784D01*
X0066705Y0033417D01*
X0066705Y0032683D01*
X0067256Y0035916D02*
X0068357Y0035916D01*
X0068357Y0037384D01*
X0069099Y0037384D02*
X0069099Y0035916D01*
X0069099Y0036650D02*
X0069833Y0037384D01*
X0070200Y0037384D01*
X0070941Y0037017D02*
X0070941Y0036283D01*
X0071308Y0035916D01*
X0072409Y0035916D01*
X0073151Y0036283D02*
X0073151Y0037017D01*
X0073518Y0037384D01*
X0074252Y0037384D01*
X0074619Y0037017D01*
X0074619Y0036650D01*
X0073151Y0036650D01*
X0073151Y0036283D02*
X0073518Y0035916D01*
X0074252Y0035916D01*
X0075361Y0035916D02*
X0075361Y0038118D01*
X0075361Y0037017D02*
X0076829Y0037017D01*
X0077570Y0036283D02*
X0077937Y0036650D01*
X0079038Y0036650D01*
X0079038Y0037017D02*
X0079038Y0035916D01*
X0077937Y0035916D01*
X0077570Y0036283D01*
X0076829Y0035916D02*
X0076829Y0038118D01*
X0077937Y0037384D02*
X0078671Y0037384D01*
X0079038Y0037017D01*
X0079780Y0037384D02*
X0079780Y0035916D01*
X0079780Y0036650D02*
X0080514Y0037384D01*
X0080881Y0037384D01*
X0081622Y0037017D02*
X0081622Y0036283D01*
X0081989Y0035916D01*
X0083090Y0035916D01*
X0083090Y0038118D01*
X0083090Y0037384D02*
X0081989Y0037384D01*
X0081622Y0037017D01*
X0083832Y0037384D02*
X0083832Y0036283D01*
X0084199Y0035916D01*
X0084566Y0036283D01*
X0084933Y0035916D01*
X0085300Y0036283D01*
X0085300Y0037384D01*
X0086409Y0037384D02*
X0087143Y0037384D01*
X0087510Y0037017D01*
X0087510Y0035916D01*
X0086409Y0035916D01*
X0086042Y0036283D01*
X0086409Y0036650D01*
X0087510Y0036650D01*
X0088252Y0036650D02*
X0088986Y0037384D01*
X0089353Y0037384D01*
X0090093Y0037017D02*
X0090460Y0037384D01*
X0091194Y0037384D01*
X0091561Y0037017D01*
X0091561Y0036650D01*
X0090093Y0036650D01*
X0090093Y0036283D02*
X0090093Y0037017D01*
X0090093Y0036283D02*
X0090460Y0035916D01*
X0091194Y0035916D01*
X0091377Y0033784D02*
X0090276Y0033784D01*
X0089909Y0033417D01*
X0090276Y0033050D01*
X0091010Y0033050D01*
X0091377Y0032683D01*
X0091010Y0032316D01*
X0089909Y0032316D01*
X0089170Y0032316D02*
X0088803Y0032683D01*
X0088803Y0034151D01*
X0088436Y0033784D02*
X0089170Y0033784D01*
X0087694Y0033417D02*
X0087694Y0032316D01*
X0087694Y0033417D02*
X0087327Y0033784D01*
X0086226Y0033784D01*
X0086226Y0032316D01*
X0085484Y0032316D02*
X0085484Y0033417D01*
X0085117Y0033784D01*
X0084383Y0033784D01*
X0084016Y0033417D01*
X0083274Y0033784D02*
X0082173Y0033784D01*
X0081806Y0033417D01*
X0082173Y0033050D01*
X0082907Y0033050D01*
X0083274Y0032683D01*
X0082907Y0032316D01*
X0081806Y0032316D01*
X0081064Y0032316D02*
X0081064Y0033417D01*
X0080697Y0033784D01*
X0079963Y0033784D01*
X0079963Y0033050D02*
X0081064Y0033050D01*
X0081064Y0032316D02*
X0079963Y0032316D01*
X0079596Y0032683D01*
X0079963Y0033050D01*
X0078856Y0033784D02*
X0078489Y0033784D01*
X0077755Y0033050D01*
X0077755Y0032316D02*
X0077755Y0033784D01*
X0077013Y0033417D02*
X0077013Y0032683D01*
X0076646Y0032316D01*
X0075545Y0032316D01*
X0075545Y0031582D02*
X0075545Y0033784D01*
X0076646Y0033784D01*
X0077013Y0033417D01*
X0074803Y0034518D02*
X0073335Y0032316D01*
X0072593Y0032316D02*
X0072593Y0033417D01*
X0072226Y0033784D01*
X0071859Y0033417D01*
X0071859Y0032316D01*
X0071125Y0032316D02*
X0071125Y0033784D01*
X0071492Y0033784D01*
X0071859Y0033417D01*
X0070941Y0037017D02*
X0071308Y0037384D01*
X0072409Y0037384D01*
X0067256Y0035916D02*
X0066889Y0036283D01*
X0066889Y0037384D01*
X0056391Y0033784D02*
X0056024Y0033784D01*
X0055282Y0033784D02*
X0055282Y0031949D01*
X0054915Y0031582D01*
X0054548Y0031582D01*
X0054181Y0032316D02*
X0055282Y0032316D01*
X0054181Y0032316D02*
X0053814Y0032683D01*
X0053814Y0033417D01*
X0054181Y0033784D01*
X0055282Y0033784D01*
X0084016Y0034518D02*
X0084016Y0032316D01*
X0088252Y0035916D02*
X0088252Y0037384D01*
D13*
X0088117Y0063216D02*
X0089117Y0064216D01*
X0089117Y0064466D01*
X0089117Y0064716D01*
X0088117Y0065716D01*
X0089117Y0064466D02*
X0085617Y0064466D01*
X0083867Y0065716D02*
X0081367Y0063216D01*
X0079691Y0064466D02*
X0079693Y0064574D01*
X0079699Y0064682D01*
X0079709Y0064790D01*
X0079723Y0064897D01*
X0079741Y0065004D01*
X0079763Y0065110D01*
X0079788Y0065215D01*
X0079818Y0065319D01*
X0079851Y0065421D01*
X0079889Y0065523D01*
X0079930Y0065623D01*
X0079974Y0065722D01*
X0080022Y0065818D01*
X0080074Y0065913D01*
X0080129Y0066006D01*
X0080188Y0066097D01*
X0080250Y0066186D01*
X0080315Y0066272D01*
X0080383Y0066356D01*
X0080455Y0066437D01*
X0080529Y0066516D01*
X0080606Y0066592D01*
X0080686Y0066664D01*
X0080769Y0066734D01*
X0080854Y0066801D01*
X0080941Y0066865D01*
X0081031Y0066925D01*
X0081123Y0066982D01*
X0081217Y0067035D01*
X0081313Y0067085D01*
X0081410Y0067132D01*
X0081510Y0067174D01*
X0081611Y0067213D01*
X0081713Y0067249D01*
X0081816Y0067280D01*
X0081921Y0067308D01*
X0082026Y0067332D01*
X0082133Y0067352D01*
X0082240Y0067368D01*
X0082347Y0067380D01*
X0082455Y0067388D01*
X0082563Y0067392D01*
X0082671Y0067392D01*
X0082779Y0067388D01*
X0082887Y0067380D01*
X0082994Y0067368D01*
X0083101Y0067352D01*
X0083208Y0067332D01*
X0083313Y0067308D01*
X0083418Y0067280D01*
X0083521Y0067249D01*
X0083623Y0067213D01*
X0083724Y0067174D01*
X0083824Y0067132D01*
X0083921Y0067085D01*
X0084017Y0067035D01*
X0084111Y0066982D01*
X0084203Y0066925D01*
X0084293Y0066865D01*
X0084380Y0066801D01*
X0084465Y0066734D01*
X0084548Y0066664D01*
X0084628Y0066592D01*
X0084705Y0066516D01*
X0084779Y0066437D01*
X0084851Y0066356D01*
X0084919Y0066272D01*
X0084984Y0066186D01*
X0085046Y0066097D01*
X0085105Y0066006D01*
X0085160Y0065913D01*
X0085212Y0065818D01*
X0085260Y0065722D01*
X0085304Y0065623D01*
X0085345Y0065523D01*
X0085383Y0065421D01*
X0085416Y0065319D01*
X0085446Y0065215D01*
X0085471Y0065110D01*
X0085493Y0065004D01*
X0085511Y0064897D01*
X0085525Y0064790D01*
X0085535Y0064682D01*
X0085541Y0064574D01*
X0085543Y0064466D01*
X0085541Y0064358D01*
X0085535Y0064250D01*
X0085525Y0064142D01*
X0085511Y0064035D01*
X0085493Y0063928D01*
X0085471Y0063822D01*
X0085446Y0063717D01*
X0085416Y0063613D01*
X0085383Y0063511D01*
X0085345Y0063409D01*
X0085304Y0063309D01*
X0085260Y0063210D01*
X0085212Y0063114D01*
X0085160Y0063019D01*
X0085105Y0062926D01*
X0085046Y0062835D01*
X0084984Y0062746D01*
X0084919Y0062660D01*
X0084851Y0062576D01*
X0084779Y0062495D01*
X0084705Y0062416D01*
X0084628Y0062340D01*
X0084548Y0062268D01*
X0084465Y0062198D01*
X0084380Y0062131D01*
X0084293Y0062067D01*
X0084203Y0062007D01*
X0084111Y0061950D01*
X0084017Y0061897D01*
X0083921Y0061847D01*
X0083824Y0061800D01*
X0083724Y0061758D01*
X0083623Y0061719D01*
X0083521Y0061683D01*
X0083418Y0061652D01*
X0083313Y0061624D01*
X0083208Y0061600D01*
X0083101Y0061580D01*
X0082994Y0061564D01*
X0082887Y0061552D01*
X0082779Y0061544D01*
X0082671Y0061540D01*
X0082563Y0061540D01*
X0082455Y0061544D01*
X0082347Y0061552D01*
X0082240Y0061564D01*
X0082133Y0061580D01*
X0082026Y0061600D01*
X0081921Y0061624D01*
X0081816Y0061652D01*
X0081713Y0061683D01*
X0081611Y0061719D01*
X0081510Y0061758D01*
X0081410Y0061800D01*
X0081313Y0061847D01*
X0081217Y0061897D01*
X0081123Y0061950D01*
X0081031Y0062007D01*
X0080941Y0062067D01*
X0080854Y0062131D01*
X0080769Y0062198D01*
X0080686Y0062268D01*
X0080606Y0062340D01*
X0080529Y0062416D01*
X0080455Y0062495D01*
X0080383Y0062576D01*
X0080315Y0062660D01*
X0080250Y0062746D01*
X0080188Y0062835D01*
X0080129Y0062926D01*
X0080074Y0063019D01*
X0080022Y0063114D01*
X0079974Y0063210D01*
X0079930Y0063309D01*
X0079889Y0063409D01*
X0079851Y0063511D01*
X0079818Y0063613D01*
X0079788Y0063717D01*
X0079763Y0063822D01*
X0079741Y0063928D01*
X0079723Y0064035D01*
X0079709Y0064142D01*
X0079699Y0064250D01*
X0079693Y0064358D01*
X0079691Y0064466D01*
X0081367Y0065716D02*
X0083867Y0063216D01*
X0082617Y0067716D02*
X0082617Y0071216D01*
X0082867Y0071216D01*
X0083867Y0070216D01*
X0082617Y0071216D02*
X0082367Y0071216D01*
X0081367Y0070216D01*
X0079441Y0078966D02*
X0079443Y0079074D01*
X0079449Y0079182D01*
X0079459Y0079290D01*
X0079473Y0079397D01*
X0079491Y0079504D01*
X0079513Y0079610D01*
X0079538Y0079715D01*
X0079568Y0079819D01*
X0079601Y0079921D01*
X0079639Y0080023D01*
X0079680Y0080123D01*
X0079724Y0080222D01*
X0079772Y0080318D01*
X0079824Y0080413D01*
X0079879Y0080506D01*
X0079938Y0080597D01*
X0080000Y0080686D01*
X0080065Y0080772D01*
X0080133Y0080856D01*
X0080205Y0080937D01*
X0080279Y0081016D01*
X0080356Y0081092D01*
X0080436Y0081164D01*
X0080519Y0081234D01*
X0080604Y0081301D01*
X0080691Y0081365D01*
X0080781Y0081425D01*
X0080873Y0081482D01*
X0080967Y0081535D01*
X0081063Y0081585D01*
X0081160Y0081632D01*
X0081260Y0081674D01*
X0081361Y0081713D01*
X0081463Y0081749D01*
X0081566Y0081780D01*
X0081671Y0081808D01*
X0081776Y0081832D01*
X0081883Y0081852D01*
X0081990Y0081868D01*
X0082097Y0081880D01*
X0082205Y0081888D01*
X0082313Y0081892D01*
X0082421Y0081892D01*
X0082529Y0081888D01*
X0082637Y0081880D01*
X0082744Y0081868D01*
X0082851Y0081852D01*
X0082958Y0081832D01*
X0083063Y0081808D01*
X0083168Y0081780D01*
X0083271Y0081749D01*
X0083373Y0081713D01*
X0083474Y0081674D01*
X0083574Y0081632D01*
X0083671Y0081585D01*
X0083767Y0081535D01*
X0083861Y0081482D01*
X0083953Y0081425D01*
X0084043Y0081365D01*
X0084130Y0081301D01*
X0084215Y0081234D01*
X0084298Y0081164D01*
X0084378Y0081092D01*
X0084455Y0081016D01*
X0084529Y0080937D01*
X0084601Y0080856D01*
X0084669Y0080772D01*
X0084734Y0080686D01*
X0084796Y0080597D01*
X0084855Y0080506D01*
X0084910Y0080413D01*
X0084962Y0080318D01*
X0085010Y0080222D01*
X0085054Y0080123D01*
X0085095Y0080023D01*
X0085133Y0079921D01*
X0085166Y0079819D01*
X0085196Y0079715D01*
X0085221Y0079610D01*
X0085243Y0079504D01*
X0085261Y0079397D01*
X0085275Y0079290D01*
X0085285Y0079182D01*
X0085291Y0079074D01*
X0085293Y0078966D01*
X0085291Y0078858D01*
X0085285Y0078750D01*
X0085275Y0078642D01*
X0085261Y0078535D01*
X0085243Y0078428D01*
X0085221Y0078322D01*
X0085196Y0078217D01*
X0085166Y0078113D01*
X0085133Y0078011D01*
X0085095Y0077909D01*
X0085054Y0077809D01*
X0085010Y0077710D01*
X0084962Y0077614D01*
X0084910Y0077519D01*
X0084855Y0077426D01*
X0084796Y0077335D01*
X0084734Y0077246D01*
X0084669Y0077160D01*
X0084601Y0077076D01*
X0084529Y0076995D01*
X0084455Y0076916D01*
X0084378Y0076840D01*
X0084298Y0076768D01*
X0084215Y0076698D01*
X0084130Y0076631D01*
X0084043Y0076567D01*
X0083953Y0076507D01*
X0083861Y0076450D01*
X0083767Y0076397D01*
X0083671Y0076347D01*
X0083574Y0076300D01*
X0083474Y0076258D01*
X0083373Y0076219D01*
X0083271Y0076183D01*
X0083168Y0076152D01*
X0083063Y0076124D01*
X0082958Y0076100D01*
X0082851Y0076080D01*
X0082744Y0076064D01*
X0082637Y0076052D01*
X0082529Y0076044D01*
X0082421Y0076040D01*
X0082313Y0076040D01*
X0082205Y0076044D01*
X0082097Y0076052D01*
X0081990Y0076064D01*
X0081883Y0076080D01*
X0081776Y0076100D01*
X0081671Y0076124D01*
X0081566Y0076152D01*
X0081463Y0076183D01*
X0081361Y0076219D01*
X0081260Y0076258D01*
X0081160Y0076300D01*
X0081063Y0076347D01*
X0080967Y0076397D01*
X0080873Y0076450D01*
X0080781Y0076507D01*
X0080691Y0076567D01*
X0080604Y0076631D01*
X0080519Y0076698D01*
X0080436Y0076768D01*
X0080356Y0076840D01*
X0080279Y0076916D01*
X0080205Y0076995D01*
X0080133Y0077076D01*
X0080065Y0077160D01*
X0080000Y0077246D01*
X0079938Y0077335D01*
X0079879Y0077426D01*
X0079824Y0077519D01*
X0079772Y0077614D01*
X0079724Y0077710D01*
X0079680Y0077809D01*
X0079639Y0077909D01*
X0079601Y0078011D01*
X0079568Y0078113D01*
X0079538Y0078217D01*
X0079513Y0078322D01*
X0079491Y0078428D01*
X0079473Y0078535D01*
X0079459Y0078642D01*
X0079449Y0078750D01*
X0079443Y0078858D01*
X0079441Y0078966D01*
X0082367Y0082216D02*
X0082367Y0085716D01*
X0082617Y0085716D01*
X0083617Y0084716D01*
X0082367Y0085716D02*
X0082117Y0085716D01*
X0081117Y0084716D01*
X0085367Y0078966D02*
X0088867Y0078966D01*
X0088867Y0078716D01*
X0087867Y0077716D01*
X0088867Y0078966D02*
X0088867Y0079216D01*
X0087867Y0080216D01*
D14*
X0081867Y0078966D02*
X0081869Y0079010D01*
X0081875Y0079054D01*
X0081885Y0079097D01*
X0081898Y0079139D01*
X0081915Y0079180D01*
X0081936Y0079219D01*
X0081960Y0079256D01*
X0081987Y0079291D01*
X0082017Y0079323D01*
X0082050Y0079353D01*
X0082086Y0079379D01*
X0082123Y0079403D01*
X0082163Y0079422D01*
X0082204Y0079439D01*
X0082247Y0079451D01*
X0082290Y0079460D01*
X0082334Y0079465D01*
X0082378Y0079466D01*
X0082422Y0079463D01*
X0082466Y0079456D01*
X0082509Y0079445D01*
X0082551Y0079431D01*
X0082591Y0079413D01*
X0082630Y0079391D01*
X0082666Y0079367D01*
X0082700Y0079339D01*
X0082732Y0079308D01*
X0082761Y0079274D01*
X0082787Y0079238D01*
X0082809Y0079200D01*
X0082828Y0079160D01*
X0082843Y0079118D01*
X0082855Y0079076D01*
X0082863Y0079032D01*
X0082867Y0078988D01*
X0082867Y0078944D01*
X0082863Y0078900D01*
X0082855Y0078856D01*
X0082843Y0078814D01*
X0082828Y0078772D01*
X0082809Y0078732D01*
X0082787Y0078694D01*
X0082761Y0078658D01*
X0082732Y0078624D01*
X0082700Y0078593D01*
X0082666Y0078565D01*
X0082630Y0078541D01*
X0082591Y0078519D01*
X0082551Y0078501D01*
X0082509Y0078487D01*
X0082466Y0078476D01*
X0082422Y0078469D01*
X0082378Y0078466D01*
X0082334Y0078467D01*
X0082290Y0078472D01*
X0082247Y0078481D01*
X0082204Y0078493D01*
X0082163Y0078510D01*
X0082123Y0078529D01*
X0082086Y0078553D01*
X0082050Y0078579D01*
X0082017Y0078609D01*
X0081987Y0078641D01*
X0081960Y0078676D01*
X0081936Y0078713D01*
X0081915Y0078752D01*
X0081898Y0078793D01*
X0081885Y0078835D01*
X0081875Y0078878D01*
X0081869Y0078922D01*
X0081867Y0078966D01*
D15*
X0079418Y0076217D02*
X0079418Y0075967D01*
X0078417Y0074966D01*
X0078417Y0074716D01*
X0079418Y0074716D01*
X0079418Y0076217D02*
X0078417Y0076217D01*
X0077944Y0075466D02*
X0076943Y0075466D01*
X0077444Y0074966D02*
X0077444Y0075967D01*
X0081193Y0073216D02*
X0082194Y0073216D01*
X0081694Y0073717D02*
X0081694Y0072716D01*
X0082667Y0072466D02*
X0083668Y0073967D01*
X0082667Y0073967D02*
X0083668Y0072466D01*
X0090194Y0078716D02*
X0090194Y0079717D01*
X0090694Y0079216D02*
X0089693Y0079216D01*
X0091167Y0078466D02*
X0092168Y0079967D01*
X0091167Y0079967D02*
X0092168Y0078466D01*
X0082917Y0087716D02*
X0083418Y0088217D01*
X0083418Y0088467D01*
X0082917Y0087716D02*
X0082917Y0086966D01*
X0082917Y0087716D02*
X0082417Y0088217D01*
X0082417Y0088467D01*
X0081944Y0087716D02*
X0080943Y0087716D01*
X0081444Y0087216D02*
X0081444Y0088217D01*
X0090694Y0065217D02*
X0090694Y0064216D01*
X0090193Y0064716D02*
X0091194Y0064716D01*
X0091667Y0065217D02*
X0092167Y0064716D01*
X0092167Y0063966D01*
X0092167Y0064716D02*
X0092668Y0065217D01*
X0092668Y0065467D01*
X0091667Y0065467D02*
X0091667Y0065217D01*
X0079668Y0061717D02*
X0079668Y0061467D01*
X0078667Y0060466D01*
X0078667Y0060216D01*
X0079668Y0060216D01*
X0079668Y0061717D02*
X0078667Y0061717D01*
X0078194Y0060966D02*
X0077193Y0060966D01*
X0077694Y0060466D02*
X0077694Y0061467D01*
D16*
X0065367Y0047836D02*
X0065367Y0047596D01*
X0050367Y0047596D02*
X0050367Y0047836D01*
X0050367Y0042836D02*
X0050367Y0042596D01*
X0115367Y0097596D02*
X0115367Y0097836D01*
X0115367Y0107596D02*
X0115367Y0107836D01*
D17*
X0095918Y0121856D02*
X0094758Y0122616D01*
X0094697Y0122716D02*
X0095918Y0123636D01*
X0094697Y0124527D02*
X0094697Y0122716D01*
X0094697Y0120905D01*
X0094697Y0125905D02*
X0094697Y0127716D01*
X0095918Y0128636D01*
X0094697Y0129527D02*
X0094697Y0127716D01*
X0094758Y0127616D02*
X0095918Y0126856D01*
X0073418Y0149356D02*
X0072258Y0150116D01*
X0072197Y0150216D02*
X0073418Y0151136D01*
X0072197Y0152027D02*
X0072197Y0150216D01*
X0072197Y0148405D01*
X0085367Y0170216D02*
X0082867Y0172716D01*
X0082867Y0177716D01*
X0085367Y0180216D01*
X0090367Y0180216D01*
X0092867Y0177716D01*
X0095367Y0180216D01*
X0100367Y0180216D01*
X0102867Y0177716D01*
X0102867Y0172716D01*
X0100367Y0170216D01*
X0095367Y0170216D01*
X0092867Y0172716D01*
X0090367Y0170216D01*
X0085367Y0170216D01*
X0021036Y0119527D02*
X0021036Y0117716D01*
X0019815Y0116795D01*
X0021036Y0115905D02*
X0021036Y0117716D01*
X0020975Y0117816D02*
X0019815Y0118576D01*
X0021036Y0114527D02*
X0021036Y0112716D01*
X0019815Y0111795D01*
X0021036Y0110905D02*
X0021036Y0112716D01*
X0020975Y0112816D02*
X0019815Y0113576D01*
X0044559Y0084470D02*
X0045840Y0083189D01*
X0045628Y0081675D01*
X0047120Y0081909D02*
X0045840Y0083189D01*
X0045726Y0083217D02*
X0044369Y0082934D01*
X0052493Y0074212D02*
X0053871Y0075590D01*
X0052493Y0061220D02*
X0052493Y0059842D01*
X0053871Y0059842D01*
X0066863Y0059842D02*
X0068241Y0059842D01*
X0068241Y0061220D01*
X0068241Y0074212D02*
X0068241Y0075590D01*
X0066863Y0075590D01*
X0101548Y0070216D02*
X0101548Y0065216D01*
X0102867Y0065216D02*
X0102867Y0070216D01*
X0105367Y0072716D01*
X0120367Y0072716D01*
X0122867Y0070216D01*
X0122867Y0065216D01*
X0120367Y0062716D01*
X0105367Y0062716D01*
X0102867Y0060216D01*
X0102867Y0055216D01*
X0105367Y0052716D01*
X0120367Y0052716D01*
X0122867Y0050216D01*
X0122867Y0045216D01*
X0120367Y0042716D01*
X0105367Y0042716D01*
X0102867Y0045216D01*
X0102867Y0050216D01*
X0105367Y0052716D01*
X0105367Y0062716D02*
X0102867Y0065216D01*
X0120367Y0062716D02*
X0122867Y0060216D01*
X0122867Y0055216D01*
X0120367Y0052716D01*
D18*
X0106666Y0092480D02*
X0106666Y0112952D01*
X0094067Y0112952D02*
X0094067Y0092480D01*
X0058319Y0130747D02*
X0052414Y0130747D01*
X0052414Y0134684D01*
X0058319Y0134684D01*
X0058319Y0130747D01*
X0052335Y0125669D02*
X0048398Y0125669D01*
X0048398Y0119763D01*
X0052335Y0119763D01*
X0052335Y0125669D01*
X0048319Y0130747D02*
X0048319Y0134684D01*
X0042414Y0134684D01*
X0042414Y0130747D01*
X0048319Y0130747D01*
X0047335Y0125669D02*
X0043398Y0125669D01*
X0043398Y0119763D01*
X0047335Y0119763D01*
X0047335Y0125669D01*
X0029507Y0087716D02*
X0029509Y0087774D01*
X0029515Y0087832D01*
X0029525Y0087889D01*
X0029538Y0087946D01*
X0029556Y0088001D01*
X0029577Y0088055D01*
X0029601Y0088108D01*
X0029630Y0088159D01*
X0029661Y0088207D01*
X0029696Y0088254D01*
X0029734Y0088298D01*
X0029774Y0088339D01*
X0029818Y0088378D01*
X0029864Y0088413D01*
X0029912Y0088446D01*
X0029962Y0088475D01*
X0030015Y0088500D01*
X0030068Y0088522D01*
X0030123Y0088541D01*
X0030180Y0088555D01*
X0030237Y0088566D01*
X0030294Y0088573D01*
X0030352Y0088576D01*
X0030411Y0088575D01*
X0030468Y0088570D01*
X0030526Y0088561D01*
X0030583Y0088549D01*
X0030638Y0088532D01*
X0030693Y0088512D01*
X0030746Y0088488D01*
X0030797Y0088461D01*
X0030846Y0088430D01*
X0030893Y0088396D01*
X0030938Y0088359D01*
X0030980Y0088319D01*
X0031020Y0088276D01*
X0031056Y0088231D01*
X0031089Y0088183D01*
X0031119Y0088133D01*
X0031145Y0088082D01*
X0031168Y0088028D01*
X0031188Y0087973D01*
X0031203Y0087917D01*
X0031215Y0087861D01*
X0031223Y0087803D01*
X0031227Y0087745D01*
X0031227Y0087687D01*
X0031223Y0087629D01*
X0031215Y0087571D01*
X0031203Y0087515D01*
X0031188Y0087459D01*
X0031168Y0087404D01*
X0031145Y0087350D01*
X0031119Y0087299D01*
X0031089Y0087249D01*
X0031056Y0087201D01*
X0031020Y0087156D01*
X0030980Y0087113D01*
X0030938Y0087073D01*
X0030893Y0087036D01*
X0030846Y0087002D01*
X0030797Y0086971D01*
X0030746Y0086944D01*
X0030693Y0086920D01*
X0030638Y0086900D01*
X0030583Y0086883D01*
X0030526Y0086871D01*
X0030468Y0086862D01*
X0030411Y0086857D01*
X0030352Y0086856D01*
X0030294Y0086859D01*
X0030237Y0086866D01*
X0030180Y0086877D01*
X0030123Y0086891D01*
X0030068Y0086910D01*
X0030015Y0086932D01*
X0029962Y0086957D01*
X0029912Y0086986D01*
X0029864Y0087019D01*
X0029818Y0087054D01*
X0029774Y0087093D01*
X0029734Y0087134D01*
X0029696Y0087178D01*
X0029661Y0087225D01*
X0029630Y0087273D01*
X0029601Y0087324D01*
X0029577Y0087377D01*
X0029556Y0087431D01*
X0029538Y0087486D01*
X0029525Y0087543D01*
X0029515Y0087600D01*
X0029509Y0087658D01*
X0029507Y0087716D01*
X0030267Y0087716D02*
X0030269Y0087736D01*
X0030275Y0087754D01*
X0030284Y0087772D01*
X0030296Y0087787D01*
X0030311Y0087799D01*
X0030329Y0087808D01*
X0030347Y0087814D01*
X0030367Y0087816D01*
X0030387Y0087814D01*
X0030405Y0087808D01*
X0030423Y0087799D01*
X0030438Y0087787D01*
X0030450Y0087772D01*
X0030459Y0087754D01*
X0030465Y0087736D01*
X0030467Y0087716D01*
X0030465Y0087696D01*
X0030459Y0087678D01*
X0030450Y0087660D01*
X0030438Y0087645D01*
X0030423Y0087633D01*
X0030405Y0087624D01*
X0030387Y0087618D01*
X0030367Y0087616D01*
X0030347Y0087618D01*
X0030329Y0087624D01*
X0030311Y0087633D01*
X0030296Y0087645D01*
X0030284Y0087660D01*
X0030275Y0087678D01*
X0030269Y0087696D01*
X0030267Y0087716D01*
X0029867Y0087716D02*
X0029869Y0087760D01*
X0029875Y0087804D01*
X0029885Y0087847D01*
X0029898Y0087889D01*
X0029915Y0087930D01*
X0029936Y0087969D01*
X0029960Y0088006D01*
X0029987Y0088041D01*
X0030017Y0088073D01*
X0030050Y0088103D01*
X0030086Y0088129D01*
X0030123Y0088153D01*
X0030163Y0088172D01*
X0030204Y0088189D01*
X0030247Y0088201D01*
X0030290Y0088210D01*
X0030334Y0088215D01*
X0030378Y0088216D01*
X0030422Y0088213D01*
X0030466Y0088206D01*
X0030509Y0088195D01*
X0030551Y0088181D01*
X0030591Y0088163D01*
X0030630Y0088141D01*
X0030666Y0088117D01*
X0030700Y0088089D01*
X0030732Y0088058D01*
X0030761Y0088024D01*
X0030787Y0087988D01*
X0030809Y0087950D01*
X0030828Y0087910D01*
X0030843Y0087868D01*
X0030855Y0087826D01*
X0030863Y0087782D01*
X0030867Y0087738D01*
X0030867Y0087694D01*
X0030863Y0087650D01*
X0030855Y0087606D01*
X0030843Y0087564D01*
X0030828Y0087522D01*
X0030809Y0087482D01*
X0030787Y0087444D01*
X0030761Y0087408D01*
X0030732Y0087374D01*
X0030700Y0087343D01*
X0030666Y0087315D01*
X0030630Y0087291D01*
X0030591Y0087269D01*
X0030551Y0087251D01*
X0030509Y0087237D01*
X0030466Y0087226D01*
X0030422Y0087219D01*
X0030378Y0087216D01*
X0030334Y0087217D01*
X0030290Y0087222D01*
X0030247Y0087231D01*
X0030204Y0087243D01*
X0030163Y0087260D01*
X0030123Y0087279D01*
X0030086Y0087303D01*
X0030050Y0087329D01*
X0030017Y0087359D01*
X0029987Y0087391D01*
X0029960Y0087426D01*
X0029936Y0087463D01*
X0029915Y0087502D01*
X0029898Y0087543D01*
X0029885Y0087585D01*
X0029875Y0087628D01*
X0029869Y0087672D01*
X0029867Y0087716D01*
D19*
X0080367Y0047716D03*
X0080367Y0042716D03*
X0110367Y0122716D03*
X0110367Y0127716D03*
X0085367Y0150216D03*
X0085367Y0155216D03*
X0085367Y0160216D03*
D20*
X0020367Y0102716D03*
X0010367Y0102716D03*
X0040367Y0067716D03*
D21*
X0053367Y0103116D02*
X0053367Y0107116D01*
X0063067Y0113916D02*
X0064167Y0113916D01*
X0064167Y0115016D01*
X0070867Y0126716D02*
X0074867Y0126716D01*
X0064167Y0140416D02*
X0064167Y0141516D01*
X0063067Y0141516D01*
X0055367Y0148116D02*
X0055367Y0152116D01*
X0039867Y0139816D02*
X0038267Y0138216D01*
X0036567Y0140416D02*
X0036567Y0141516D01*
X0037667Y0141516D01*
X0029767Y0120816D02*
X0025767Y0120816D01*
X0036567Y0115016D02*
X0036567Y0113916D01*
X0037667Y0113916D01*
D22*
X0118213Y0159080D02*
X0119231Y0158062D01*
X0120715Y0159273D01*
X0121313Y0158965D01*
X0122160Y0161011D01*
X0121782Y0161223D01*
X0121463Y0161517D01*
X0121222Y0161878D01*
X0121072Y0162285D01*
X0121021Y0162716D01*
X0121074Y0163154D01*
X0121230Y0163568D01*
X0121479Y0163932D01*
X0121808Y0164227D01*
X0122198Y0164435D01*
X0122626Y0164545D01*
X0123067Y0164550D01*
X0123498Y0164450D01*
X0123892Y0164250D01*
X0124227Y0163962D01*
X0124484Y0163603D01*
X0124649Y0163193D01*
X0124711Y0162756D01*
X0124668Y0162316D01*
X0124522Y0161900D01*
X0124280Y0161530D01*
X0123958Y0161227D01*
X0123573Y0161011D01*
X0124421Y0158965D01*
X0125018Y0159273D01*
X0126502Y0158062D01*
X0127520Y0159080D01*
X0126310Y0160564D01*
X0126618Y0161162D01*
X0126823Y0161802D01*
X0128728Y0161996D01*
X0128728Y0163436D01*
X0126823Y0163629D01*
X0126618Y0164270D01*
X0126310Y0164867D01*
X0127520Y0166352D01*
X0126502Y0167369D01*
X0125018Y0166159D01*
X0124420Y0166467D01*
X0123780Y0166672D01*
X0123586Y0168577D01*
X0122147Y0168577D01*
X0121953Y0166672D01*
X0121313Y0166467D01*
X0120715Y0166159D01*
X0119231Y0167369D01*
X0118213Y0166352D01*
X0119423Y0164867D01*
X0119115Y0164270D01*
X0118910Y0163629D01*
X0117005Y0163436D01*
X0117005Y0161996D01*
X0118910Y0161802D01*
X0119115Y0161162D01*
X0119423Y0160564D01*
X0118213Y0159080D01*
X0118230Y0159063D02*
X0120458Y0159063D01*
X0121122Y0159063D02*
X0121353Y0159063D01*
X0121597Y0159652D02*
X0118679Y0159652D01*
X0119160Y0160241D02*
X0121841Y0160241D01*
X0122085Y0160830D02*
X0119287Y0160830D01*
X0119033Y0161419D02*
X0121569Y0161419D01*
X0121174Y0162008D02*
X0117005Y0162008D01*
X0117005Y0162597D02*
X0121035Y0162597D01*
X0121086Y0163186D02*
X0117005Y0163186D01*
X0118957Y0163775D02*
X0121372Y0163775D01*
X0122065Y0164364D02*
X0119164Y0164364D01*
X0119353Y0164953D02*
X0126380Y0164953D01*
X0126569Y0164364D02*
X0123666Y0164364D01*
X0124361Y0163775D02*
X0126776Y0163775D01*
X0126860Y0165542D02*
X0118873Y0165542D01*
X0118393Y0166131D02*
X0127341Y0166131D01*
X0127151Y0166721D02*
X0125707Y0166721D01*
X0126429Y0167310D02*
X0126562Y0167310D01*
X0123715Y0167310D02*
X0122018Y0167310D01*
X0122078Y0167899D02*
X0123655Y0167899D01*
X0123595Y0168488D02*
X0122138Y0168488D01*
X0121958Y0166721D02*
X0123775Y0166721D01*
X0124650Y0163186D02*
X0128728Y0163186D01*
X0128728Y0162597D02*
X0124696Y0162597D01*
X0124560Y0162008D02*
X0128728Y0162008D01*
X0126700Y0161419D02*
X0124162Y0161419D01*
X0123648Y0160830D02*
X0126447Y0160830D01*
X0126574Y0160241D02*
X0123892Y0160241D01*
X0124136Y0159652D02*
X0127054Y0159652D01*
X0127503Y0159063D02*
X0125276Y0159063D01*
X0124611Y0159063D02*
X0124380Y0159063D01*
X0125998Y0158474D02*
X0126914Y0158474D01*
X0119735Y0158474D02*
X0118819Y0158474D01*
X0118582Y0166721D02*
X0120027Y0166721D01*
X0119304Y0167310D02*
X0119171Y0167310D01*
M02*
