G75*
%MOIN*%
%OFA0B0*%
%FSLAX25Y25*%
%IPPOS*%
%LPD*%
%AMOC8*
5,1,8,0,0,1.08239X$1,22.5*
%
%ADD10R,0.03937X0.04331*%
%ADD11R,0.04331X0.03937*%
%ADD12R,0.04799X0.08799*%
%ADD13R,0.14173X0.08661*%
%ADD14C,0.07400*%
%ADD15OC8,0.07400*%
%ADD16R,0.05709X0.01575*%
%ADD17R,0.05906X0.07087*%
%ADD18R,0.05906X0.09843*%
%ADD19R,0.06102X0.05118*%
%ADD20C,0.03400*%
%ADD21C,0.01000*%
%ADD22C,0.03200*%
D10*
X0015367Y0076869D03*
X0015367Y0083562D03*
X0030367Y0083562D03*
X0030367Y0076869D03*
X0030367Y0104369D03*
X0035367Y0104369D03*
X0040367Y0104369D03*
X0045367Y0104369D03*
X0050367Y0104369D03*
X0055367Y0104369D03*
X0060367Y0104369D03*
X0065367Y0104369D03*
X0070367Y0104369D03*
X0070367Y0111062D03*
X0065367Y0111062D03*
X0060367Y0111062D03*
X0055367Y0111062D03*
X0050367Y0111062D03*
X0045367Y0111062D03*
X0040367Y0111062D03*
X0035367Y0111062D03*
X0030367Y0111062D03*
X0035367Y0144369D03*
X0040367Y0144369D03*
X0040367Y0151062D03*
X0035367Y0151062D03*
X0055367Y0151062D03*
X0055367Y0144369D03*
X0082867Y0111062D03*
X0082867Y0104369D03*
X0090367Y0104369D03*
X0090367Y0111062D03*
X0127867Y0058562D03*
X0127867Y0051869D03*
D11*
G36*
X0100372Y0072428D02*
X0097311Y0075489D01*
X0100094Y0078272D01*
X0103155Y0075211D01*
X0100372Y0072428D01*
G37*
G36*
X0094362Y0071504D02*
X0097423Y0068443D01*
X0094640Y0065660D01*
X0091579Y0068721D01*
X0094362Y0071504D01*
G37*
G36*
X0089629Y0076236D02*
X0092690Y0073175D01*
X0089907Y0070392D01*
X0086846Y0073453D01*
X0089629Y0076236D01*
G37*
G36*
X0095639Y0077160D02*
X0092578Y0080221D01*
X0095361Y0083004D01*
X0098422Y0079943D01*
X0095639Y0077160D01*
G37*
X0073713Y0137716D03*
X0067020Y0137716D03*
X0033713Y0127716D03*
X0027020Y0127716D03*
D12*
X0022867Y0067417D03*
X0031965Y0067417D03*
X0013768Y0067417D03*
D13*
X0022867Y0043015D03*
D14*
X0087167Y0175216D03*
X0098567Y0175216D03*
D15*
X0107867Y0067716D03*
X0107867Y0057716D03*
X0117867Y0057716D03*
X0117867Y0067716D03*
X0117867Y0047716D03*
X0107867Y0047716D03*
D16*
X0117138Y0157598D03*
X0117138Y0160157D03*
X0117138Y0162716D03*
X0117138Y0165275D03*
X0117138Y0167834D03*
D17*
X0127867Y0177224D03*
X0127867Y0148208D03*
D18*
X0127867Y0162716D03*
D19*
X0133516Y0136574D03*
X0133516Y0118858D03*
X0133516Y0109074D03*
X0133516Y0091358D03*
X0102217Y0091358D03*
X0102217Y0109074D03*
X0102217Y0118858D03*
X0102217Y0136574D03*
D20*
X0097867Y0150216D03*
X0097867Y0155216D03*
X0097867Y0160216D03*
X0105367Y0165216D03*
X0110367Y0155216D03*
X0080367Y0137716D03*
X0060367Y0137716D03*
X0055367Y0122716D03*
X0040367Y0117716D03*
X0040367Y0137716D03*
X0025367Y0132716D03*
X0020367Y0122716D03*
X0035367Y0097716D03*
X0040367Y0097716D03*
X0040367Y0087716D03*
X0050367Y0092716D03*
X0055367Y0092716D03*
X0055367Y0082716D03*
X0065367Y0092716D03*
X0070367Y0097716D03*
X0077867Y0100216D03*
X0075367Y0077716D03*
X0070367Y0052716D03*
X0095367Y0037716D03*
X0115367Y0117716D03*
X0055367Y0157716D03*
X0050367Y0157716D03*
X0045367Y0165216D03*
X0040367Y0157716D03*
X0022867Y0080216D03*
D21*
X0005367Y0037928D02*
X0013079Y0030216D01*
X0055367Y0030216D01*
X0055367Y0035216D01*
X0052867Y0035216D01*
X0037867Y0050216D01*
X0037867Y0060216D01*
X0027867Y0060216D01*
X0027867Y0062312D01*
X0027865Y0062313D01*
X0027865Y0066849D01*
X0027569Y0067146D01*
X0027067Y0068359D01*
X0027067Y0072716D01*
X0026479Y0072716D01*
X0026664Y0072395D01*
X0026766Y0072014D01*
X0026766Y0067917D01*
X0023367Y0067917D01*
X0022367Y0067917D01*
X0022367Y0073316D01*
X0020367Y0073316D01*
X0020367Y0077716D01*
X0025367Y0077716D01*
X0025367Y0073316D01*
X0023367Y0073316D01*
X0023367Y0067917D01*
X0023367Y0066917D01*
X0026766Y0066917D01*
X0026766Y0062820D01*
X0026664Y0062438D01*
X0026467Y0062096D01*
X0026187Y0061817D01*
X0025845Y0061619D01*
X0025464Y0061517D01*
X0023367Y0061517D01*
X0023367Y0066917D01*
X0022367Y0066917D01*
X0018967Y0066917D01*
X0018967Y0062820D01*
X0019069Y0062438D01*
X0019267Y0062096D01*
X0019546Y0061817D01*
X0019888Y0061619D01*
X0020270Y0061517D01*
X0022367Y0061517D01*
X0022367Y0066917D01*
X0022367Y0067917D01*
X0018967Y0067917D01*
X0018967Y0072014D01*
X0019069Y0072395D01*
X0019254Y0072716D01*
X0017867Y0072716D01*
X0017867Y0072522D01*
X0017868Y0072520D01*
X0017868Y0062313D01*
X0017867Y0062312D01*
X0017867Y0060216D01*
X0005367Y0060216D01*
X0005367Y0037928D01*
X0005579Y0037716D02*
X0010167Y0037716D01*
X0010167Y0038253D02*
X0010167Y0037179D01*
X0010578Y0036186D01*
X0011337Y0035427D01*
X0012330Y0035016D01*
X0013404Y0035016D01*
X0014396Y0035427D01*
X0015156Y0036186D01*
X0015567Y0037179D01*
X0015567Y0037189D01*
X0015583Y0037184D01*
X0022367Y0037184D01*
X0022367Y0042515D01*
X0023367Y0042515D01*
X0023367Y0043515D01*
X0031453Y0043515D01*
X0031453Y0047543D01*
X0031351Y0047925D01*
X0031154Y0048267D01*
X0030874Y0048546D01*
X0030532Y0048744D01*
X0030151Y0048846D01*
X0023367Y0048846D01*
X0023367Y0043515D01*
X0022367Y0043515D01*
X0022367Y0048846D01*
X0015583Y0048846D01*
X0015201Y0048744D01*
X0014859Y0048546D01*
X0014580Y0048267D01*
X0014382Y0047925D01*
X0014280Y0047543D01*
X0014280Y0043515D01*
X0022367Y0043515D01*
X0022367Y0042515D01*
X0014280Y0042515D01*
X0014280Y0040053D01*
X0013404Y0040416D01*
X0012330Y0040416D01*
X0011337Y0040005D01*
X0010578Y0039245D01*
X0010167Y0038253D01*
X0010358Y0038714D02*
X0005367Y0038714D01*
X0005367Y0039713D02*
X0011045Y0039713D01*
X0010358Y0036717D02*
X0006577Y0036717D01*
X0007576Y0035719D02*
X0011045Y0035719D01*
X0009573Y0033722D02*
X0055367Y0033722D01*
X0055367Y0034720D02*
X0008574Y0034720D01*
X0010571Y0032723D02*
X0055367Y0032723D01*
X0055367Y0032716D02*
X0022867Y0065216D01*
X0022867Y0067417D01*
X0022867Y0080216D01*
X0022867Y0082716D01*
X0022020Y0083562D01*
X0015367Y0083562D01*
X0010498Y0080820D02*
X0010940Y0079754D01*
X0011755Y0078938D01*
X0011898Y0078879D01*
X0011898Y0077354D01*
X0014882Y0077354D01*
X0014882Y0076385D01*
X0011898Y0076385D01*
X0011898Y0074507D01*
X0012000Y0074125D01*
X0012198Y0073783D01*
X0012477Y0073504D01*
X0012802Y0073316D01*
X0011171Y0073316D01*
X0010790Y0073214D01*
X0010448Y0073017D01*
X0010168Y0072737D01*
X0009971Y0072395D01*
X0009869Y0072014D01*
X0009869Y0067917D01*
X0013268Y0067917D01*
X0013268Y0066917D01*
X0009869Y0066917D01*
X0009869Y0063616D01*
X0005767Y0063616D01*
X0005767Y0165001D01*
X0005767Y0063616D01*
X0005767Y0064916D02*
X0009869Y0064916D01*
X0008967Y0063616D02*
X0008967Y0159074D01*
X0008384Y0159316D02*
X0005767Y0159316D01*
X0005767Y0160916D02*
X0006891Y0160916D01*
X0007060Y0160507D02*
X0006467Y0161940D01*
X0006467Y0163492D01*
X0007060Y0164925D01*
X0008157Y0166022D01*
X0009591Y0166616D01*
X0011142Y0166616D01*
X0011696Y0166387D01*
X0011467Y0166940D01*
X0011467Y0168492D01*
X0012060Y0169925D01*
X0013157Y0171022D01*
X0014591Y0171616D01*
X0016142Y0171616D01*
X0017576Y0171022D01*
X0018673Y0169925D01*
X0019267Y0168492D01*
X0019267Y0166940D01*
X0018673Y0165507D01*
X0017576Y0164410D01*
X0016142Y0163816D01*
X0014591Y0163816D01*
X0014037Y0164045D01*
X0014267Y0163492D01*
X0014267Y0161940D01*
X0013673Y0160507D01*
X0012576Y0159410D01*
X0011142Y0158816D01*
X0009591Y0158816D01*
X0008157Y0159410D01*
X0007060Y0160507D01*
X0007367Y0160200D02*
X0007367Y0063616D01*
X0005767Y0066516D02*
X0009869Y0066516D01*
X0010567Y0066917D02*
X0010567Y0067917D01*
X0009869Y0068116D02*
X0005767Y0068116D01*
X0005767Y0069716D02*
X0009869Y0069716D01*
X0009869Y0071316D02*
X0005767Y0071316D01*
X0005767Y0072916D02*
X0010347Y0072916D01*
X0010567Y0073085D02*
X0010567Y0080655D01*
X0010498Y0080820D02*
X0010498Y0086304D01*
X0010940Y0087370D01*
X0011755Y0088186D01*
X0012821Y0088628D01*
X0017912Y0088628D01*
X0018978Y0088186D01*
X0019794Y0087370D01*
X0019963Y0086962D01*
X0022697Y0086962D01*
X0023946Y0086445D01*
X0024793Y0085598D01*
X0025749Y0084642D01*
X0026267Y0083392D01*
X0026267Y0083321D01*
X0026766Y0082822D01*
X0026898Y0082503D01*
X0026898Y0083078D01*
X0029882Y0083078D01*
X0029882Y0084047D01*
X0029882Y0087228D01*
X0028201Y0087228D01*
X0027819Y0087125D01*
X0027477Y0086928D01*
X0027198Y0086649D01*
X0027000Y0086307D01*
X0026898Y0085925D01*
X0026898Y0084047D01*
X0029882Y0084047D01*
X0030851Y0084047D01*
X0030851Y0087228D01*
X0031047Y0087228D01*
X0018441Y0099833D01*
X0017484Y0100790D01*
X0016967Y0102040D01*
X0016967Y0088628D01*
X0018567Y0088356D02*
X0018567Y0099708D01*
X0018158Y0100116D02*
X0005767Y0100116D01*
X0005767Y0101716D02*
X0017101Y0101716D01*
X0016967Y0102040D02*
X0016967Y0119610D01*
X0016467Y0120110D01*
X0015767Y0121801D01*
X0015767Y0123631D01*
X0016467Y0125322D01*
X0017761Y0126616D01*
X0019452Y0127316D01*
X0021282Y0127316D01*
X0021955Y0127037D01*
X0021955Y0129622D01*
X0021467Y0130110D01*
X0020767Y0131801D01*
X0020767Y0133631D01*
X0021467Y0135322D01*
X0022761Y0136616D01*
X0024452Y0137316D01*
X0026282Y0137316D01*
X0027972Y0136616D01*
X0029266Y0135322D01*
X0029967Y0133631D01*
X0029967Y0132834D01*
X0030134Y0132431D01*
X0030828Y0132143D01*
X0031644Y0131327D01*
X0031703Y0131184D01*
X0033229Y0131184D01*
X0033229Y0128200D01*
X0034197Y0128200D01*
X0034197Y0131184D01*
X0036076Y0131184D01*
X0036457Y0131082D01*
X0036799Y0130885D01*
X0037079Y0130605D01*
X0037276Y0130263D01*
X0037378Y0129882D01*
X0037378Y0128200D01*
X0034197Y0128200D01*
X0034197Y0127232D01*
X0037378Y0127232D01*
X0037378Y0125550D01*
X0037276Y0125168D01*
X0037079Y0124826D01*
X0036799Y0124547D01*
X0036457Y0124350D01*
X0036076Y0124247D01*
X0034197Y0124247D01*
X0034197Y0127231D01*
X0033229Y0127231D01*
X0033229Y0124247D01*
X0031703Y0124247D01*
X0031644Y0124105D01*
X0030828Y0123289D01*
X0029762Y0122847D01*
X0024967Y0122847D01*
X0024967Y0102924D01*
X0024575Y0103316D02*
X0025498Y0103316D01*
X0025498Y0102393D02*
X0023767Y0104124D01*
X0023767Y0119610D01*
X0024266Y0120110D01*
X0024967Y0121801D01*
X0024967Y0122847D01*
X0024967Y0122516D02*
X0096482Y0122516D01*
X0096266Y0121993D02*
X0096707Y0123059D01*
X0096967Y0123319D01*
X0096967Y0123808D01*
X0089984Y0130790D01*
X0089467Y0132040D01*
X0089467Y0133808D01*
X0084967Y0138308D01*
X0084967Y0136801D01*
X0084266Y0135110D01*
X0082972Y0133816D01*
X0081282Y0133116D01*
X0079452Y0133116D01*
X0077964Y0133732D01*
X0077521Y0133289D01*
X0076455Y0132847D01*
X0070971Y0132847D01*
X0069905Y0133289D01*
X0069089Y0134105D01*
X0069030Y0134247D01*
X0067504Y0134247D01*
X0067504Y0137231D01*
X0066536Y0137231D01*
X0066536Y0134247D01*
X0064657Y0134247D01*
X0064276Y0134350D01*
X0063934Y0134547D01*
X0063655Y0134826D01*
X0063457Y0135168D01*
X0063355Y0135550D01*
X0063355Y0137232D01*
X0066536Y0137232D01*
X0066536Y0138200D01*
X0063355Y0138200D01*
X0063355Y0139882D01*
X0063457Y0140263D01*
X0063655Y0140605D01*
X0063934Y0140885D01*
X0064276Y0141082D01*
X0064657Y0141184D01*
X0066536Y0141184D01*
X0066536Y0138200D01*
X0067504Y0138200D01*
X0067504Y0140770D01*
X0067484Y0140790D01*
X0067484Y0140790D01*
X0060941Y0147333D01*
X0060941Y0147333D01*
X0060153Y0148121D01*
X0059794Y0147254D01*
X0058978Y0146438D01*
X0058835Y0146379D01*
X0058835Y0144854D01*
X0055851Y0144854D01*
X0055851Y0143885D01*
X0055851Y0140704D01*
X0057533Y0140704D01*
X0057914Y0140806D01*
X0058256Y0141004D01*
X0058535Y0141283D01*
X0058733Y0141625D01*
X0058835Y0142007D01*
X0058835Y0143885D01*
X0055851Y0143885D01*
X0054882Y0143885D01*
X0051898Y0143885D01*
X0051898Y0142007D01*
X0052000Y0141625D01*
X0052198Y0141283D01*
X0052477Y0141004D01*
X0052819Y0140806D01*
X0053201Y0140704D01*
X0054882Y0140704D01*
X0054882Y0143885D01*
X0054882Y0144854D01*
X0051898Y0144854D01*
X0051898Y0146379D01*
X0051755Y0146438D01*
X0050940Y0147254D01*
X0050498Y0148320D01*
X0050498Y0153116D01*
X0049452Y0153116D01*
X0047761Y0153816D01*
X0047261Y0154316D01*
X0046775Y0154316D01*
X0045235Y0152776D01*
X0045235Y0148320D01*
X0044794Y0147254D01*
X0043978Y0146438D01*
X0043835Y0146379D01*
X0043835Y0144854D01*
X0040851Y0144854D01*
X0040851Y0143885D01*
X0040851Y0140704D01*
X0042533Y0140704D01*
X0042914Y0140806D01*
X0043256Y0141004D01*
X0043535Y0141283D01*
X0043733Y0141625D01*
X0043835Y0142007D01*
X0043835Y0143885D01*
X0040851Y0143885D01*
X0039882Y0143885D01*
X0035851Y0143885D01*
X0035851Y0140704D01*
X0037533Y0140704D01*
X0037867Y0140794D01*
X0038201Y0140704D01*
X0039882Y0140704D01*
X0039882Y0143885D01*
X0039882Y0144854D01*
X0038835Y0144854D01*
X0035851Y0144854D01*
X0035851Y0143885D01*
X0034882Y0143885D01*
X0031898Y0143885D01*
X0031898Y0142007D01*
X0032000Y0141625D01*
X0032198Y0141283D01*
X0032477Y0141004D01*
X0032819Y0140806D01*
X0033201Y0140704D01*
X0034882Y0140704D01*
X0034882Y0143885D01*
X0034882Y0144854D01*
X0031898Y0144854D01*
X0031898Y0146379D01*
X0031755Y0146438D01*
X0030940Y0147254D01*
X0030498Y0148320D01*
X0030498Y0153804D01*
X0030940Y0154870D01*
X0031755Y0155686D01*
X0031967Y0155774D01*
X0031967Y0158392D01*
X0032484Y0159642D01*
X0033441Y0160598D01*
X0034690Y0161116D01*
X0037261Y0161116D01*
X0037761Y0161616D01*
X0039452Y0162316D01*
X0041282Y0162316D01*
X0042100Y0161977D01*
X0041467Y0162610D01*
X0040767Y0164301D01*
X0040767Y0166131D01*
X0041467Y0167822D01*
X0042761Y0169116D01*
X0044452Y0169816D01*
X0046282Y0169816D01*
X0047972Y0169116D01*
X0048472Y0168616D01*
X0061043Y0168616D01*
X0062293Y0168098D01*
X0064793Y0165598D01*
X0065749Y0164642D01*
X0066267Y0163392D01*
X0066267Y0151624D01*
X0071775Y0146116D01*
X0086043Y0146116D01*
X0087293Y0145598D01*
X0091976Y0140915D01*
X0092484Y0142142D01*
X0094984Y0144642D01*
X0095941Y0145598D01*
X0096467Y0145816D01*
X0095261Y0146316D01*
X0093967Y0147610D01*
X0093267Y0149301D01*
X0093267Y0151131D01*
X0093923Y0152716D01*
X0093267Y0154301D01*
X0093267Y0156131D01*
X0093923Y0157716D01*
X0066267Y0157716D01*
X0066267Y0159316D02*
X0093267Y0159316D01*
X0093267Y0159301D02*
X0093923Y0157716D01*
X0093767Y0157338D02*
X0093767Y0158094D01*
X0093267Y0159301D02*
X0093267Y0161131D01*
X0093967Y0162822D01*
X0095261Y0164116D01*
X0096952Y0164816D01*
X0098782Y0164816D01*
X0100472Y0164116D01*
X0100843Y0164116D01*
X0100767Y0164301D02*
X0101050Y0163616D01*
X0100972Y0163616D01*
X0100472Y0164116D01*
X0100167Y0164242D02*
X0100167Y0168735D01*
X0099879Y0168616D02*
X0102305Y0169621D01*
X0104162Y0171477D01*
X0105167Y0173903D01*
X0105167Y0176529D01*
X0104162Y0178954D01*
X0102305Y0180811D01*
X0099879Y0181816D01*
X0097254Y0181816D01*
X0094828Y0180811D01*
X0092971Y0178954D01*
X0092102Y0176855D01*
X0091986Y0177212D01*
X0091614Y0177941D01*
X0091133Y0178603D01*
X0090554Y0179182D01*
X0089892Y0179663D01*
X0089163Y0180035D01*
X0088384Y0180288D01*
X0087667Y0180401D01*
X0087667Y0175716D01*
X0086667Y0175716D01*
X0086667Y0180401D01*
X0085949Y0180288D01*
X0085171Y0180035D01*
X0084441Y0179663D01*
X0083779Y0179182D01*
X0083200Y0178603D01*
X0082719Y0177941D01*
X0082348Y0177212D01*
X0082095Y0176434D01*
X0081981Y0175716D01*
X0086667Y0175716D01*
X0086667Y0174716D01*
X0087667Y0174716D01*
X0087667Y0170030D01*
X0088384Y0170144D01*
X0089163Y0170397D01*
X0089892Y0170768D01*
X0090554Y0171249D01*
X0091133Y0171828D01*
X0091614Y0172490D01*
X0091986Y0173220D01*
X0092102Y0173577D01*
X0092971Y0171477D01*
X0094828Y0169621D01*
X0097254Y0168616D01*
X0099879Y0168616D01*
X0100604Y0168916D02*
X0102561Y0168916D01*
X0102761Y0169116D02*
X0101467Y0167822D01*
X0100767Y0166131D01*
X0100767Y0164301D01*
X0100767Y0165716D02*
X0064675Y0165716D01*
X0064967Y0165424D02*
X0064967Y0172316D01*
X0066567Y0172316D02*
X0066567Y0151324D01*
X0066575Y0151316D02*
X0093343Y0151316D01*
X0093767Y0152338D02*
X0093767Y0153094D01*
X0093840Y0152916D02*
X0066267Y0152916D01*
X0066267Y0154516D02*
X0093267Y0154516D01*
X0093267Y0156116D02*
X0066267Y0156116D01*
X0066267Y0160916D02*
X0093267Y0160916D01*
X0093767Y0162338D02*
X0093767Y0170682D01*
X0093933Y0170516D02*
X0089396Y0170516D01*
X0088967Y0170333D02*
X0088967Y0143924D01*
X0089575Y0143316D02*
X0093658Y0143316D01*
X0093767Y0143424D02*
X0093767Y0148094D01*
X0093757Y0148116D02*
X0069775Y0148116D01*
X0069767Y0148124D02*
X0069767Y0173015D01*
X0069509Y0172757D02*
X0070325Y0173573D01*
X0072825Y0176073D01*
X0073267Y0177139D01*
X0073267Y0181515D01*
X0074068Y0182316D01*
X0127652Y0182316D01*
X0128367Y0181601D01*
X0128367Y0177724D01*
X0132244Y0177724D01*
X0134967Y0175001D01*
X0134967Y0142033D01*
X0129888Y0142033D01*
X0128822Y0141592D01*
X0128007Y0140776D01*
X0127565Y0139710D01*
X0127565Y0133438D01*
X0127998Y0132393D01*
X0127293Y0133098D01*
X0114793Y0145598D01*
X0113543Y0146116D01*
X0103767Y0146116D01*
X0103767Y0148392D01*
X0103249Y0149642D01*
X0102467Y0150424D01*
X0102467Y0151131D01*
X0102183Y0151816D01*
X0106043Y0151816D01*
X0106904Y0152173D01*
X0107761Y0151316D01*
X0109452Y0150616D01*
X0111282Y0150616D01*
X0112972Y0151316D01*
X0114266Y0152610D01*
X0114805Y0153909D01*
X0115328Y0152645D01*
X0116615Y0151359D01*
X0118296Y0150662D01*
X0120115Y0150662D01*
X0121796Y0151359D01*
X0123082Y0152645D01*
X0123778Y0154326D01*
X0123778Y0156145D01*
X0123082Y0157826D01*
X0122665Y0158243D01*
X0122893Y0158793D01*
X0122893Y0167416D01*
X0123082Y0167606D01*
X0123778Y0169286D01*
X0123778Y0171106D01*
X0123082Y0172787D01*
X0121796Y0174073D01*
X0120115Y0174769D01*
X0118296Y0174769D01*
X0116615Y0174073D01*
X0115328Y0172787D01*
X0114804Y0171521D01*
X0113707Y0171521D01*
X0113013Y0171234D01*
X0107308Y0171234D01*
X0106059Y0170716D01*
X0105158Y0169816D01*
X0104452Y0169816D01*
X0102761Y0169116D01*
X0103367Y0169366D02*
X0103367Y0170682D01*
X0103200Y0170516D02*
X0105858Y0170516D01*
X0106567Y0170927D02*
X0106567Y0182316D01*
X0108167Y0182316D02*
X0108167Y0171234D01*
X0109767Y0171234D02*
X0109767Y0182316D01*
X0111367Y0182316D02*
X0111367Y0171234D01*
X0110367Y0170216D02*
X0087867Y0170216D01*
X0087167Y0170916D01*
X0087167Y0175216D01*
X0086667Y0175316D02*
X0072068Y0175316D01*
X0071367Y0174615D02*
X0071367Y0146524D01*
X0071375Y0146516D02*
X0095061Y0146516D01*
X0095367Y0146272D02*
X0095367Y0145024D01*
X0095258Y0144916D02*
X0087975Y0144916D01*
X0087367Y0145524D02*
X0087367Y0174716D01*
X0086667Y0174716D02*
X0086667Y0170030D01*
X0085949Y0170144D01*
X0085171Y0170397D01*
X0084441Y0170768D01*
X0083779Y0171249D01*
X0083200Y0171828D01*
X0082719Y0172490D01*
X0082348Y0173220D01*
X0082095Y0173998D01*
X0081981Y0174716D01*
X0086667Y0174716D01*
X0085767Y0174716D02*
X0085767Y0175716D01*
X0086667Y0176916D02*
X0087667Y0176916D01*
X0087367Y0175716D02*
X0087367Y0182316D01*
X0088967Y0182316D02*
X0088967Y0180099D01*
X0088914Y0180116D02*
X0094133Y0180116D01*
X0093767Y0179750D02*
X0093767Y0182316D01*
X0092167Y0182316D02*
X0092167Y0177011D01*
X0092127Y0176916D02*
X0092082Y0176916D01*
X0092790Y0178516D02*
X0091197Y0178516D01*
X0090567Y0179170D02*
X0090567Y0182316D01*
X0087667Y0180116D02*
X0086667Y0180116D01*
X0085767Y0180229D02*
X0085767Y0182316D01*
X0084167Y0182316D02*
X0084167Y0179464D01*
X0083137Y0178516D02*
X0073267Y0178516D01*
X0073267Y0180116D02*
X0085420Y0180116D01*
X0086667Y0178516D02*
X0087667Y0178516D01*
X0084167Y0175716D02*
X0084167Y0174716D01*
X0082567Y0174716D02*
X0082567Y0175716D01*
X0082251Y0176916D02*
X0073174Y0176916D01*
X0072967Y0176415D02*
X0072967Y0146116D01*
X0074567Y0146116D02*
X0074567Y0182316D01*
X0073468Y0181716D02*
X0097012Y0181716D01*
X0096967Y0181697D02*
X0096967Y0182316D01*
X0098567Y0182316D02*
X0098567Y0181816D01*
X0100121Y0181716D02*
X0123741Y0181716D01*
X0123714Y0181688D02*
X0123993Y0181967D01*
X0124335Y0182165D01*
X0124716Y0182267D01*
X0127367Y0182267D01*
X0127367Y0177724D01*
X0128367Y0177724D01*
X0128367Y0176724D01*
X0132319Y0176724D01*
X0132319Y0173483D01*
X0132217Y0173101D01*
X0132020Y0172759D01*
X0131740Y0172480D01*
X0131398Y0172283D01*
X0131017Y0172180D01*
X0128367Y0172180D01*
X0128367Y0176724D01*
X0127367Y0176724D01*
X0127367Y0172180D01*
X0124716Y0172180D01*
X0124335Y0172283D01*
X0123993Y0172480D01*
X0123714Y0172759D01*
X0123516Y0173101D01*
X0123414Y0173483D01*
X0123414Y0176724D01*
X0127367Y0176724D01*
X0127367Y0177724D01*
X0123414Y0177724D01*
X0123414Y0180964D01*
X0123516Y0181346D01*
X0123714Y0181688D01*
X0124167Y0182068D02*
X0124167Y0182316D01*
X0125767Y0182267D02*
X0125767Y0182316D01*
X0127367Y0182267D02*
X0127367Y0182316D01*
X0127367Y0181716D02*
X0128252Y0181716D01*
X0128367Y0180116D02*
X0127367Y0180116D01*
X0127367Y0178516D02*
X0128367Y0178516D01*
X0127867Y0177716D02*
X0117867Y0177716D01*
X0110367Y0170216D01*
X0107985Y0167834D02*
X0105367Y0165216D01*
X0107985Y0167834D02*
X0117138Y0167834D01*
X0117138Y0165275D02*
X0117079Y0165216D01*
X0110367Y0165216D01*
X0105367Y0160216D01*
X0097867Y0160216D01*
X0093840Y0162516D02*
X0066267Y0162516D01*
X0065967Y0164116D02*
X0095262Y0164116D01*
X0095367Y0164159D02*
X0095367Y0169398D01*
X0096530Y0168916D02*
X0048172Y0168916D01*
X0048967Y0168616D02*
X0048967Y0172316D01*
X0050567Y0172316D02*
X0050567Y0168616D01*
X0052167Y0168616D02*
X0052167Y0172316D01*
X0053767Y0172316D02*
X0053767Y0168616D01*
X0055367Y0168616D02*
X0055367Y0172316D01*
X0056967Y0172316D02*
X0056967Y0168616D01*
X0058567Y0168616D02*
X0058567Y0172316D01*
X0060167Y0172316D02*
X0060167Y0168616D01*
X0061767Y0168316D02*
X0061767Y0172316D01*
X0063367Y0172316D02*
X0063367Y0167024D01*
X0063075Y0167316D02*
X0101258Y0167316D01*
X0101767Y0168121D02*
X0101767Y0169398D01*
X0104426Y0172116D02*
X0115050Y0172116D01*
X0114567Y0171521D02*
X0114567Y0182316D01*
X0116167Y0182316D02*
X0116167Y0173625D01*
X0116257Y0173716D02*
X0105089Y0173716D01*
X0104967Y0173420D02*
X0104967Y0169816D01*
X0105167Y0175316D02*
X0123414Y0175316D01*
X0124167Y0176724D02*
X0124167Y0177724D01*
X0123414Y0178516D02*
X0104344Y0178516D01*
X0103367Y0179750D02*
X0103367Y0182316D01*
X0104967Y0182316D02*
X0104967Y0177011D01*
X0105006Y0176916D02*
X0127367Y0176916D01*
X0127867Y0177224D02*
X0127867Y0162716D01*
X0127867Y0148208D01*
X0127867Y0177716D01*
X0128367Y0176916D02*
X0133052Y0176916D01*
X0132167Y0176724D02*
X0132167Y0177724D01*
X0130567Y0177724D02*
X0130567Y0176724D01*
X0128967Y0176724D02*
X0128967Y0177724D01*
X0128367Y0175316D02*
X0127367Y0175316D01*
X0127367Y0173716D02*
X0128367Y0173716D01*
X0128967Y0172180D02*
X0128967Y0169137D01*
X0128367Y0169137D02*
X0128367Y0163216D01*
X0132319Y0163216D01*
X0132319Y0167835D01*
X0132217Y0168216D01*
X0132020Y0168558D01*
X0131740Y0168837D01*
X0131398Y0169035D01*
X0131017Y0169137D01*
X0128367Y0169137D01*
X0128367Y0168916D02*
X0127367Y0168916D01*
X0127367Y0169137D02*
X0127367Y0172180D01*
X0125767Y0172180D02*
X0125767Y0169137D01*
X0124716Y0169137D02*
X0124335Y0169035D01*
X0123993Y0168837D01*
X0123714Y0168558D01*
X0123516Y0168216D01*
X0123414Y0167835D01*
X0123414Y0163216D01*
X0127367Y0163216D01*
X0127367Y0169137D01*
X0124716Y0169137D01*
X0124167Y0168938D02*
X0124167Y0172380D01*
X0123360Y0172116D02*
X0134967Y0172116D01*
X0134967Y0173716D02*
X0132319Y0173716D01*
X0132167Y0173014D02*
X0132167Y0168304D01*
X0131605Y0168916D02*
X0134967Y0168916D01*
X0134967Y0170516D02*
X0123778Y0170516D01*
X0123625Y0168916D02*
X0124129Y0168916D01*
X0123414Y0167316D02*
X0122893Y0167316D01*
X0122893Y0165716D02*
X0123414Y0165716D01*
X0123414Y0164116D02*
X0122893Y0164116D01*
X0124167Y0163216D02*
X0124167Y0162216D01*
X0123414Y0162216D02*
X0123414Y0157597D01*
X0123516Y0157216D01*
X0123714Y0156874D01*
X0123993Y0156594D01*
X0124335Y0156397D01*
X0124716Y0156295D01*
X0127367Y0156295D01*
X0127367Y0153251D01*
X0124716Y0153251D01*
X0124335Y0153149D01*
X0123993Y0152952D01*
X0123714Y0152672D01*
X0123516Y0152330D01*
X0123414Y0151949D01*
X0123414Y0148708D01*
X0127367Y0148708D01*
X0127367Y0153251D01*
X0127367Y0152916D02*
X0128367Y0152916D01*
X0128367Y0153251D02*
X0128367Y0148708D01*
X0132319Y0148708D01*
X0132319Y0151949D01*
X0132217Y0152330D01*
X0132020Y0152672D01*
X0131740Y0152952D01*
X0131398Y0153149D01*
X0131017Y0153251D01*
X0128367Y0153251D01*
X0128967Y0153251D02*
X0128967Y0156295D01*
X0128367Y0156295D02*
X0131017Y0156295D01*
X0131398Y0156397D01*
X0131740Y0156594D01*
X0132020Y0156874D01*
X0132217Y0157216D01*
X0132319Y0157597D01*
X0132319Y0162216D01*
X0128367Y0162216D01*
X0128367Y0163216D01*
X0127367Y0163216D01*
X0127367Y0162216D01*
X0128367Y0162216D01*
X0128367Y0156295D01*
X0127367Y0156295D02*
X0127367Y0162216D01*
X0123414Y0162216D01*
X0122893Y0162516D02*
X0127367Y0162516D01*
X0127867Y0162716D02*
X0122749Y0157598D01*
X0117138Y0157598D01*
X0117138Y0160157D02*
X0117079Y0160216D01*
X0112867Y0160216D01*
X0110367Y0157716D01*
X0110367Y0155216D01*
X0108167Y0151148D02*
X0108167Y0146116D01*
X0109767Y0146116D02*
X0109767Y0150616D01*
X0111367Y0150651D02*
X0111367Y0146116D01*
X0112967Y0146116D02*
X0112967Y0151314D01*
X0112972Y0151316D02*
X0116718Y0151316D01*
X0116167Y0151807D02*
X0116167Y0144224D01*
X0115475Y0144916D02*
X0123414Y0144916D01*
X0123414Y0144467D02*
X0123516Y0144086D01*
X0123714Y0143744D01*
X0123993Y0143464D01*
X0124335Y0143267D01*
X0124716Y0143165D01*
X0127367Y0143165D01*
X0127367Y0147708D01*
X0128367Y0147708D01*
X0128367Y0148708D01*
X0127367Y0148708D01*
X0127367Y0147708D01*
X0123414Y0147708D01*
X0123414Y0144467D01*
X0124167Y0143364D02*
X0124167Y0136224D01*
X0123475Y0136916D02*
X0127565Y0136916D01*
X0127565Y0138516D02*
X0121875Y0138516D01*
X0122567Y0137824D02*
X0122567Y0152129D01*
X0123194Y0152916D02*
X0123957Y0152916D01*
X0124167Y0153052D02*
X0124167Y0156494D01*
X0123778Y0156116D02*
X0134967Y0156116D01*
X0134967Y0157716D02*
X0132319Y0157716D01*
X0132167Y0157128D02*
X0132167Y0152418D01*
X0131776Y0152916D02*
X0134967Y0152916D01*
X0134967Y0154516D02*
X0123778Y0154516D01*
X0125767Y0153251D02*
X0125767Y0156295D01*
X0127367Y0157716D02*
X0128367Y0157716D01*
X0128367Y0159316D02*
X0127367Y0159316D01*
X0127367Y0160916D02*
X0128367Y0160916D01*
X0128967Y0162216D02*
X0128967Y0163216D01*
X0128367Y0162516D02*
X0134967Y0162516D01*
X0134967Y0164116D02*
X0132319Y0164116D01*
X0132167Y0163216D02*
X0132167Y0162216D01*
X0132319Y0160916D02*
X0134967Y0160916D01*
X0134967Y0159316D02*
X0132319Y0159316D01*
X0130567Y0162216D02*
X0130567Y0163216D01*
X0128367Y0164116D02*
X0127367Y0164116D01*
X0127367Y0165716D02*
X0128367Y0165716D01*
X0128367Y0167316D02*
X0127367Y0167316D01*
X0130567Y0169137D02*
X0130567Y0172180D01*
X0132319Y0175316D02*
X0134652Y0175316D01*
X0133767Y0176201D02*
X0133767Y0142033D01*
X0132167Y0142033D02*
X0132167Y0143998D01*
X0132217Y0144086D02*
X0132319Y0144467D01*
X0132319Y0147708D01*
X0128367Y0147708D01*
X0128367Y0143165D01*
X0131017Y0143165D01*
X0131398Y0143267D01*
X0131740Y0143464D01*
X0132020Y0143744D01*
X0132217Y0144086D01*
X0132319Y0144916D02*
X0134967Y0144916D01*
X0134967Y0146516D02*
X0132319Y0146516D01*
X0132167Y0147708D02*
X0132167Y0148708D01*
X0132319Y0149716D02*
X0134967Y0149716D01*
X0134967Y0151316D02*
X0132319Y0151316D01*
X0130567Y0153251D02*
X0130567Y0156295D01*
X0128367Y0151316D02*
X0127367Y0151316D01*
X0127367Y0149716D02*
X0128367Y0149716D01*
X0128967Y0148708D02*
X0128967Y0147708D01*
X0128367Y0148116D02*
X0134967Y0148116D01*
X0130567Y0147708D02*
X0130567Y0148708D01*
X0128367Y0146516D02*
X0127367Y0146516D01*
X0127367Y0148116D02*
X0103767Y0148116D01*
X0103367Y0149358D02*
X0103367Y0151816D01*
X0102390Y0151316D02*
X0107762Y0151316D01*
X0106567Y0152033D02*
X0106567Y0146116D01*
X0104967Y0146116D02*
X0104967Y0151816D01*
X0103175Y0149716D02*
X0123414Y0149716D01*
X0124167Y0148708D02*
X0124167Y0147708D01*
X0123414Y0146516D02*
X0103767Y0146516D01*
X0100367Y0147716D02*
X0100367Y0142716D01*
X0112867Y0142716D01*
X0125367Y0130216D01*
X0125367Y0100483D01*
X0100233Y0075350D01*
X0107867Y0067716D01*
X0112867Y0072716D01*
X0125367Y0072716D01*
X0132867Y0065216D01*
X0132867Y0055216D01*
X0129520Y0051869D01*
X0127867Y0051869D01*
X0127867Y0045216D01*
X0117867Y0035216D01*
X0100367Y0035216D01*
X0097867Y0032716D01*
X0055367Y0032716D01*
X0055367Y0031725D02*
X0011570Y0031725D01*
X0012568Y0030726D02*
X0055367Y0030726D01*
X0052364Y0035719D02*
X0014688Y0035719D01*
X0015376Y0036717D02*
X0051365Y0036717D01*
X0050367Y0037716D02*
X0031106Y0037716D01*
X0031154Y0037763D02*
X0031351Y0038105D01*
X0031453Y0038487D01*
X0031453Y0042515D01*
X0023367Y0042515D01*
X0023367Y0037184D01*
X0030151Y0037184D01*
X0030532Y0037287D01*
X0030874Y0037484D01*
X0031154Y0037763D01*
X0031453Y0038714D02*
X0049368Y0038714D01*
X0048370Y0039713D02*
X0031453Y0039713D01*
X0031453Y0040711D02*
X0047371Y0040711D01*
X0046373Y0041710D02*
X0031453Y0041710D01*
X0031453Y0043707D02*
X0044376Y0043707D01*
X0045374Y0042708D02*
X0023367Y0042708D01*
X0022867Y0043015D02*
X0022867Y0065216D01*
X0022367Y0065674D02*
X0023367Y0065674D01*
X0023367Y0064676D02*
X0022367Y0064676D01*
X0022367Y0063677D02*
X0023367Y0063677D01*
X0023367Y0062679D02*
X0022367Y0062679D01*
X0022367Y0061680D02*
X0023367Y0061680D01*
X0025951Y0061680D02*
X0027867Y0061680D01*
X0027867Y0060682D02*
X0017867Y0060682D01*
X0017867Y0061680D02*
X0019783Y0061680D01*
X0019005Y0062679D02*
X0017868Y0062679D01*
X0017868Y0063677D02*
X0018967Y0063677D01*
X0018967Y0064676D02*
X0017868Y0064676D01*
X0017868Y0065674D02*
X0018967Y0065674D01*
X0018967Y0066673D02*
X0017868Y0066673D01*
X0017868Y0067671D02*
X0022367Y0067671D01*
X0022367Y0066673D02*
X0023367Y0066673D01*
X0023367Y0067671D02*
X0027351Y0067671D01*
X0027067Y0068670D02*
X0026766Y0068670D01*
X0026766Y0069668D02*
X0027067Y0069668D01*
X0027067Y0070667D02*
X0026766Y0070667D01*
X0026766Y0071665D02*
X0027067Y0071665D01*
X0027067Y0072664D02*
X0026509Y0072664D01*
X0025367Y0073662D02*
X0020367Y0073662D01*
X0020367Y0074661D02*
X0025367Y0074661D01*
X0025367Y0075659D02*
X0020367Y0075659D01*
X0020367Y0076658D02*
X0025367Y0076658D01*
X0025367Y0077656D02*
X0020367Y0077656D01*
X0019224Y0072664D02*
X0017867Y0072664D01*
X0017868Y0071665D02*
X0018967Y0071665D01*
X0018967Y0070667D02*
X0017868Y0070667D01*
X0017868Y0069668D02*
X0018967Y0069668D01*
X0018967Y0068670D02*
X0017868Y0068670D01*
X0013768Y0067417D02*
X0013768Y0075271D01*
X0015367Y0076869D01*
X0011213Y0076869D01*
X0010367Y0077716D01*
X0010367Y0087716D01*
X0012867Y0090216D01*
X0017867Y0090216D01*
X0012867Y0095216D01*
X0012867Y0125216D01*
X0015367Y0127716D01*
X0020367Y0127716D01*
X0030367Y0117716D01*
X0030367Y0111062D01*
X0035367Y0111062D01*
X0035367Y0112716D01*
X0040367Y0117716D01*
X0040367Y0111062D01*
X0045367Y0111062D01*
X0045851Y0111316D02*
X0049882Y0111316D01*
X0049882Y0111547D02*
X0049882Y0110578D01*
X0046898Y0110578D01*
X0045851Y0110578D01*
X0045851Y0111547D01*
X0044882Y0111547D01*
X0044882Y0114728D01*
X0043201Y0114728D01*
X0042867Y0114638D01*
X0042533Y0114728D01*
X0040851Y0114728D01*
X0040851Y0111547D01*
X0039882Y0111547D01*
X0039882Y0114728D01*
X0038201Y0114728D01*
X0037867Y0114638D01*
X0037533Y0114728D01*
X0035851Y0114728D01*
X0035851Y0111547D01*
X0034882Y0111547D01*
X0034882Y0114728D01*
X0033201Y0114728D01*
X0032867Y0114638D01*
X0032533Y0114728D01*
X0030851Y0114728D01*
X0030851Y0111547D01*
X0029882Y0111547D01*
X0029882Y0114728D01*
X0028201Y0114728D01*
X0027819Y0114625D01*
X0027477Y0114428D01*
X0027198Y0114149D01*
X0027000Y0113807D01*
X0026898Y0113425D01*
X0026898Y0111547D01*
X0029882Y0111547D01*
X0029882Y0110578D01*
X0026898Y0110578D01*
X0026898Y0109052D01*
X0026755Y0108993D01*
X0025940Y0108177D01*
X0025498Y0107112D01*
X0025498Y0102393D01*
X0025498Y0104916D02*
X0023767Y0104916D01*
X0023767Y0106516D02*
X0025498Y0106516D01*
X0025914Y0108116D02*
X0023767Y0108116D01*
X0023767Y0109716D02*
X0026898Y0109716D01*
X0026567Y0108804D02*
X0026567Y0122847D01*
X0028167Y0122847D02*
X0028167Y0114719D01*
X0027629Y0114516D02*
X0023767Y0114516D01*
X0023767Y0116116D02*
X0080293Y0116116D01*
X0080321Y0116128D02*
X0079255Y0115686D01*
X0078440Y0114870D01*
X0077998Y0113804D01*
X0077998Y0108320D01*
X0078440Y0107254D01*
X0079255Y0106438D01*
X0079398Y0106379D01*
X0079398Y0104854D01*
X0082382Y0104854D01*
X0082382Y0103885D01*
X0080703Y0103885D01*
X0080472Y0104116D01*
X0078782Y0104816D01*
X0076952Y0104816D01*
X0075261Y0104116D01*
X0075235Y0104090D01*
X0075235Y0107112D01*
X0074794Y0108177D01*
X0073978Y0108993D01*
X0073835Y0109052D01*
X0073835Y0110578D01*
X0070851Y0110578D01*
X0070851Y0111547D01*
X0069882Y0111547D01*
X0069882Y0114728D01*
X0068201Y0114728D01*
X0067867Y0114638D01*
X0067533Y0114728D01*
X0065851Y0114728D01*
X0065851Y0111547D01*
X0064882Y0111547D01*
X0064882Y0114728D01*
X0063201Y0114728D01*
X0062867Y0114638D01*
X0062533Y0114728D01*
X0060851Y0114728D01*
X0060851Y0111547D01*
X0059882Y0111547D01*
X0059882Y0114728D01*
X0058201Y0114728D01*
X0057867Y0114638D01*
X0057533Y0114728D01*
X0055851Y0114728D01*
X0055851Y0111547D01*
X0054882Y0111547D01*
X0054882Y0114728D01*
X0053201Y0114728D01*
X0052867Y0114638D01*
X0052533Y0114728D01*
X0050851Y0114728D01*
X0050851Y0111547D01*
X0049882Y0111547D01*
X0049882Y0114728D01*
X0048201Y0114728D01*
X0047867Y0114638D01*
X0047533Y0114728D01*
X0045851Y0114728D01*
X0045851Y0111547D01*
X0049882Y0111547D01*
X0050567Y0111547D02*
X0050567Y0148155D01*
X0050583Y0148116D02*
X0045151Y0148116D01*
X0045235Y0149716D02*
X0050498Y0149716D01*
X0050498Y0151316D02*
X0045235Y0151316D01*
X0045375Y0152916D02*
X0050498Y0152916D01*
X0048967Y0153317D02*
X0048967Y0114728D01*
X0049882Y0114516D02*
X0050851Y0114516D01*
X0052167Y0114728D02*
X0052167Y0141337D01*
X0051976Y0141716D02*
X0043757Y0141716D01*
X0042567Y0140713D02*
X0042567Y0114719D01*
X0044167Y0114728D02*
X0044167Y0146627D01*
X0044055Y0146516D02*
X0051678Y0146516D01*
X0051898Y0144916D02*
X0043835Y0144916D01*
X0042567Y0144854D02*
X0042567Y0143885D01*
X0043835Y0143316D02*
X0051898Y0143316D01*
X0052167Y0143885D02*
X0052167Y0144854D01*
X0053767Y0144854D02*
X0053767Y0143885D01*
X0054882Y0143316D02*
X0055851Y0143316D01*
X0055367Y0143885D02*
X0055367Y0111547D01*
X0055851Y0111547D02*
X0056898Y0111547D01*
X0059882Y0111547D01*
X0059882Y0110578D01*
X0055851Y0110578D01*
X0055851Y0111547D01*
X0055851Y0111316D02*
X0059882Y0111316D01*
X0060167Y0111547D02*
X0060167Y0148108D01*
X0060158Y0148116D02*
X0060151Y0148116D01*
X0059055Y0146516D02*
X0061758Y0146516D01*
X0061767Y0146508D02*
X0061767Y0114728D01*
X0060851Y0114516D02*
X0059882Y0114516D01*
X0058567Y0114728D02*
X0058567Y0141337D01*
X0058757Y0141716D02*
X0066558Y0141716D01*
X0066567Y0141708D02*
X0066567Y0138200D01*
X0066536Y0138516D02*
X0067504Y0138516D01*
X0067020Y0137716D02*
X0060367Y0137716D01*
X0055367Y0137716D01*
X0055367Y0144369D01*
X0056967Y0143885D02*
X0056967Y0144854D01*
X0058567Y0144854D02*
X0058567Y0143885D01*
X0058835Y0143316D02*
X0064958Y0143316D01*
X0064967Y0143308D02*
X0064967Y0141184D01*
X0063418Y0140116D02*
X0005767Y0140116D01*
X0005767Y0141716D02*
X0031976Y0141716D01*
X0032967Y0140767D02*
X0032967Y0131184D01*
X0033229Y0130516D02*
X0034197Y0130516D01*
X0034567Y0131184D02*
X0034567Y0140704D01*
X0034882Y0141716D02*
X0035851Y0141716D01*
X0036167Y0140704D02*
X0036167Y0131160D01*
X0037130Y0130516D02*
X0090258Y0130516D01*
X0090567Y0130208D02*
X0090567Y0116128D01*
X0090624Y0116128D02*
X0087821Y0116128D01*
X0086755Y0115686D01*
X0086617Y0115547D01*
X0086478Y0115686D01*
X0085412Y0116128D01*
X0080321Y0116128D01*
X0080967Y0116128D02*
X0080967Y0133116D01*
X0079367Y0133151D02*
X0079367Y0115732D01*
X0078293Y0114516D02*
X0073104Y0114516D01*
X0072967Y0114595D02*
X0072967Y0132847D01*
X0074567Y0132847D02*
X0074567Y0108404D01*
X0074819Y0108116D02*
X0078083Y0108116D01*
X0077998Y0109716D02*
X0073835Y0109716D01*
X0072967Y0110578D02*
X0072967Y0111547D01*
X0073835Y0111547D02*
X0073835Y0113425D01*
X0073733Y0113807D01*
X0073535Y0114149D01*
X0073256Y0114428D01*
X0072914Y0114625D01*
X0072533Y0114728D01*
X0070851Y0114728D01*
X0070851Y0111547D01*
X0073835Y0111547D01*
X0073835Y0112916D02*
X0077998Y0112916D01*
X0077998Y0111316D02*
X0070851Y0111316D01*
X0070367Y0111062D02*
X0065367Y0111062D01*
X0072020Y0111062D01*
X0075367Y0107716D01*
X0075367Y0104369D01*
X0082867Y0104369D01*
X0082867Y0102716D01*
X0087867Y0097716D01*
X0095367Y0097716D01*
X0100367Y0102716D01*
X0100367Y0107224D01*
X0102217Y0109074D01*
X0114225Y0109074D01*
X0120367Y0115216D01*
X0120367Y0130216D01*
X0112867Y0137716D01*
X0103359Y0137716D01*
X0102217Y0136574D01*
X0102717Y0136916D02*
X0113858Y0136916D01*
X0114567Y0136208D02*
X0114567Y0125824D01*
X0114675Y0125716D02*
X0121967Y0125716D01*
X0121967Y0127316D02*
X0113075Y0127316D01*
X0112967Y0127424D02*
X0112967Y0137808D01*
X0112258Y0138516D02*
X0106768Y0138516D01*
X0106768Y0139316D02*
X0111458Y0139316D01*
X0121967Y0128808D01*
X0121967Y0101892D01*
X0108077Y0088002D01*
X0108168Y0088222D01*
X0108168Y0094493D01*
X0107727Y0095559D01*
X0106911Y0096375D01*
X0105845Y0096817D01*
X0098589Y0096817D01*
X0097523Y0096375D01*
X0096707Y0095559D01*
X0096266Y0094493D01*
X0096266Y0090215D01*
X0093221Y0087170D01*
X0082063Y0098327D01*
X0082467Y0099301D01*
X0082467Y0101131D01*
X0082382Y0101334D01*
X0082382Y0103885D01*
X0083351Y0103885D01*
X0083351Y0100704D01*
X0085033Y0100704D01*
X0085414Y0100806D01*
X0085756Y0101004D01*
X0085756Y0101004D01*
X0085940Y0100561D01*
X0086755Y0099746D01*
X0087821Y0099304D01*
X0092912Y0099304D01*
X0093978Y0099746D01*
X0094794Y0100561D01*
X0094963Y0100969D01*
X0095197Y0100969D01*
X0096446Y0101487D01*
X0097293Y0102333D01*
X0098249Y0103290D01*
X0098767Y0104540D01*
X0098767Y0105069D01*
X0098968Y0105015D01*
X0101717Y0105015D01*
X0101717Y0108574D01*
X0102717Y0108574D01*
X0102717Y0105015D01*
X0105466Y0105015D01*
X0105847Y0105117D01*
X0106189Y0105315D01*
X0106469Y0105594D01*
X0106666Y0105936D01*
X0106768Y0106318D01*
X0106768Y0108574D01*
X0102717Y0108574D01*
X0102717Y0109316D01*
X0108543Y0109316D01*
X0109793Y0109833D01*
X0113478Y0113519D01*
X0114452Y0113116D01*
X0116282Y0113116D01*
X0117972Y0113816D01*
X0119266Y0115110D01*
X0119967Y0116801D01*
X0119967Y0118631D01*
X0119266Y0120322D01*
X0117972Y0121616D01*
X0116282Y0122316D01*
X0116267Y0122316D01*
X0116267Y0123392D01*
X0115749Y0124642D01*
X0108249Y0132142D01*
X0107293Y0133098D01*
X0106630Y0133373D01*
X0106666Y0133436D01*
X0106768Y0133818D01*
X0106768Y0136074D01*
X0102717Y0136074D01*
X0102717Y0137074D01*
X0106768Y0137074D01*
X0106768Y0139316D01*
X0108167Y0139316D02*
X0108167Y0132224D01*
X0108275Y0132116D02*
X0118658Y0132116D01*
X0119367Y0131408D02*
X0119367Y0120079D01*
X0119683Y0119316D02*
X0121967Y0119316D01*
X0121967Y0120916D02*
X0118672Y0120916D01*
X0117767Y0121701D02*
X0117767Y0133008D01*
X0117058Y0133716D02*
X0106741Y0133716D01*
X0106768Y0135316D02*
X0115458Y0135316D01*
X0116167Y0134608D02*
X0116167Y0123634D01*
X0115967Y0124116D02*
X0121967Y0124116D01*
X0121967Y0122516D02*
X0116267Y0122516D01*
X0112867Y0122716D02*
X0105367Y0130216D01*
X0100367Y0130216D01*
X0095367Y0135216D01*
X0095367Y0140216D01*
X0097867Y0142716D01*
X0100367Y0142716D01*
X0100367Y0147716D02*
X0097867Y0150216D01*
X0093267Y0149716D02*
X0068175Y0149716D01*
X0068167Y0149724D02*
X0068167Y0172316D01*
X0068444Y0172316D02*
X0069509Y0172757D01*
X0068444Y0172316D02*
X0013082Y0172316D01*
X0005767Y0165001D01*
X0005767Y0164116D02*
X0006725Y0164116D01*
X0007367Y0165231D02*
X0007367Y0166601D01*
X0007851Y0165716D02*
X0006482Y0165716D01*
X0008082Y0167316D02*
X0011467Y0167316D01*
X0010567Y0166616D02*
X0010567Y0169801D01*
X0011282Y0170516D02*
X0012651Y0170516D01*
X0012167Y0170031D02*
X0012167Y0171401D01*
X0012882Y0172116D02*
X0082991Y0172116D01*
X0082567Y0172790D02*
X0082567Y0146116D01*
X0084167Y0146116D02*
X0084167Y0170968D01*
X0084937Y0170516D02*
X0018082Y0170516D01*
X0018567Y0170031D02*
X0018567Y0172316D01*
X0020167Y0172316D02*
X0020167Y0127316D01*
X0021767Y0127115D02*
X0021767Y0129810D01*
X0021299Y0130516D02*
X0005767Y0130516D01*
X0005767Y0132116D02*
X0020767Y0132116D01*
X0020802Y0133716D02*
X0005767Y0133716D01*
X0005767Y0135316D02*
X0021465Y0135316D01*
X0021767Y0135621D02*
X0021767Y0172316D01*
X0023367Y0172316D02*
X0023367Y0136866D01*
X0023486Y0136916D02*
X0005767Y0136916D01*
X0005767Y0138516D02*
X0063355Y0138516D01*
X0063367Y0138200D02*
X0063367Y0137232D01*
X0063355Y0136916D02*
X0027247Y0136916D01*
X0026567Y0137198D02*
X0026567Y0172316D01*
X0028167Y0172316D02*
X0028167Y0136421D01*
X0029269Y0135316D02*
X0063418Y0135316D01*
X0063367Y0135506D02*
X0063367Y0114728D01*
X0064882Y0114516D02*
X0065851Y0114516D01*
X0066567Y0114728D02*
X0066567Y0137231D01*
X0066536Y0136916D02*
X0067504Y0136916D01*
X0067504Y0135316D02*
X0066536Y0135316D01*
X0064967Y0134247D02*
X0064967Y0111547D01*
X0064882Y0111547D02*
X0064882Y0110578D01*
X0063835Y0110578D01*
X0060851Y0110578D01*
X0060851Y0111547D01*
X0064882Y0111547D01*
X0064882Y0111316D02*
X0060851Y0111316D01*
X0060367Y0111062D02*
X0055367Y0111062D01*
X0050367Y0111062D01*
X0050851Y0111316D02*
X0054882Y0111316D01*
X0054882Y0111547D02*
X0054882Y0110578D01*
X0053835Y0110578D01*
X0050851Y0110578D01*
X0050851Y0111547D01*
X0054882Y0111547D01*
X0055367Y0111062D02*
X0055367Y0122716D01*
X0040367Y0122716D01*
X0040367Y0117716D01*
X0040967Y0114728D02*
X0040967Y0140704D01*
X0040851Y0141716D02*
X0039882Y0141716D01*
X0039367Y0140704D02*
X0039367Y0114728D01*
X0039882Y0114516D02*
X0040851Y0114516D01*
X0040851Y0112916D02*
X0039882Y0112916D01*
X0039882Y0111547D02*
X0039882Y0110578D01*
X0036898Y0110578D01*
X0035851Y0110578D01*
X0035851Y0111547D01*
X0039882Y0111547D01*
X0039882Y0111316D02*
X0035851Y0111316D01*
X0036167Y0111547D02*
X0036167Y0110578D01*
X0034882Y0110578D02*
X0034882Y0111547D01*
X0033835Y0111547D01*
X0030851Y0111547D01*
X0030851Y0110578D01*
X0034882Y0110578D01*
X0034567Y0110578D02*
X0034567Y0111547D01*
X0034882Y0111316D02*
X0030851Y0111316D01*
X0031367Y0111547D02*
X0031367Y0110578D01*
X0032967Y0110578D02*
X0032967Y0111547D01*
X0034882Y0112916D02*
X0035851Y0112916D01*
X0035851Y0114516D02*
X0034882Y0114516D01*
X0034567Y0114728D02*
X0034567Y0124247D01*
X0034197Y0125716D02*
X0033229Y0125716D01*
X0032967Y0124247D02*
X0032967Y0114665D01*
X0031367Y0114728D02*
X0031367Y0123827D01*
X0031649Y0124116D02*
X0096658Y0124116D01*
X0095367Y0125408D02*
X0095367Y0120871D01*
X0095412Y0120916D02*
X0024600Y0120916D01*
X0023767Y0119316D02*
X0093812Y0119316D01*
X0093767Y0119271D02*
X0093767Y0127008D01*
X0093458Y0127316D02*
X0034197Y0127316D01*
X0034567Y0127232D02*
X0034567Y0128200D01*
X0034197Y0128916D02*
X0033229Y0128916D01*
X0033713Y0127716D02*
X0040367Y0127716D01*
X0040367Y0122716D01*
X0037378Y0125716D02*
X0095058Y0125716D01*
X0096266Y0121993D02*
X0096266Y0121752D01*
X0096236Y0121740D01*
X0095280Y0120784D01*
X0090624Y0116128D01*
X0088967Y0116128D02*
X0088967Y0134308D01*
X0089467Y0133716D02*
X0082730Y0133716D01*
X0082567Y0133648D02*
X0082567Y0116128D01*
X0084167Y0116128D02*
X0084167Y0135010D01*
X0084352Y0135316D02*
X0087958Y0135316D01*
X0087367Y0135908D02*
X0087367Y0115939D01*
X0087793Y0116116D02*
X0085441Y0116116D01*
X0085767Y0115981D02*
X0085767Y0137508D01*
X0086358Y0136916D02*
X0084967Y0136916D01*
X0080367Y0137716D02*
X0073713Y0137716D01*
X0071367Y0132847D02*
X0071367Y0114728D01*
X0070851Y0114516D02*
X0069882Y0114516D01*
X0069767Y0114728D02*
X0069767Y0133427D01*
X0069478Y0133716D02*
X0029931Y0133716D01*
X0029767Y0134114D02*
X0029767Y0172316D01*
X0031367Y0172316D02*
X0031367Y0155297D01*
X0030793Y0154516D02*
X0005767Y0154516D01*
X0005767Y0156116D02*
X0031967Y0156116D01*
X0031967Y0157716D02*
X0005767Y0157716D01*
X0005767Y0162516D02*
X0006467Y0162516D01*
X0008967Y0166357D02*
X0008967Y0168201D01*
X0009682Y0168916D02*
X0011642Y0168916D01*
X0013767Y0171274D02*
X0013767Y0172316D01*
X0015367Y0172316D02*
X0015367Y0171616D01*
X0016967Y0171274D02*
X0016967Y0172316D01*
X0019091Y0168916D02*
X0042561Y0168916D01*
X0042567Y0168921D02*
X0042567Y0172316D01*
X0044167Y0172316D02*
X0044167Y0169698D01*
X0042867Y0170216D02*
X0030367Y0157716D01*
X0030367Y0145216D01*
X0034520Y0145216D01*
X0035367Y0144369D01*
X0040367Y0144369D01*
X0040367Y0137716D01*
X0055367Y0137716D01*
X0056967Y0140704D02*
X0056967Y0114728D01*
X0055851Y0114516D02*
X0054882Y0114516D01*
X0053767Y0114728D02*
X0053767Y0140704D01*
X0054882Y0141716D02*
X0055851Y0141716D01*
X0058835Y0144916D02*
X0063358Y0144916D01*
X0063367Y0144908D02*
X0063367Y0139926D01*
X0064967Y0138200D02*
X0064967Y0137232D01*
X0066536Y0140116D02*
X0067504Y0140116D01*
X0070367Y0142716D02*
X0085367Y0142716D01*
X0092867Y0135216D01*
X0092867Y0132716D01*
X0100367Y0125216D01*
X0100367Y0120708D01*
X0102217Y0118858D01*
X0098162Y0118858D01*
X0090367Y0111062D01*
X0082867Y0111062D01*
X0079367Y0106392D02*
X0079367Y0104573D01*
X0079398Y0104916D02*
X0075235Y0104916D01*
X0075367Y0104369D02*
X0075367Y0077716D01*
X0089117Y0063966D01*
X0089885Y0063966D01*
X0094501Y0068582D01*
X0094720Y0068116D02*
X0095651Y0068116D01*
X0095367Y0068401D02*
X0095367Y0067031D01*
X0095882Y0066516D02*
X0097251Y0066516D01*
X0097435Y0066332D02*
X0098624Y0067522D01*
X0098822Y0067864D01*
X0098924Y0068245D01*
X0098924Y0068640D01*
X0098822Y0069022D01*
X0098624Y0069364D01*
X0097296Y0070692D01*
X0095186Y0068582D01*
X0094501Y0069267D01*
X0096611Y0071377D01*
X0095532Y0072456D01*
X0095591Y0072598D01*
X0095591Y0073106D01*
X0098729Y0069968D01*
X0099795Y0069526D01*
X0100949Y0069526D01*
X0101160Y0069614D01*
X0101267Y0069508D01*
X0101267Y0064982D01*
X0103533Y0062716D01*
X0101267Y0060450D01*
X0101267Y0054982D01*
X0103533Y0052716D01*
X0101267Y0050450D01*
X0101267Y0044982D01*
X0105133Y0041116D01*
X0110600Y0041116D01*
X0113857Y0044372D01*
X0115713Y0042516D01*
X0112000Y0042516D01*
X0112867Y0042716D02*
X0102867Y0042716D01*
X0100367Y0045216D01*
X0100367Y0052716D01*
X0089117Y0063966D01*
X0089330Y0067491D02*
X0088265Y0067933D01*
X0084387Y0071811D01*
X0083945Y0072877D01*
X0083945Y0074030D01*
X0084387Y0075096D01*
X0087986Y0078696D01*
X0089052Y0079137D01*
X0089887Y0079137D01*
X0089677Y0079644D01*
X0089677Y0080798D01*
X0089765Y0081009D01*
X0074984Y0095790D01*
X0074766Y0096317D01*
X0074266Y0095110D01*
X0072972Y0093816D01*
X0071282Y0093116D01*
X0069967Y0093116D01*
X0069967Y0091801D01*
X0069266Y0090110D01*
X0067972Y0088816D01*
X0066282Y0088116D01*
X0065575Y0088116D01*
X0062293Y0084833D01*
X0059967Y0082508D01*
X0059967Y0081801D01*
X0059888Y0081611D01*
X0060441Y0081611D01*
X0061097Y0081619D01*
X0061117Y0081611D01*
X0061138Y0081611D01*
X0061744Y0081360D01*
X0062353Y0081116D01*
X0062368Y0081101D01*
X0062388Y0081093D01*
X0062852Y0080630D01*
X0067846Y0075755D01*
X0068320Y0075303D01*
X0068329Y0075283D01*
X0068344Y0075268D01*
X0068602Y0074665D01*
X0068868Y0074066D01*
X0068868Y0074045D01*
X0068877Y0074025D01*
X0068885Y0073369D01*
X0069230Y0059056D01*
X0070799Y0057316D01*
X0071282Y0057316D01*
X0072972Y0056616D01*
X0074266Y0055322D01*
X0074967Y0053631D01*
X0074967Y0051801D01*
X0074266Y0050110D01*
X0072972Y0048816D01*
X0071282Y0048116D01*
X0069452Y0048116D01*
X0067761Y0048816D01*
X0066467Y0050110D01*
X0065767Y0051801D01*
X0065767Y0052742D01*
X0063422Y0055344D01*
X0063027Y0055721D01*
X0062973Y0055843D01*
X0062883Y0055942D01*
X0062700Y0056458D01*
X0062479Y0056958D01*
X0062476Y0057091D01*
X0062431Y0057217D01*
X0062460Y0057763D01*
X0062120Y0071842D01*
X0059078Y0074811D01*
X0053871Y0074811D01*
X0053063Y0074786D01*
X0046143Y0074357D01*
X0046043Y0074316D01*
X0045472Y0074316D01*
X0045150Y0074296D01*
X0045416Y0074031D01*
X0046682Y0072765D01*
X0047367Y0071111D01*
X0047367Y0054580D01*
X0047367Y0074433D01*
X0048702Y0074516D02*
X0059380Y0074516D01*
X0058567Y0074811D02*
X0058567Y0043380D01*
X0057831Y0044116D02*
X0102133Y0044116D01*
X0101767Y0044482D02*
X0101767Y0038616D01*
X0103367Y0038616D02*
X0103367Y0042882D01*
X0103733Y0042516D02*
X0059431Y0042516D01*
X0059731Y0042216D02*
X0047367Y0054580D01*
X0047367Y0055316D02*
X0063448Y0055316D01*
X0063367Y0055397D02*
X0063367Y0042216D01*
X0064967Y0042216D02*
X0064967Y0053630D01*
X0064889Y0053716D02*
X0048231Y0053716D01*
X0048967Y0052980D02*
X0048967Y0074532D01*
X0050567Y0074631D02*
X0050567Y0051380D01*
X0049831Y0052116D02*
X0065767Y0052116D01*
X0066299Y0050516D02*
X0051431Y0050516D01*
X0052167Y0049780D02*
X0052167Y0074730D01*
X0053767Y0074808D02*
X0053767Y0048180D01*
X0053031Y0048916D02*
X0067661Y0048916D01*
X0068167Y0048648D02*
X0068167Y0042216D01*
X0069767Y0042216D02*
X0069767Y0048116D01*
X0071367Y0048151D02*
X0071367Y0042216D01*
X0072967Y0042216D02*
X0072967Y0048814D01*
X0073072Y0048916D02*
X0101267Y0048916D01*
X0101267Y0047316D02*
X0054631Y0047316D01*
X0055367Y0046580D02*
X0055367Y0074811D01*
X0056967Y0074811D02*
X0056967Y0044980D01*
X0056231Y0045716D02*
X0101267Y0045716D01*
X0097972Y0041616D02*
X0096282Y0042316D01*
X0094452Y0042316D01*
X0094210Y0042216D01*
X0059731Y0042216D01*
X0060167Y0042216D02*
X0060167Y0073748D01*
X0061019Y0072916D02*
X0046531Y0072916D01*
X0045767Y0073680D02*
X0045767Y0074316D01*
X0047282Y0071316D02*
X0062132Y0071316D01*
X0061767Y0072186D02*
X0061767Y0042216D01*
X0066567Y0042216D02*
X0066567Y0050010D01*
X0070367Y0052716D02*
X0065862Y0057716D01*
X0065485Y0073308D01*
X0060462Y0078211D01*
X0053818Y0078211D01*
X0052913Y0078183D01*
X0052899Y0078182D01*
X0045367Y0077716D01*
X0020367Y0102716D01*
X0020367Y0122716D01*
X0018567Y0126949D02*
X0018567Y0165400D01*
X0018760Y0165716D02*
X0040767Y0165716D01*
X0040967Y0166614D02*
X0040967Y0172316D01*
X0039367Y0172316D02*
X0039367Y0162281D01*
X0040967Y0162316D02*
X0040967Y0163818D01*
X0040843Y0164116D02*
X0016867Y0164116D01*
X0016967Y0164157D02*
X0016967Y0125821D01*
X0016861Y0125716D02*
X0005767Y0125716D01*
X0005767Y0127316D02*
X0021955Y0127316D01*
X0021955Y0128916D02*
X0005767Y0128916D01*
X0005767Y0124116D02*
X0015968Y0124116D01*
X0015767Y0122516D02*
X0005767Y0122516D01*
X0005767Y0120916D02*
X0016133Y0120916D01*
X0016967Y0119316D02*
X0005767Y0119316D01*
X0005767Y0117716D02*
X0016967Y0117716D01*
X0016967Y0116116D02*
X0005767Y0116116D01*
X0005767Y0114516D02*
X0016967Y0114516D01*
X0016967Y0112916D02*
X0005767Y0112916D01*
X0005767Y0111316D02*
X0016967Y0111316D01*
X0016967Y0109716D02*
X0005767Y0109716D01*
X0005767Y0108116D02*
X0016967Y0108116D01*
X0016967Y0106516D02*
X0005767Y0106516D01*
X0005767Y0104916D02*
X0016967Y0104916D01*
X0016967Y0103316D02*
X0005767Y0103316D01*
X0005767Y0098516D02*
X0019758Y0098516D01*
X0020167Y0098108D02*
X0020167Y0086962D01*
X0019816Y0087316D02*
X0030958Y0087316D01*
X0029767Y0087228D02*
X0029767Y0088508D01*
X0029358Y0088916D02*
X0005767Y0088916D01*
X0005767Y0090516D02*
X0027758Y0090516D01*
X0028167Y0090108D02*
X0028167Y0087219D01*
X0026898Y0085716D02*
X0024675Y0085716D01*
X0024967Y0085424D02*
X0024967Y0093308D01*
X0024558Y0093716D02*
X0005767Y0093716D01*
X0005767Y0095316D02*
X0022958Y0095316D01*
X0023367Y0094908D02*
X0023367Y0086685D01*
X0021767Y0086962D02*
X0021767Y0096508D01*
X0021358Y0096916D02*
X0005767Y0096916D01*
X0005767Y0092116D02*
X0026158Y0092116D01*
X0026567Y0091708D02*
X0026567Y0083021D01*
X0026893Y0082516D02*
X0026898Y0082516D01*
X0028167Y0083078D02*
X0028167Y0084047D01*
X0026898Y0084116D02*
X0025967Y0084116D01*
X0029767Y0084047D02*
X0029767Y0083078D01*
X0030367Y0083562D02*
X0023713Y0090216D01*
X0017867Y0090216D01*
X0015367Y0088628D02*
X0015367Y0163816D01*
X0014267Y0162516D02*
X0041561Y0162516D01*
X0043633Y0160955D02*
X0043967Y0160816D01*
X0043829Y0160759D01*
X0043633Y0160955D01*
X0043672Y0160916D02*
X0043727Y0160916D01*
X0045367Y0157716D02*
X0040367Y0152716D01*
X0040367Y0151062D01*
X0035367Y0151062D02*
X0035367Y0157716D01*
X0040367Y0157716D01*
X0037767Y0161618D02*
X0037767Y0172316D01*
X0036167Y0172316D02*
X0036167Y0161116D01*
X0034567Y0161065D02*
X0034567Y0172316D01*
X0032967Y0172316D02*
X0032967Y0160124D01*
X0032349Y0159316D02*
X0012350Y0159316D01*
X0012167Y0159240D02*
X0012167Y0088356D01*
X0013767Y0088628D02*
X0013767Y0160733D01*
X0013842Y0160916D02*
X0034208Y0160916D01*
X0041258Y0167316D02*
X0019267Y0167316D01*
X0024967Y0172316D02*
X0024967Y0137316D01*
X0025367Y0132716D02*
X0027020Y0131062D01*
X0027020Y0127716D01*
X0029767Y0122849D02*
X0029767Y0114728D01*
X0029882Y0114516D02*
X0030851Y0114516D01*
X0030851Y0112916D02*
X0029882Y0112916D01*
X0029767Y0111547D02*
X0029767Y0110578D01*
X0029882Y0111316D02*
X0023767Y0111316D01*
X0023767Y0112916D02*
X0026898Y0112916D01*
X0028167Y0111547D02*
X0028167Y0110578D01*
X0030367Y0104369D02*
X0035367Y0104369D01*
X0035367Y0097716D01*
X0037767Y0093731D02*
X0037767Y0091618D01*
X0037761Y0091616D02*
X0037018Y0090873D01*
X0034775Y0093116D01*
X0036282Y0093116D01*
X0037867Y0093772D01*
X0039452Y0093116D01*
X0040958Y0093116D01*
X0040158Y0092316D01*
X0039452Y0092316D01*
X0037761Y0091616D01*
X0038969Y0092116D02*
X0035775Y0092116D01*
X0036167Y0091724D02*
X0036167Y0093116D01*
X0037730Y0093716D02*
X0038003Y0093716D01*
X0039367Y0093151D02*
X0039367Y0092281D01*
X0040367Y0087716D02*
X0045367Y0092716D01*
X0045367Y0104369D01*
X0050367Y0104369D01*
X0055367Y0102716D02*
X0050367Y0097716D01*
X0050367Y0092716D01*
X0052167Y0088482D02*
X0052167Y0086021D01*
X0051861Y0085716D02*
X0044517Y0085716D01*
X0044266Y0085110D02*
X0044967Y0086801D01*
X0044967Y0087508D01*
X0047018Y0089559D01*
X0047761Y0088816D01*
X0049452Y0088116D01*
X0051282Y0088116D01*
X0052867Y0088772D01*
X0054452Y0088116D01*
X0055958Y0088116D01*
X0055158Y0087316D01*
X0054452Y0087316D01*
X0052761Y0086616D01*
X0051467Y0085322D01*
X0050767Y0083631D01*
X0050767Y0081801D01*
X0050906Y0081465D01*
X0046687Y0081204D01*
X0043523Y0084367D01*
X0044266Y0085110D01*
X0044167Y0085010D02*
X0044167Y0083724D01*
X0043775Y0084116D02*
X0050968Y0084116D01*
X0050767Y0082516D02*
X0045375Y0082516D01*
X0045767Y0082124D02*
X0045767Y0088308D01*
X0046375Y0088916D02*
X0047661Y0088916D01*
X0047367Y0089210D02*
X0047367Y0081246D01*
X0048967Y0081345D02*
X0048967Y0088317D01*
X0050567Y0088116D02*
X0050567Y0081444D01*
X0053767Y0087032D02*
X0053767Y0088400D01*
X0055158Y0087316D02*
X0044967Y0087316D01*
X0036905Y0081369D02*
X0034102Y0081369D01*
X0033978Y0081493D01*
X0033835Y0081552D01*
X0033835Y0083078D01*
X0030851Y0083078D01*
X0030851Y0084047D01*
X0033835Y0084047D01*
X0033835Y0084439D01*
X0036905Y0081369D01*
X0036167Y0081369D02*
X0036167Y0082108D01*
X0035758Y0082516D02*
X0033835Y0082516D01*
X0032967Y0083078D02*
X0032967Y0084047D01*
X0033835Y0084116D02*
X0034158Y0084116D01*
X0034567Y0083708D02*
X0034567Y0081369D01*
X0031367Y0083078D02*
X0031367Y0084047D01*
X0030851Y0084116D02*
X0029882Y0084116D01*
X0029882Y0085716D02*
X0030851Y0085716D01*
X0030767Y0097124D02*
X0028587Y0099304D01*
X0031046Y0099304D01*
X0030767Y0098631D01*
X0030767Y0097124D01*
X0030767Y0098516D02*
X0029375Y0098516D01*
X0029767Y0098124D02*
X0029767Y0099304D01*
X0037767Y0110578D02*
X0037767Y0111547D01*
X0039367Y0111547D02*
X0039367Y0110578D01*
X0040851Y0110578D02*
X0040851Y0111547D01*
X0041898Y0111547D01*
X0044882Y0111547D01*
X0044882Y0110578D01*
X0040851Y0110578D01*
X0040967Y0110578D02*
X0040967Y0111547D01*
X0040851Y0111316D02*
X0044882Y0111316D01*
X0044167Y0111547D02*
X0044167Y0110578D01*
X0042567Y0110578D02*
X0042567Y0111547D01*
X0044882Y0112916D02*
X0045851Y0112916D01*
X0045767Y0111547D02*
X0045767Y0153308D01*
X0047367Y0154210D02*
X0047367Y0114728D01*
X0045851Y0114516D02*
X0044882Y0114516D01*
X0047367Y0111547D02*
X0047367Y0110578D01*
X0048967Y0110578D02*
X0048967Y0111547D01*
X0049882Y0112916D02*
X0050851Y0112916D01*
X0052167Y0111547D02*
X0052167Y0110578D01*
X0053767Y0110578D02*
X0053767Y0111547D01*
X0054882Y0112916D02*
X0055851Y0112916D01*
X0056967Y0111547D02*
X0056967Y0110578D01*
X0058567Y0110578D02*
X0058567Y0111547D01*
X0060367Y0111062D02*
X0065367Y0111062D01*
X0065851Y0111316D02*
X0069882Y0111316D01*
X0069882Y0111547D02*
X0069882Y0110578D01*
X0066898Y0110578D01*
X0065851Y0110578D01*
X0065851Y0111547D01*
X0069882Y0111547D01*
X0069767Y0111547D02*
X0069767Y0110578D01*
X0071367Y0110578D02*
X0071367Y0111547D01*
X0070851Y0112916D02*
X0069882Y0112916D01*
X0068167Y0111547D02*
X0068167Y0110578D01*
X0066567Y0110578D02*
X0066567Y0111547D01*
X0065851Y0112916D02*
X0064882Y0112916D01*
X0063367Y0111547D02*
X0063367Y0110578D01*
X0061767Y0110578D02*
X0061767Y0111547D01*
X0060851Y0112916D02*
X0059882Y0112916D01*
X0060367Y0104369D02*
X0055367Y0104369D01*
X0055367Y0102716D01*
X0056763Y0099304D02*
X0054775Y0097316D01*
X0055158Y0097316D01*
X0057147Y0099304D01*
X0056763Y0099304D01*
X0056967Y0099304D02*
X0056967Y0099124D01*
X0056358Y0098516D02*
X0055975Y0098516D01*
X0055367Y0097908D02*
X0055367Y0097524D01*
X0055367Y0092716D02*
X0065367Y0102716D01*
X0065367Y0104369D01*
X0070367Y0104369D02*
X0070367Y0097716D01*
X0072967Y0093814D02*
X0072967Y0056618D01*
X0072247Y0056916D02*
X0101267Y0056916D01*
X0101267Y0058516D02*
X0069717Y0058516D01*
X0069767Y0058461D02*
X0069767Y0091318D01*
X0069967Y0092116D02*
X0078658Y0092116D01*
X0079367Y0091408D02*
X0079367Y0042216D01*
X0080967Y0042216D02*
X0080967Y0089808D01*
X0080258Y0090516D02*
X0069434Y0090516D01*
X0068167Y0089010D02*
X0068167Y0075449D01*
X0067476Y0076116D02*
X0085406Y0076116D01*
X0085767Y0076476D02*
X0085767Y0085008D01*
X0085058Y0085716D02*
X0063175Y0085716D01*
X0063367Y0085908D02*
X0063367Y0080127D01*
X0062566Y0080916D02*
X0089726Y0080916D01*
X0088967Y0081808D02*
X0088967Y0079102D01*
X0089813Y0079316D02*
X0064198Y0079316D01*
X0064967Y0078565D02*
X0064967Y0087508D01*
X0064775Y0087316D02*
X0083458Y0087316D01*
X0084167Y0086608D02*
X0084167Y0074565D01*
X0084146Y0074516D02*
X0068669Y0074516D01*
X0068896Y0072916D02*
X0083945Y0072916D01*
X0084167Y0072342D02*
X0084167Y0042216D01*
X0085767Y0042216D02*
X0085767Y0070431D01*
X0086482Y0069716D02*
X0068973Y0069716D01*
X0068934Y0071316D02*
X0084882Y0071316D01*
X0087367Y0068831D02*
X0087367Y0042216D01*
X0088967Y0042216D02*
X0088967Y0067642D01*
X0089330Y0067491D02*
X0090484Y0067491D01*
X0090627Y0067550D01*
X0091706Y0066472D01*
X0093816Y0068582D01*
X0094501Y0067897D01*
X0095186Y0068582D01*
X0097435Y0066332D01*
X0097618Y0066516D02*
X0101267Y0066516D01*
X0101267Y0068116D02*
X0098889Y0068116D01*
X0098567Y0067464D02*
X0098567Y0041021D01*
X0098672Y0040916D02*
X0118758Y0040916D01*
X0119367Y0041524D02*
X0119367Y0042516D01*
X0120021Y0042516D02*
X0118367Y0042516D01*
X0117367Y0042516D01*
X0117367Y0047216D01*
X0118367Y0047216D01*
X0118367Y0048216D01*
X0123067Y0048216D01*
X0123067Y0048962D01*
X0123440Y0048061D01*
X0124255Y0047246D01*
X0124467Y0047158D01*
X0124467Y0046624D01*
X0116458Y0038616D01*
X0099967Y0038616D01*
X0099967Y0038631D01*
X0099266Y0040322D01*
X0097972Y0041616D01*
X0096967Y0042032D02*
X0096967Y0066801D01*
X0096750Y0065648D02*
X0095561Y0064458D01*
X0095219Y0064261D01*
X0094837Y0064159D01*
X0094442Y0064159D01*
X0094061Y0064261D01*
X0093719Y0064458D01*
X0092391Y0065787D01*
X0094501Y0067897D01*
X0096750Y0065648D01*
X0096018Y0064916D02*
X0101333Y0064916D01*
X0101767Y0064482D02*
X0101767Y0060950D01*
X0101267Y0060116D02*
X0069205Y0060116D01*
X0069166Y0061716D02*
X0102533Y0061716D01*
X0103367Y0062550D02*
X0103367Y0062882D01*
X0102933Y0063316D02*
X0069127Y0063316D01*
X0069089Y0064916D02*
X0093261Y0064916D01*
X0093767Y0064431D02*
X0093767Y0042216D01*
X0092167Y0042216D02*
X0092167Y0066933D01*
X0091750Y0066516D02*
X0093120Y0066516D01*
X0093767Y0067163D02*
X0093767Y0068533D01*
X0093350Y0068116D02*
X0094282Y0068116D01*
X0095367Y0068763D02*
X0095367Y0070133D01*
X0094950Y0069716D02*
X0096320Y0069716D01*
X0096967Y0070363D02*
X0096967Y0071731D01*
X0097382Y0071316D02*
X0096550Y0071316D01*
X0095782Y0072916D02*
X0095591Y0072916D01*
X0098567Y0070131D02*
X0098567Y0069421D01*
X0098272Y0069716D02*
X0099338Y0069716D01*
X0100167Y0069526D02*
X0100167Y0038616D01*
X0099683Y0039316D02*
X0117158Y0039316D01*
X0117767Y0039924D02*
X0117767Y0047216D01*
X0117867Y0047716D02*
X0122867Y0052716D01*
X0122867Y0055216D01*
X0126213Y0058562D01*
X0127867Y0058562D01*
X0127382Y0058516D02*
X0124467Y0058516D01*
X0124467Y0058078D02*
X0124467Y0059047D01*
X0127382Y0059047D01*
X0127382Y0062228D01*
X0125701Y0062228D01*
X0125319Y0062125D01*
X0124977Y0061928D01*
X0124698Y0061649D01*
X0124500Y0061307D01*
X0124398Y0060925D01*
X0124398Y0060518D01*
X0122200Y0062716D01*
X0124467Y0064982D01*
X0124467Y0068808D01*
X0129467Y0063808D01*
X0129467Y0062228D01*
X0128351Y0062228D01*
X0128351Y0059047D01*
X0127382Y0059047D01*
X0127382Y0058078D01*
X0124467Y0058078D01*
X0125767Y0058078D02*
X0125767Y0059047D01*
X0127367Y0059047D02*
X0127367Y0058078D01*
X0127382Y0060116D02*
X0128351Y0060116D01*
X0128351Y0061716D02*
X0127382Y0061716D01*
X0127367Y0062228D02*
X0127367Y0065908D01*
X0126758Y0066516D02*
X0124467Y0066516D01*
X0124467Y0068116D02*
X0125158Y0068116D01*
X0125767Y0067508D02*
X0125767Y0062228D01*
X0124765Y0061716D02*
X0123200Y0061716D01*
X0122567Y0062350D02*
X0122567Y0063082D01*
X0122800Y0063316D02*
X0129467Y0063316D01*
X0128967Y0064308D02*
X0128967Y0062228D01*
X0128358Y0064916D02*
X0124400Y0064916D01*
X0124167Y0064682D02*
X0124167Y0060750D01*
X0122998Y0053514D02*
X0121210Y0051726D01*
X0122998Y0049938D01*
X0122998Y0053514D01*
X0122567Y0053082D02*
X0122567Y0050370D01*
X0122421Y0050516D02*
X0122998Y0050516D01*
X0122998Y0052116D02*
X0121600Y0052116D01*
X0123067Y0048916D02*
X0123086Y0048916D01*
X0122567Y0048216D02*
X0122567Y0047216D01*
X0123067Y0047216D02*
X0123067Y0045562D01*
X0120021Y0042516D01*
X0120358Y0042516D01*
X0120967Y0043124D02*
X0120967Y0043462D01*
X0121621Y0044116D02*
X0121958Y0044116D01*
X0122567Y0044724D02*
X0122567Y0045062D01*
X0123067Y0045716D02*
X0123558Y0045716D01*
X0124167Y0046324D02*
X0124167Y0047334D01*
X0124185Y0047316D02*
X0118367Y0047316D01*
X0118367Y0047216D02*
X0123067Y0047216D01*
X0120967Y0047216D02*
X0120967Y0048216D01*
X0119367Y0048216D02*
X0119367Y0047216D01*
X0118367Y0047216D02*
X0118367Y0042516D01*
X0117367Y0042516D02*
X0115713Y0042516D01*
X0116167Y0042516D02*
X0116167Y0038616D01*
X0114567Y0038616D02*
X0114567Y0043662D01*
X0114113Y0044116D02*
X0113600Y0044116D01*
X0112967Y0043482D02*
X0112967Y0038616D01*
X0111367Y0038616D02*
X0111367Y0041882D01*
X0112867Y0042716D02*
X0117867Y0047716D01*
X0117367Y0045716D02*
X0118367Y0045716D01*
X0118367Y0044116D02*
X0117367Y0044116D01*
X0113857Y0051060D02*
X0112200Y0052716D01*
X0112867Y0053382D01*
X0114523Y0051726D01*
X0113857Y0051060D01*
X0114133Y0052116D02*
X0112800Y0052116D01*
X0112967Y0051950D02*
X0112967Y0053282D01*
X0112867Y0062050D02*
X0112200Y0062716D01*
X0112867Y0063382D01*
X0113533Y0062716D01*
X0112867Y0062050D01*
X0112967Y0062150D02*
X0112967Y0063282D01*
X0112933Y0063316D02*
X0112800Y0063316D01*
X0109658Y0074316D02*
X0106075Y0074316D01*
X0105969Y0074422D01*
X0106056Y0074633D01*
X0106056Y0075787D01*
X0105887Y0076195D01*
X0128249Y0098557D01*
X0128767Y0099807D01*
X0128767Y0104112D01*
X0128822Y0104057D01*
X0129888Y0103615D01*
X0134967Y0103615D01*
X0134967Y0096817D01*
X0129888Y0096817D01*
X0128822Y0096375D01*
X0128007Y0095559D01*
X0127565Y0094493D01*
X0127565Y0088222D01*
X0128007Y0087156D01*
X0128822Y0086340D01*
X0129888Y0085899D01*
X0134967Y0085899D01*
X0134967Y0067924D01*
X0134793Y0068098D01*
X0127293Y0075598D01*
X0126043Y0076116D01*
X0112190Y0076116D01*
X0110941Y0075598D01*
X0109984Y0074642D01*
X0109658Y0074316D01*
X0109767Y0074424D02*
X0109767Y0080075D01*
X0109008Y0079316D02*
X0134967Y0079316D01*
X0134967Y0080916D02*
X0110608Y0080916D01*
X0111367Y0081675D02*
X0111367Y0075775D01*
X0112967Y0076116D02*
X0112967Y0083275D01*
X0112208Y0082516D02*
X0134967Y0082516D01*
X0134967Y0084116D02*
X0113808Y0084116D01*
X0114567Y0084875D02*
X0114567Y0076116D01*
X0116167Y0076116D02*
X0116167Y0086475D01*
X0115408Y0085716D02*
X0134967Y0085716D01*
X0133767Y0085899D02*
X0133767Y0069124D01*
X0133175Y0069716D02*
X0134967Y0069716D01*
X0134967Y0071316D02*
X0131575Y0071316D01*
X0132167Y0070724D02*
X0132167Y0085899D01*
X0130567Y0085899D02*
X0130567Y0072324D01*
X0129975Y0072916D02*
X0134967Y0072916D01*
X0134967Y0074516D02*
X0128375Y0074516D01*
X0128967Y0073924D02*
X0128967Y0086280D01*
X0127940Y0087316D02*
X0117008Y0087316D01*
X0117767Y0088075D02*
X0117767Y0076116D01*
X0119367Y0076116D02*
X0119367Y0089675D01*
X0118608Y0088916D02*
X0127565Y0088916D01*
X0127565Y0090516D02*
X0120208Y0090516D01*
X0120967Y0091275D02*
X0120967Y0076116D01*
X0122567Y0076116D02*
X0122567Y0092875D01*
X0121808Y0092116D02*
X0127565Y0092116D01*
X0127565Y0093716D02*
X0123408Y0093716D01*
X0124167Y0094475D02*
X0124167Y0076116D01*
X0125767Y0076116D02*
X0125767Y0096075D01*
X0125008Y0095316D02*
X0127906Y0095316D01*
X0128967Y0096435D02*
X0128967Y0103997D01*
X0128767Y0103316D02*
X0134967Y0103316D01*
X0133767Y0103615D02*
X0133767Y0096817D01*
X0134967Y0096916D02*
X0126608Y0096916D01*
X0127367Y0097675D02*
X0127367Y0075524D01*
X0134967Y0076116D02*
X0105920Y0076116D01*
X0106567Y0076875D02*
X0106567Y0074316D01*
X0106007Y0074516D02*
X0109858Y0074516D01*
X0108167Y0074316D02*
X0108167Y0078475D01*
X0107408Y0077716D02*
X0134967Y0077716D01*
X0134967Y0068116D02*
X0134775Y0068116D01*
X0134967Y0052508D02*
X0134967Y0039816D01*
X0125767Y0030616D01*
X0125767Y0038308D01*
X0125175Y0037716D02*
X0132867Y0037716D01*
X0132167Y0037016D02*
X0132167Y0047934D01*
X0132294Y0048061D02*
X0131478Y0047246D01*
X0131267Y0047158D01*
X0131267Y0044540D01*
X0130749Y0043290D01*
X0129793Y0042333D01*
X0129793Y0042333D01*
X0120749Y0033290D01*
X0119793Y0032333D01*
X0118543Y0031816D01*
X0101775Y0031816D01*
X0100749Y0030790D01*
X0100575Y0030616D01*
X0125767Y0030616D01*
X0126467Y0031316D02*
X0101275Y0031316D01*
X0101767Y0031808D02*
X0101767Y0030616D01*
X0103367Y0030616D02*
X0103367Y0031816D01*
X0104967Y0031816D02*
X0104967Y0030616D01*
X0106567Y0030616D02*
X0106567Y0031816D01*
X0108167Y0031816D02*
X0108167Y0030616D01*
X0109767Y0030616D02*
X0109767Y0031816D01*
X0111367Y0031816D02*
X0111367Y0030616D01*
X0112967Y0030616D02*
X0112967Y0031816D01*
X0114567Y0031816D02*
X0114567Y0030616D01*
X0116167Y0030616D02*
X0116167Y0031816D01*
X0117767Y0031816D02*
X0117767Y0030616D01*
X0119367Y0030616D02*
X0119367Y0032157D01*
X0120375Y0032916D02*
X0128067Y0032916D01*
X0127367Y0032216D02*
X0127367Y0039908D01*
X0126775Y0039316D02*
X0134467Y0039316D01*
X0133767Y0038616D02*
X0133767Y0051308D01*
X0132975Y0050516D02*
X0134967Y0050516D01*
X0134967Y0052116D02*
X0134575Y0052116D01*
X0134967Y0052508D02*
X0132735Y0050276D01*
X0132735Y0049127D01*
X0132294Y0048061D01*
X0132648Y0048916D02*
X0134967Y0048916D01*
X0134967Y0047316D02*
X0131548Y0047316D01*
X0131267Y0045716D02*
X0134967Y0045716D01*
X0134967Y0044116D02*
X0131091Y0044116D01*
X0130567Y0043108D02*
X0130567Y0035416D01*
X0131267Y0036116D02*
X0123575Y0036116D01*
X0124167Y0036708D02*
X0124167Y0030616D01*
X0122567Y0030616D02*
X0122567Y0035108D01*
X0121975Y0034516D02*
X0129667Y0034516D01*
X0128967Y0033816D02*
X0128967Y0041508D01*
X0128375Y0040916D02*
X0134967Y0040916D01*
X0134967Y0042516D02*
X0129975Y0042516D01*
X0120967Y0033508D02*
X0120967Y0030616D01*
X0109767Y0038616D02*
X0109767Y0041116D01*
X0108167Y0041116D02*
X0108167Y0038616D01*
X0106567Y0038616D02*
X0106567Y0041116D01*
X0104967Y0041282D02*
X0104967Y0038616D01*
X0095367Y0042316D02*
X0095367Y0064346D01*
X0091661Y0066516D02*
X0069050Y0066516D01*
X0069012Y0068116D02*
X0088082Y0068116D01*
X0090567Y0067525D02*
X0090567Y0042216D01*
X0082567Y0042216D02*
X0082567Y0088208D01*
X0081858Y0088916D02*
X0068072Y0088916D01*
X0066567Y0088234D02*
X0066567Y0077003D01*
X0065837Y0077716D02*
X0087006Y0077716D01*
X0087367Y0078076D02*
X0087367Y0083408D01*
X0086658Y0084116D02*
X0061575Y0084116D01*
X0061767Y0084308D02*
X0061767Y0081351D01*
X0060167Y0081611D02*
X0060167Y0082708D01*
X0059975Y0082516D02*
X0088258Y0082516D01*
X0093075Y0087316D02*
X0093367Y0087316D01*
X0093767Y0087715D02*
X0093767Y0099658D01*
X0094348Y0100116D02*
X0120191Y0100116D01*
X0120967Y0100892D02*
X0120967Y0129808D01*
X0120258Y0130516D02*
X0109875Y0130516D01*
X0109767Y0130624D02*
X0109767Y0139316D01*
X0111367Y0139316D02*
X0111367Y0129024D01*
X0111475Y0128916D02*
X0121858Y0128916D01*
X0126675Y0133716D02*
X0127565Y0133716D01*
X0127367Y0133024D02*
X0127367Y0143165D01*
X0127367Y0143316D02*
X0128367Y0143316D01*
X0128967Y0143165D02*
X0128967Y0141651D01*
X0129122Y0141716D02*
X0118675Y0141716D01*
X0119367Y0141024D02*
X0119367Y0150662D01*
X0117767Y0150881D02*
X0117767Y0142624D01*
X0117075Y0143316D02*
X0124250Y0143316D01*
X0125767Y0143165D02*
X0125767Y0134624D01*
X0125075Y0135316D02*
X0127565Y0135316D01*
X0128257Y0132121D02*
X0128822Y0131557D01*
X0129888Y0131115D01*
X0134967Y0131115D01*
X0134967Y0124317D01*
X0129888Y0124317D01*
X0128822Y0123875D01*
X0128767Y0123819D01*
X0128767Y0130892D01*
X0128257Y0132121D01*
X0128260Y0132116D02*
X0128263Y0132116D01*
X0128967Y0131497D02*
X0128967Y0123935D01*
X0128767Y0124116D02*
X0129404Y0124116D01*
X0130567Y0124317D02*
X0130567Y0131115D01*
X0132167Y0131115D02*
X0132167Y0124317D01*
X0133767Y0124317D02*
X0133767Y0131115D01*
X0134967Y0130516D02*
X0128767Y0130516D01*
X0128767Y0128916D02*
X0134967Y0128916D01*
X0134967Y0127316D02*
X0128767Y0127316D01*
X0128767Y0125716D02*
X0134967Y0125716D01*
X0121967Y0117716D02*
X0119967Y0117716D01*
X0119683Y0116116D02*
X0121967Y0116116D01*
X0121967Y0114516D02*
X0118672Y0114516D01*
X0119367Y0115352D02*
X0119367Y0099292D01*
X0118591Y0098516D02*
X0082141Y0098516D01*
X0082567Y0097824D02*
X0082567Y0103885D01*
X0082382Y0103316D02*
X0083351Y0103316D01*
X0083351Y0101716D02*
X0082382Y0101716D01*
X0082467Y0100116D02*
X0086385Y0100116D01*
X0085767Y0100979D02*
X0085767Y0094624D01*
X0085075Y0095316D02*
X0096607Y0095316D01*
X0096967Y0095819D02*
X0096967Y0102008D01*
X0096675Y0101716D02*
X0121791Y0101716D01*
X0121967Y0103316D02*
X0098260Y0103316D01*
X0098567Y0104057D02*
X0098567Y0096807D01*
X0100167Y0096817D02*
X0100167Y0105015D01*
X0098767Y0104916D02*
X0121967Y0104916D01*
X0121967Y0106516D02*
X0106768Y0106516D01*
X0106567Y0105764D02*
X0106567Y0096518D01*
X0104967Y0096817D02*
X0104967Y0105015D01*
X0103367Y0105015D02*
X0103367Y0096817D01*
X0101767Y0096817D02*
X0101767Y0108574D01*
X0101717Y0108116D02*
X0102717Y0108116D01*
X0103367Y0108574D02*
X0103367Y0109316D01*
X0102217Y0109074D02*
X0102217Y0109566D01*
X0104967Y0109316D02*
X0104967Y0108574D01*
X0106567Y0108574D02*
X0106567Y0109316D01*
X0106768Y0108116D02*
X0121967Y0108116D01*
X0121967Y0109716D02*
X0109509Y0109716D01*
X0109767Y0109823D02*
X0109767Y0089692D01*
X0108991Y0088916D02*
X0108168Y0088916D01*
X0108167Y0088218D02*
X0108167Y0088092D01*
X0108168Y0090516D02*
X0110591Y0090516D01*
X0111367Y0091292D02*
X0111367Y0111408D01*
X0111275Y0111316D02*
X0121967Y0111316D01*
X0121967Y0112916D02*
X0112875Y0112916D01*
X0112967Y0113008D02*
X0112967Y0092892D01*
X0112191Y0092116D02*
X0108168Y0092116D01*
X0108168Y0093716D02*
X0113791Y0093716D01*
X0114567Y0094492D02*
X0114567Y0113116D01*
X0116167Y0113116D02*
X0116167Y0096092D01*
X0115391Y0095316D02*
X0107828Y0095316D01*
X0108167Y0094497D02*
X0108167Y0109316D01*
X0107867Y0112716D02*
X0112867Y0117716D01*
X0115367Y0117716D01*
X0112867Y0117716D02*
X0112867Y0122716D01*
X0109467Y0121308D02*
X0109467Y0119124D01*
X0108168Y0117826D01*
X0108168Y0121993D01*
X0107735Y0123039D01*
X0109467Y0121308D01*
X0109467Y0120916D02*
X0108168Y0120916D01*
X0108167Y0121997D02*
X0108167Y0122608D01*
X0108258Y0122516D02*
X0107952Y0122516D01*
X0106891Y0123884D02*
X0105845Y0124317D01*
X0103767Y0124317D01*
X0103767Y0125892D01*
X0103384Y0126816D01*
X0103958Y0126816D01*
X0106891Y0123884D01*
X0106658Y0124116D02*
X0106330Y0124116D01*
X0106567Y0124208D02*
X0106567Y0124018D01*
X0104967Y0124317D02*
X0104967Y0125808D01*
X0105058Y0125716D02*
X0103767Y0125716D01*
X0108168Y0119316D02*
X0109467Y0119316D01*
X0107867Y0112716D02*
X0097867Y0112716D01*
X0095367Y0110216D01*
X0095367Y0105216D01*
X0094520Y0104369D01*
X0090367Y0104369D01*
X0087367Y0099492D02*
X0087367Y0093024D01*
X0086675Y0093716D02*
X0096266Y0093716D01*
X0096266Y0092116D02*
X0088275Y0092116D01*
X0088967Y0091424D02*
X0088967Y0099304D01*
X0090567Y0099304D02*
X0090567Y0089824D01*
X0089875Y0090516D02*
X0096266Y0090516D01*
X0095367Y0089315D02*
X0095367Y0101040D01*
X0092167Y0099304D02*
X0092167Y0088224D01*
X0091475Y0088916D02*
X0094967Y0088916D01*
X0095500Y0084641D02*
X0095500Y0080082D01*
X0077867Y0097716D01*
X0077867Y0100216D01*
X0076167Y0104491D02*
X0076167Y0132847D01*
X0077767Y0133534D02*
X0077767Y0104816D01*
X0079178Y0106516D02*
X0075235Y0106516D01*
X0080967Y0104854D02*
X0080967Y0103885D01*
X0084167Y0100704D02*
X0084167Y0096224D01*
X0083475Y0096916D02*
X0116991Y0096916D01*
X0117767Y0097692D02*
X0117767Y0113731D01*
X0128767Y0101716D02*
X0134967Y0101716D01*
X0134967Y0100116D02*
X0128767Y0100116D01*
X0128208Y0098516D02*
X0134967Y0098516D01*
X0132167Y0096817D02*
X0132167Y0103615D01*
X0130567Y0103615D02*
X0130567Y0096817D01*
X0106065Y0085989D02*
X0101110Y0081035D01*
X0100882Y0081586D01*
X0099068Y0083400D01*
X0101566Y0085899D01*
X0105845Y0085899D01*
X0106065Y0085989D01*
X0105791Y0085716D02*
X0101384Y0085716D01*
X0101767Y0085899D02*
X0101767Y0081692D01*
X0102591Y0082516D02*
X0099952Y0082516D01*
X0100167Y0082301D02*
X0100167Y0084499D01*
X0099784Y0084116D02*
X0104191Y0084116D01*
X0104967Y0084892D02*
X0104967Y0085899D01*
X0103367Y0085899D02*
X0103367Y0083292D01*
X0095500Y0084641D02*
X0102217Y0091358D01*
X0095500Y0080082D02*
X0095500Y0079047D01*
X0089768Y0073314D01*
X0101267Y0055316D02*
X0074269Y0055316D01*
X0074567Y0054596D02*
X0074567Y0095835D01*
X0074352Y0095316D02*
X0075458Y0095316D01*
X0076167Y0094608D02*
X0076167Y0042216D01*
X0077767Y0042216D02*
X0077767Y0093008D01*
X0077058Y0093716D02*
X0072730Y0093716D01*
X0071367Y0093151D02*
X0071367Y0057281D01*
X0074931Y0053716D02*
X0102533Y0053716D01*
X0101767Y0054482D02*
X0101767Y0050950D01*
X0101333Y0050516D02*
X0074434Y0050516D01*
X0074567Y0050835D02*
X0074567Y0042216D01*
X0074967Y0052116D02*
X0102933Y0052116D01*
X0103367Y0052550D02*
X0103367Y0052882D01*
X0065367Y0092716D02*
X0060367Y0087716D01*
X0055367Y0082716D01*
X0055367Y0087524D02*
X0055367Y0088116D01*
X0059967Y0092124D02*
X0059967Y0092508D01*
X0060767Y0093308D01*
X0060767Y0092924D01*
X0059967Y0092124D01*
X0060167Y0092324D02*
X0060167Y0092708D01*
X0064775Y0097316D02*
X0065767Y0098308D01*
X0065767Y0097316D01*
X0064775Y0097316D01*
X0064967Y0097316D02*
X0064967Y0097508D01*
X0068167Y0114719D02*
X0068167Y0134247D01*
X0070367Y0142716D02*
X0062867Y0150216D01*
X0062867Y0162716D01*
X0060367Y0165216D01*
X0045367Y0165216D01*
X0047367Y0169366D02*
X0047367Y0172316D01*
X0045767Y0172316D02*
X0045767Y0169816D01*
X0042867Y0170216D02*
X0087867Y0170216D01*
X0087667Y0170516D02*
X0086667Y0170516D01*
X0085767Y0170203D02*
X0085767Y0146116D01*
X0080967Y0146116D02*
X0080967Y0182316D01*
X0082567Y0182316D02*
X0082567Y0177642D01*
X0082186Y0173716D02*
X0070468Y0173716D01*
X0070325Y0173573D02*
X0070325Y0173573D01*
X0076167Y0182316D02*
X0076167Y0146116D01*
X0077767Y0146116D02*
X0077767Y0182316D01*
X0079367Y0182316D02*
X0079367Y0146116D01*
X0090567Y0142324D02*
X0090567Y0171262D01*
X0091342Y0172116D02*
X0092707Y0172116D01*
X0092167Y0173420D02*
X0092167Y0141375D01*
X0092308Y0141716D02*
X0091175Y0141716D01*
X0089467Y0132116D02*
X0030855Y0132116D01*
X0031367Y0131604D02*
X0031367Y0146827D01*
X0031678Y0146516D02*
X0005767Y0146516D01*
X0005767Y0148116D02*
X0030583Y0148116D01*
X0030498Y0149716D02*
X0005767Y0149716D01*
X0005767Y0151316D02*
X0030498Y0151316D01*
X0030498Y0152916D02*
X0005767Y0152916D01*
X0010567Y0158816D02*
X0010567Y0086470D01*
X0010498Y0085716D02*
X0005767Y0085716D01*
X0005767Y0087316D02*
X0010917Y0087316D01*
X0010498Y0084116D02*
X0005767Y0084116D01*
X0005767Y0082516D02*
X0010498Y0082516D01*
X0010498Y0080916D02*
X0005767Y0080916D01*
X0005767Y0079316D02*
X0011378Y0079316D01*
X0011898Y0077716D02*
X0005767Y0077716D01*
X0005767Y0076116D02*
X0011898Y0076116D01*
X0012167Y0076385D02*
X0012167Y0077354D01*
X0013767Y0077354D02*
X0013767Y0076385D01*
X0011898Y0074516D02*
X0005767Y0074516D01*
X0012167Y0073837D02*
X0012167Y0073316D01*
X0012167Y0067917D02*
X0012167Y0066917D01*
X0005367Y0059683D02*
X0037867Y0059683D01*
X0037867Y0058685D02*
X0005367Y0058685D01*
X0005367Y0057686D02*
X0037867Y0057686D01*
X0037867Y0056688D02*
X0005367Y0056688D01*
X0005367Y0055689D02*
X0037867Y0055689D01*
X0037867Y0054691D02*
X0005367Y0054691D01*
X0005367Y0053692D02*
X0037867Y0053692D01*
X0037867Y0052694D02*
X0005367Y0052694D01*
X0005367Y0051695D02*
X0037867Y0051695D01*
X0037867Y0050696D02*
X0005367Y0050696D01*
X0005367Y0049698D02*
X0038385Y0049698D01*
X0039383Y0048699D02*
X0030609Y0048699D01*
X0031411Y0047701D02*
X0040382Y0047701D01*
X0041380Y0046702D02*
X0031453Y0046702D01*
X0031453Y0045704D02*
X0042379Y0045704D01*
X0043377Y0044705D02*
X0031453Y0044705D01*
X0023367Y0044705D02*
X0022367Y0044705D01*
X0022367Y0043707D02*
X0023367Y0043707D01*
X0022367Y0042708D02*
X0005367Y0042708D01*
X0005367Y0041710D02*
X0014280Y0041710D01*
X0014280Y0040711D02*
X0005367Y0040711D01*
X0005367Y0043707D02*
X0014280Y0043707D01*
X0014280Y0044705D02*
X0005367Y0044705D01*
X0005367Y0045704D02*
X0014280Y0045704D01*
X0014280Y0046702D02*
X0005367Y0046702D01*
X0005367Y0047701D02*
X0014322Y0047701D01*
X0015125Y0048699D02*
X0005367Y0048699D01*
X0022367Y0048699D02*
X0023367Y0048699D01*
X0023367Y0047701D02*
X0022367Y0047701D01*
X0022367Y0046702D02*
X0023367Y0046702D01*
X0023367Y0045704D02*
X0022367Y0045704D01*
X0022367Y0041710D02*
X0023367Y0041710D01*
X0023367Y0040711D02*
X0022367Y0040711D01*
X0022367Y0039713D02*
X0023367Y0039713D01*
X0023367Y0038714D02*
X0022367Y0038714D01*
X0022367Y0037716D02*
X0023367Y0037716D01*
X0026728Y0062679D02*
X0027865Y0062679D01*
X0027865Y0063677D02*
X0026766Y0063677D01*
X0026766Y0064676D02*
X0027865Y0064676D01*
X0027865Y0065674D02*
X0026766Y0065674D01*
X0026766Y0066673D02*
X0027865Y0066673D01*
X0030367Y0069015D02*
X0031965Y0067417D01*
X0037265Y0068116D02*
X0038367Y0068116D01*
X0038367Y0068352D02*
X0038367Y0063616D01*
X0037265Y0063616D01*
X0037265Y0069454D01*
X0038367Y0068352D01*
X0037767Y0068952D02*
X0037767Y0063616D01*
X0037265Y0064916D02*
X0038367Y0064916D01*
X0038367Y0066516D02*
X0037265Y0066516D01*
X0047367Y0066516D02*
X0062248Y0066516D01*
X0062210Y0068116D02*
X0047367Y0068116D01*
X0047367Y0069716D02*
X0062171Y0069716D01*
X0062287Y0064916D02*
X0047367Y0064916D01*
X0047367Y0063316D02*
X0062325Y0063316D01*
X0062364Y0061716D02*
X0047367Y0061716D01*
X0047367Y0060116D02*
X0062403Y0060116D01*
X0062441Y0058516D02*
X0047367Y0058516D01*
X0047367Y0056916D02*
X0062498Y0056916D01*
X0040367Y0097716D02*
X0040367Y0104369D01*
X0037767Y0114665D02*
X0037767Y0140767D01*
X0035851Y0143316D02*
X0034882Y0143316D01*
X0034567Y0143885D02*
X0034567Y0144854D01*
X0036167Y0144854D02*
X0036167Y0143885D01*
X0037767Y0143885D02*
X0037767Y0144854D01*
X0039367Y0144854D02*
X0039367Y0143885D01*
X0039882Y0143316D02*
X0040851Y0143316D01*
X0040967Y0143885D02*
X0040967Y0144854D01*
X0040367Y0137716D02*
X0040367Y0127716D01*
X0037378Y0128916D02*
X0091858Y0128916D01*
X0092167Y0128608D02*
X0092167Y0117671D01*
X0092212Y0117716D02*
X0023767Y0117716D01*
X0036167Y0114728D02*
X0036167Y0124272D01*
X0036167Y0127232D02*
X0036167Y0128200D01*
X0031898Y0143316D02*
X0005767Y0143316D01*
X0005767Y0144916D02*
X0031898Y0144916D01*
X0032967Y0144854D02*
X0032967Y0143885D01*
X0045367Y0157716D02*
X0050367Y0157716D01*
X0055367Y0157716D02*
X0055367Y0151062D01*
X0059467Y0159838D02*
X0059266Y0160322D01*
X0057972Y0161616D01*
X0057489Y0161816D01*
X0058958Y0161816D01*
X0059467Y0161308D01*
X0059467Y0159838D01*
X0059467Y0160916D02*
X0058672Y0160916D01*
X0058567Y0161021D02*
X0058567Y0161816D01*
X0077948Y0133716D02*
X0078003Y0133716D01*
X0097867Y0155216D02*
X0105367Y0155216D01*
X0112867Y0162716D01*
X0117138Y0162716D01*
X0122893Y0160916D02*
X0123414Y0160916D01*
X0123414Y0159316D02*
X0122893Y0159316D01*
X0123128Y0157716D02*
X0123414Y0157716D01*
X0125767Y0162216D02*
X0125767Y0163216D01*
X0132319Y0165716D02*
X0134967Y0165716D01*
X0134967Y0167316D02*
X0132319Y0167316D01*
X0125767Y0176724D02*
X0125767Y0177724D01*
X0123414Y0180116D02*
X0103000Y0180116D01*
X0101767Y0181034D02*
X0101767Y0182316D01*
X0100167Y0182316D02*
X0100167Y0181697D01*
X0095367Y0182316D02*
X0095367Y0181034D01*
X0087667Y0173716D02*
X0086667Y0173716D01*
X0086667Y0172116D02*
X0087667Y0172116D01*
X0096967Y0168735D02*
X0096967Y0164816D01*
X0098567Y0164816D02*
X0098567Y0168616D01*
X0112967Y0171234D02*
X0112967Y0182316D01*
X0117767Y0182316D02*
X0117767Y0174550D01*
X0119367Y0174769D02*
X0119367Y0182316D01*
X0120967Y0182316D02*
X0120967Y0174417D01*
X0122153Y0173716D02*
X0123414Y0173716D01*
X0122567Y0173302D02*
X0122567Y0182316D01*
X0114567Y0153335D02*
X0114567Y0145692D01*
X0114393Y0152916D02*
X0115216Y0152916D01*
X0120967Y0151015D02*
X0120967Y0139424D01*
X0120275Y0140116D02*
X0127733Y0140116D01*
X0130567Y0142033D02*
X0130567Y0143165D01*
X0131483Y0143316D02*
X0134967Y0143316D01*
X0128367Y0144916D02*
X0127367Y0144916D01*
X0125767Y0147708D02*
X0125767Y0148708D01*
X0123414Y0151316D02*
X0121693Y0151316D01*
X0106567Y0137074D02*
X0106567Y0136074D01*
X0104967Y0136074D02*
X0104967Y0137074D01*
X0103367Y0137074D02*
X0103367Y0136074D01*
X0102717Y0106516D02*
X0101717Y0106516D01*
X0023367Y0072664D02*
X0022367Y0072664D01*
X0022367Y0071665D02*
X0023367Y0071665D01*
X0023367Y0070667D02*
X0022367Y0070667D01*
X0022367Y0069668D02*
X0023367Y0069668D01*
X0023367Y0068670D02*
X0022367Y0068670D01*
D22*
X0030367Y0069015D02*
X0030367Y0076869D01*
X0036213Y0076869D01*
X0042867Y0070216D01*
X0042867Y0052716D01*
X0057867Y0037716D01*
X0095367Y0037716D01*
M02*
